<svg width="21" height="21" viewBox="0 0 21 21" fill="none" xmlns="http://www.w3.org/2000/svg">
<path d="M18.1309 11.3099V10.2718C18.0842 8.27975 17.26 6.38501 15.8346 4.99266C14.4092 3.6003 12.4956 2.8208 10.503 2.8208C8.51041 2.8208 6.59686 3.6003 5.17145 4.99266C3.74604 6.38501 2.92186 8.27975 2.87511 10.2718V11.3099C1.93711 12.1331 1.93781 13.6899 2.87511 14.5131V17.5126C2.87511 17.6054 2.91199 17.6944 2.97763 17.7601C3.04326 17.8257 3.13229 17.8626 3.22511 17.8626H6.02091C8.28891 20.6255 12.7059 20.6626 15.0152 17.8626H17.7809C17.8737 17.8626 17.9628 17.8257 18.0284 17.7601C18.094 17.6944 18.1309 17.6054 18.1309 17.5126V14.5131C19.0668 13.6899 19.0661 12.1331 18.1309 11.3099ZM3.57091 10.2718C3.5724 8.4343 4.30299 6.67249 5.6023 5.37319C6.90161 4.07388 8.66342 3.34328 10.5009 3.3418C14.5679 3.3236 17.7207 6.8572 17.4309 10.8794C17.1069 10.7583 16.7586 10.7165 16.4152 10.7576V8.9964C16.4152 8.90357 16.3783 8.81455 16.3127 8.74891C16.2471 8.68327 16.158 8.6464 16.0652 8.6464C14.4307 8.6387 13.1812 7.602 12.6709 6.0802C12.6479 6.02444 12.6108 5.97559 12.5633 5.93839C12.5158 5.90119 12.4594 5.8769 12.3998 5.86788C12.3401 5.85887 12.2791 5.86543 12.2228 5.88693C12.1664 5.90843 12.1165 5.94414 12.078 5.9906C11.3913 6.82258 10.5288 7.4922 9.5526 7.95138C8.57639 8.41056 7.51062 8.64791 6.43181 8.6464H4.93871C4.84589 8.6464 4.75686 8.68327 4.69122 8.74891C4.62559 8.81455 4.58871 8.90357 4.58871 8.9964V10.7597C4.24459 10.7183 3.89555 10.76 3.57091 10.8815V10.2718ZM2.87091 13.0676C2.75331 12.1163 3.65141 11.2826 4.58661 11.4681C4.59151 11.7362 4.57401 14.1526 4.60061 14.3528C3.78091 14.5187 2.95491 13.9069 2.87091 13.0676ZM3.57091 17.1626V14.9415C3.92829 15.0752 4.31452 15.1126 4.69091 15.05C4.82742 15.7998 5.10537 16.5167 5.50991 17.1626H3.57091ZM14.6785 17.1626C12.6079 19.9563 8.39811 19.9409 6.35481 17.1626C5.02481 15.3776 5.31531 13.8635 5.28661 11.8013C5.28661 11.2371 5.28661 9.9239 5.28661 9.3464H6.42761C7.5139 9.34806 8.58915 9.12845 9.58779 8.70098C10.5864 8.2735 11.4876 7.64711 12.2362 6.86C12.5403 7.54611 13.0237 8.13758 13.6356 8.57217C14.2474 9.00676 14.9651 9.26841 15.7131 9.3296V11.7985C15.6865 13.79 15.9721 15.47 14.6806 17.1626H14.6785ZM17.4267 17.1626H15.5269C15.9285 16.5171 16.2002 15.7995 16.327 15.05C16.6982 15.1101 17.0786 15.0727 17.4309 14.9415L17.4267 17.1626ZM18.1267 13.0676C18.0448 13.9076 17.2223 14.5159 16.4026 14.3535C16.418 14.2996 16.4082 11.62 16.411 11.4681C17.3483 11.2826 18.2464 12.1163 18.1309 13.0676H18.1267Z" fill="#F16232"/>
<path d="M11.7194 16.9288C11.7962 16.8768 11.8492 16.7964 11.8668 16.7053C11.8844 16.6142 11.8651 16.5199 11.8132 16.443C11.6668 16.2262 11.4688 16.0493 11.2369 15.9283C11.005 15.8073 10.7466 15.7461 10.4851 15.7501C10.2236 15.7542 9.96721 15.8233 9.73916 15.9514C9.51112 16.0795 9.3186 16.2624 9.17905 16.4836C9.15451 16.5225 9.13786 16.5658 9.13007 16.6111C9.12227 16.6565 9.12348 16.7029 9.13362 16.7477C9.14376 16.7926 9.16263 16.835 9.18917 16.8725C9.2157 16.9101 9.24937 16.9421 9.28825 16.9666C9.32714 16.9911 9.37047 17.0078 9.41579 17.0156C9.46111 17.0234 9.50752 17.0222 9.55237 17.012C9.59722 17.0019 9.63963 16.983 9.67719 16.9565C9.71475 16.93 9.74671 16.8963 9.77125 16.8574C9.81748 16.7849 9.87408 16.7196 9.93925 16.6635C10.0974 16.5258 10.3 16.45 10.5098 16.45C10.6526 16.4508 10.793 16.4862 10.9191 16.5533C11.0452 16.6204 11.1531 16.717 11.2336 16.835C11.2856 16.9118 11.3659 16.9649 11.457 16.9825C11.5481 17 11.6425 16.9807 11.7194 16.9288Z" fill="#F16232"/>
<path d="M8.13963 13.6283C8.25455 13.6283 8.36476 13.5826 8.44602 13.5014C8.52728 13.4201 8.57293 13.3099 8.57293 13.195V12.628C8.55543 12.0554 7.72453 12.0554 7.70703 12.628V13.195C7.70703 13.3098 7.75259 13.4199 7.83369 13.5011C7.9148 13.5824 8.02483 13.6281 8.13963 13.6283Z" fill="#F16232"/>
<path d="M13.167 13.195V12.628C13.1694 12.5697 13.1599 12.5115 13.1392 12.4569C13.1185 12.4023 13.087 12.3525 13.0466 12.3104C13.0061 12.2683 12.9576 12.2348 12.9039 12.212C12.8502 12.1891 12.7924 12.1773 12.7341 12.1773C12.6757 12.1773 12.6179 12.1891 12.5643 12.212C12.5106 12.2348 12.462 12.2683 12.4216 12.3104C12.3812 12.3525 12.3496 12.4023 12.3289 12.4569C12.3082 12.5115 12.2988 12.5697 12.3011 12.628V13.195C12.3221 13.7676 13.1495 13.7676 13.167 13.195Z" fill="#F16232"/>
<path d="M7.70625 15.9922C7.11125 15.981 6.66675 16.6054 6.87045 17.1626C7.14485 17.9543 8.27045 17.9543 8.54135 17.1626C8.74505 16.6054 8.30055 15.981 7.70625 15.9922ZM7.70625 17.0604C7.65743 17.0604 7.6106 17.041 7.57607 17.0065C7.54155 16.972 7.52215 16.9251 7.52215 16.8763C7.52215 16.8275 7.54155 16.7806 7.57607 16.7461C7.6106 16.7116 7.65743 16.6922 7.70625 16.6922C7.75508 16.6922 7.80191 16.7116 7.83643 16.7461C7.87096 16.7806 7.89035 16.8275 7.89035 16.8763C7.89035 16.9251 7.87096 16.972 7.83643 17.0065C7.80191 17.041 7.75508 17.0604 7.70625 17.0604Z" fill="#F16232"/>
<path d="M13.4916 16.3961C13.4102 16.3967 13.3302 16.418 13.2593 16.4581C13.1884 16.4981 13.1289 16.5556 13.0863 16.625C13.0438 16.6944 13.0196 16.7736 13.0161 16.8549C13.0126 16.9363 13.0298 17.0172 13.0662 17.09C13.1027 17.1629 13.157 17.2252 13.2242 17.2712C13.2914 17.3172 13.3692 17.3454 13.4503 17.353C13.5314 17.3606 13.6131 17.3474 13.6877 17.3147C13.7622 17.282 13.8273 17.2309 13.8766 17.1661C13.9301 17.0946 13.9626 17.0096 13.9706 16.9206C13.9785 16.8316 13.9616 16.7422 13.9217 16.6623C13.8817 16.5824 13.8203 16.5152 13.7444 16.4682C13.6684 16.4212 13.5809 16.3962 13.4916 16.3961Z" fill="#F16232"/>
<path d="M11.6725 17.6701C11.2182 17.6862 11.2189 18.3449 11.6725 18.3582C12.1268 18.3449 12.1268 17.6862 11.6725 17.6701Z" fill="#F16232"/>
<path d="M13.7195 10.6484C13.3457 10.8493 12.4084 10.6645 12.1277 10.3334C11.8113 9.99809 11.3073 10.4503 11.6076 10.8017C12.1025 11.3554 13.3268 11.6284 14.0359 11.2728C14.4412 11.0509 14.1395 10.4524 13.7195 10.6484Z" fill="#F16232"/>
</svg>
