<svg width="21" height="21" viewBox="0 0 21 21" fill="none" xmlns="http://www.w3.org/2000/svg">
<path d="M10.378 16.3812C9.71731 16.2958 9.11034 15.9727 8.67052 15.4724C8.2307 14.972 7.98814 14.3286 7.98818 13.6624V10.1542H13.4697V10.4313C13.4697 10.5183 13.5043 10.6018 13.5658 10.6633C13.6273 10.7248 13.7108 10.7594 13.7978 10.7594C13.8848 10.7594 13.9682 10.7248 14.0297 10.6633C14.0912 10.6018 14.1258 10.5183 14.1258 10.4313V5.98966C14.1271 5.54313 14.0399 5.10077 13.8691 4.68819C13.6983 4.27561 13.4473 3.90101 13.1308 3.58608C11.0316 1.45212 7.31251 2.99467 7.33211 5.98973L7.33209 13.6624C7.33231 14.4883 7.63328 15.2859 8.17874 15.9061C8.72421 16.5262 9.47685 16.9265 10.296 17.0322C10.3387 17.0376 10.3821 17.0345 10.4237 17.0231C10.4652 17.0117 10.5041 16.9923 10.5381 16.9658C10.5722 16.9394 10.6007 16.9066 10.622 16.8691C10.6433 16.8317 10.6571 16.7905 10.6625 16.7477C10.6678 16.705 10.6648 16.6616 10.6534 16.62C10.642 16.5785 10.6225 16.5396 10.5961 16.5056C10.5697 16.4715 10.5368 16.443 10.4994 16.4217C10.462 16.4004 10.4207 16.3866 10.378 16.3812ZM7.98818 5.98966C7.98818 5.26277 8.27694 4.56565 8.79093 4.05166C9.04544 3.79716 9.34758 3.59528 9.6801 3.45754C10.0126 3.31981 10.369 3.24892 10.7289 3.24892C11.0889 3.24892 11.4453 3.31981 11.7778 3.45755C12.1103 3.59529 12.4124 3.79717 12.6669 4.05167C12.9214 4.30618 13.1233 4.60832 13.2611 4.94084C13.3988 5.27337 13.4697 5.62976 13.4697 5.98968L13.4697 9.49815H7.98818V5.98966Z" fill="#F16232"/>
<path d="M7.53674 3.46242C7.61212 3.41894 7.66714 3.34729 7.6897 3.26324C7.71226 3.17919 7.70051 3.08963 7.65703 3.01424C7.35792 2.49805 6.92853 2.06944 6.4118 1.77126C5.89508 1.47308 5.30912 1.31578 4.71253 1.3151C2.15331 1.2742 0.446323 4.2136 1.77448 6.41288L5.60998 13.0598C5.83078 13.3694 6.1448 14.0582 6.57809 13.7207C6.89858 13.3427 6.30731 13.0749 6.17769 12.7308L4.422 9.68835L6.51 8.48488C6.58363 8.44056 6.63693 8.36911 6.65843 8.2859C6.67993 8.20269 6.66793 8.11436 6.62499 8.03991C6.58206 7.96546 6.51162 7.91083 6.42883 7.88777C6.34604 7.8647 6.25751 7.87504 6.18226 7.91657L4.09408 9.12015L2.34254 6.0848C2.1613 5.77338 2.04371 5.42906 1.99658 5.07184C1.94945 4.71461 1.97373 4.35158 2.06801 4.0038C2.65482 1.67255 5.91961 1.24647 7.08872 3.34235C7.13227 3.41762 7.2039 3.47254 7.28789 3.49505C7.37189 3.51756 7.46139 3.50583 7.53674 3.46242Z" fill="#F16232"/>
<path d="M15.4247 11.1563C14.5812 11.1563 13.7567 11.4064 13.0554 11.875C12.3541 12.3436 11.8075 13.0096 11.4848 13.7888C11.162 14.5681 11.0776 15.4255 11.2421 16.2528C11.4066 17.08 11.8128 17.8399 12.4092 18.4363C13.0056 19.0327 13.7655 19.4388 14.5927 19.6034C15.4199 19.7679 16.2774 19.6835 17.0566 19.3607C17.8359 19.0379 18.5019 18.4913 18.9705 17.79C19.4391 17.0887 19.6892 16.2642 19.6892 15.4208C19.6879 14.2902 19.2382 13.2062 18.4387 12.4068C17.6393 11.6073 16.5553 11.1576 15.4247 11.1563ZM11.8162 15.4208C11.8156 14.5772 12.112 13.7604 12.6534 13.1134L14.0446 14.5046C14.1061 14.5661 14.1895 14.6007 14.2765 14.6007C14.3635 14.6007 14.447 14.5661 14.5085 14.5046C14.57 14.4431 14.6045 14.3597 14.6045 14.2727C14.6045 14.1857 14.57 14.1022 14.5085 14.0407L13.1173 12.6496C13.8085 12.0728 14.6904 11.7755 15.5896 11.816C16.4889 11.8565 17.3405 12.2319 17.977 12.8684C18.6136 13.505 18.989 14.3566 19.0295 15.2558C19.07 16.1551 18.7726 17.037 18.1959 17.7282L16.8079 16.3402C16.7464 16.2787 16.663 16.2441 16.576 16.2441H16.5728C16.5065 16.2443 16.4417 16.2647 16.3872 16.3025C16.3327 16.3403 16.291 16.3938 16.2675 16.4559C16.2441 16.5179 16.24 16.5857 16.2559 16.6501C16.2718 16.7145 16.3069 16.7725 16.3566 16.8166L17.732 18.192C17.2055 18.6314 16.5646 18.9115 15.8845 18.9994C15.2044 19.0874 14.5134 18.9796 13.8924 18.6887C13.2714 18.3978 12.7462 17.9359 12.3785 17.357C12.0108 16.7782 11.8157 16.1066 11.8162 15.4208Z" fill="#F16232"/>
<path d="M17.1489 15.2699L17.5194 14.8993C17.6228 14.7958 17.7049 14.673 17.7609 14.5378C17.8169 14.4026 17.8457 14.2577 17.8457 14.1114C17.8457 13.9651 17.8169 13.8202 17.7609 13.685C17.705 13.5498 17.6229 13.427 17.5194 13.3235C17.416 13.2201 17.2931 13.138 17.158 13.082C17.0228 13.026 16.8779 12.9972 16.7316 12.9972C16.5853 12.9972 16.4404 13.026 16.3052 13.082C16.17 13.1379 16.0472 13.22 15.9437 13.3235L15.5729 13.6941C15.4691 13.7974 15.3869 13.9202 15.3309 14.0555C15.2749 14.1908 15.2462 14.3358 15.2466 14.4822C15.2374 14.9261 15.5939 15.017 14.9695 15.1193C14.6299 15.1714 14.3158 15.3305 14.0729 15.5734C13.83 15.8163 13.6709 16.1304 13.6188 16.47C13.5992 16.6829 13.5036 16.8816 13.3493 17.0296C13.2898 17.0915 13.257 17.1743 13.2578 17.2602C13.2587 17.3461 13.2932 17.4282 13.3539 17.4889C13.4146 17.5496 13.4968 17.5841 13.5826 17.585C13.6685 17.5858 13.7513 17.553 13.8132 17.4935C14.0612 17.253 14.2199 16.9353 14.2633 16.5927C14.2891 16.3817 14.3847 16.1855 14.5349 16.0353C14.6851 15.885 14.8813 15.7894 15.0922 15.7636C15.361 15.7273 15.6156 15.6213 15.8307 15.4561C16.0407 15.5729 16.2831 15.6179 16.5211 15.5843C16.759 15.5507 16.9794 15.4403 17.1489 15.2699ZM16.037 14.158C16.2068 14.0127 16.4743 13.6227 16.7316 13.6534C16.8215 13.6549 16.909 13.6827 16.9834 13.7333C17.0577 13.7839 17.1157 13.8551 17.1501 13.9382C17.1845 14.0213 17.1939 14.1126 17.1771 14.2009C17.1603 14.2893 17.118 14.3708 17.0555 14.4354L16.685 14.8061C16.5986 14.8899 16.4827 14.9364 16.3624 14.9355C16.242 14.9346 16.1268 14.8864 16.0417 14.8012C15.9566 14.7161 15.9084 14.6009 15.9075 14.4806C15.9066 14.3602 15.9531 14.2443 16.037 14.158Z" fill="#F16232"/>
</svg>
