<svg width="21" height="21" viewBox="0 0 21 21" fill="none" xmlns="http://www.w3.org/2000/svg">
<path d="M17.8809 9.07921H17.6602C17.1514 9.07006 16.658 8.90318 16.2481 8.60163C15.9356 8.3967 15.5944 8.23919 15.2357 8.13421C15.6866 7.53288 15.9286 6.8006 15.9247 6.04898C15.9247 4.19639 14.5035 2.68898 12.7567 2.68898C12.0793 2.68987 11.4217 2.91742 10.8887 3.33539C10.7768 3.42281 10.6389 3.4703 10.497 3.4703C10.355 3.4703 10.2171 3.42281 10.1053 3.33539C9.57273 2.91767 8.91574 2.69012 8.23891 2.68898C6.49213 2.68898 5.07086 4.19639 5.07086 6.04898C5.06709 6.79506 5.30562 7.5222 5.75057 8.12109C5.38204 8.22665 5.03099 8.38567 4.70861 8.5931C4.28401 8.90033 3.77542 9.07 3.25141 9.07921H3.11523C3.03909 9.07921 2.96606 9.10946 2.91222 9.16331C2.85837 9.21715 2.82813 9.29018 2.82812 9.36632V16.3362C2.82873 16.8224 3.02215 17.2885 3.36594 17.6322C3.70973 17.976 4.17584 18.1694 4.66202 18.1699H16.3341C16.8203 18.1694 17.2864 17.976 17.6302 17.6322C17.9739 17.2885 18.1674 16.8224 18.168 16.3362V9.36632C18.168 9.29018 18.1377 9.21715 18.0839 9.16331C18.03 9.10946 17.957 9.07921 17.8809 9.07921ZM8.23891 3.2632C8.78831 3.26434 9.32156 3.44914 9.75386 3.7882C9.96627 3.95401 10.228 4.04407 10.4975 4.04407C10.7669 4.04407 11.0287 3.95401 11.2411 3.7882C11.6737 3.449 12.2074 3.2642 12.7572 3.2632C14.1873 3.2632 15.351 4.51286 15.351 6.04898C15.3545 6.42571 15.2834 6.79942 15.1419 7.14857C15.0003 7.49772 14.7911 7.81541 14.5263 8.08336C14.5018 8.1078 14.4744 8.13356 14.4505 8.1562C14.198 8.38262 13.9967 8.66019 13.8598 8.97045C13.7229 9.2807 13.6536 9.61654 13.6566 9.95564C13.6581 9.98943 13.6579 10.0245 13.6579 10.0583C13.6648 10.6058 13.5531 11.1482 13.3305 11.6484C13.1079 12.1486 12.7797 12.5947 12.3684 12.956C12.3512 12.9708 12.3299 12.9801 12.3074 12.9828C12.2848 12.9854 12.262 12.9812 12.2419 12.9708C12.2208 12.9616 12.2028 12.9466 12.1901 12.9274C12.1775 12.9082 12.1706 12.8858 12.1705 12.8628C12.1723 12.8057 12.1723 12.7506 12.1723 12.6935C12.1723 10.71 11.5858 8.60179 10.4989 8.60179C9.41195 8.60179 8.82461 10.71 8.82461 12.6935C8.82461 12.7506 8.82461 12.8057 8.82625 12.8576C8.82678 12.8812 8.8203 12.9045 8.80763 12.9245C8.79496 12.9445 8.77667 12.9603 8.75505 12.97C8.73484 12.9804 8.71198 12.9845 8.68941 12.9818C8.66683 12.9791 8.64558 12.9697 8.62839 12.9549C8.21709 12.5938 7.88881 12.148 7.6661 11.6481C7.44339 11.1481 7.33153 10.6059 7.3382 10.0587C7.3382 10.0249 7.3382 9.98976 7.33968 9.95088C7.34183 9.61197 7.27188 9.27647 7.13447 8.96666C6.99706 8.65684 6.79533 8.3798 6.54266 8.1539C6.51494 8.12896 6.48869 8.10271 6.45965 8.07368C5.93068 7.5333 5.63772 6.80513 5.64508 6.04898C5.64508 4.51286 6.80877 3.2632 8.23891 3.2632ZM17.5938 16.3362C17.5934 16.6701 17.4605 16.9903 17.2244 17.2264C16.9882 17.4625 16.668 17.5954 16.3341 17.5957H4.66202C4.32806 17.5954 4.00789 17.4625 3.77173 17.2264C3.53558 16.9903 3.40273 16.6701 3.40234 16.3362V9.64933C3.99088 9.60987 4.55675 9.4071 5.03641 9.06379C5.38799 8.84876 5.77131 8.69058 6.17221 8.59507C6.36003 8.76323 6.51006 8.96931 6.61241 9.19971C6.71475 9.4301 6.76708 9.67958 6.76595 9.93168C6.76415 9.97336 6.76398 10.017 6.76398 10.0587C6.75756 10.6899 6.8879 11.315 7.14605 11.891C7.40419 12.4671 7.78402 12.9804 8.25941 13.3957C8.36067 13.4816 8.4847 13.5362 8.61642 13.5528C8.74814 13.5695 8.88186 13.5475 9.0013 13.4895C9.12313 13.4326 9.22575 13.3415 9.29661 13.2272C9.36747 13.113 9.4035 12.9805 9.4003 12.8461C9.39883 12.7949 9.39883 12.7452 9.39883 12.6938C9.39883 10.5466 10.05 9.17634 10.498 9.17634C10.9461 9.17634 11.5973 10.5466 11.5973 12.6938C11.5973 12.7452 11.5973 12.7949 11.5956 12.8505C11.593 12.9844 11.6293 13.1161 11.7002 13.2297C11.771 13.3433 11.8734 13.4339 11.9948 13.4904C12.0886 13.5352 12.1913 13.5587 12.2954 13.5589C12.4569 13.5587 12.6131 13.5013 12.7364 13.3968C13.2119 12.9814 13.5919 12.468 13.8501 11.8917C14.1083 11.3154 14.2386 10.6901 14.2321 10.0587C14.2321 10.017 14.2321 9.97336 14.2303 9.93677C14.2288 9.68685 14.2798 9.43941 14.38 9.21047C14.4803 8.98154 14.6275 8.77623 14.8122 8.60786C15.2028 8.7024 15.5757 8.85893 15.9167 9.0715C16.4055 9.42774 16.9893 9.63032 17.5938 9.65343V16.3362Z" fill="#F16232"/>
<path d="M5.58818 13.2438C5.38222 13.2438 5.18089 13.3049 5.00965 13.4193C4.8384 13.5337 4.70493 13.6963 4.62612 13.8866C4.54732 14.0769 4.5267 14.2863 4.5669 14.4883C4.60709 14.6903 4.70628 14.8758 4.85192 15.0215C4.99757 15.1671 5.18313 15.2662 5.38513 15.3064C5.58714 15.3466 5.79651 15.3259 5.98678 15.2471C6.17705 15.1682 6.33967 15.0347 6.45407 14.8635C6.56847 14.6922 6.62952 14.4909 6.62948 14.2849C6.62918 14.0089 6.51937 13.7442 6.32415 13.549C6.12893 13.3538 5.86424 13.244 5.58818 13.2438ZM5.58818 14.752C5.4958 14.752 5.40549 14.7246 5.32868 14.6733C5.25187 14.622 5.192 14.549 5.15665 14.4637C5.1213 14.3783 5.11205 14.2844 5.13007 14.1938C5.14809 14.1032 5.19258 14.02 5.2579 13.9546C5.32322 13.8893 5.40645 13.8448 5.49706 13.8268C5.58766 13.8088 5.68158 13.818 5.76693 13.8534C5.85228 13.8887 5.92522 13.9486 5.97655 14.0254C6.02787 14.1022 6.05527 14.1925 6.05527 14.2849C6.05518 14.4088 6.00594 14.5275 5.91836 14.6151C5.83079 14.7027 5.71203 14.7519 5.58818 14.752Z" fill="#F16232"/>
<path d="M12.9371 14.9574C12.7533 14.9574 12.5736 15.0119 12.4208 15.114C12.268 15.2161 12.1489 15.3613 12.0785 15.5311C12.0082 15.7009 11.9898 15.8877 12.0257 16.068C12.0615 16.2482 12.15 16.4138 12.28 16.5437C12.4099 16.6737 12.5755 16.7622 12.7558 16.7981C12.936 16.8339 13.1229 16.8155 13.2927 16.7452C13.4625 16.6748 13.6076 16.5557 13.7097 16.4029C13.8118 16.2501 13.8663 16.0705 13.8663 15.8867C13.8661 15.6403 13.7681 15.4041 13.5939 15.2299C13.4196 15.0557 13.1834 14.9577 12.9371 14.9574ZM12.9371 16.2417C12.8668 16.2417 12.7982 16.2209 12.7398 16.1819C12.6814 16.1428 12.6359 16.0874 12.6091 16.0225C12.5822 15.9577 12.5752 15.8863 12.5889 15.8174C12.6026 15.7485 12.6364 15.6853 12.686 15.6356C12.7357 15.586 12.7989 15.5522 12.8678 15.5385C12.9367 15.5248 13.0081 15.5318 13.0729 15.5587C13.1378 15.5855 13.1932 15.631 13.2323 15.6894C13.2713 15.7478 13.2921 15.8164 13.2921 15.8867C13.2921 15.9809 13.2547 16.0712 13.1881 16.1379C13.1216 16.2045 13.0313 16.2421 12.9371 16.2422V16.2417Z" fill="#F16232"/>
<path d="M15.3516 11.539C15.3515 11.7091 15.402 11.8755 15.4965 12.017C15.591 12.1584 15.7253 12.2687 15.8825 12.3338C16.0397 12.399 16.2126 12.416 16.3795 12.3828C16.5464 12.3496 16.6997 12.2677 16.82 12.1474C16.9403 12.0271 17.0222 11.8738 17.0554 11.7069C17.0886 11.5401 17.0715 11.3671 17.0064 11.2099C16.9413 11.0527 16.831 10.9184 16.6895 10.8239C16.548 10.7294 16.3817 10.679 16.2116 10.679C15.9836 10.6793 15.765 10.77 15.6038 10.9312C15.4426 11.0924 15.3519 11.311 15.3516 11.539ZM16.2116 11.2532C16.2681 11.2532 16.3235 11.2699 16.3705 11.3013C16.4176 11.3327 16.4542 11.3774 16.4759 11.4297C16.4976 11.4819 16.5032 11.5394 16.4922 11.5949C16.4812 11.6504 16.4539 11.7014 16.4139 11.7414C16.3739 11.7814 16.323 11.8086 16.2675 11.8196C16.212 11.8307 16.1545 11.825 16.1022 11.8033C16.05 11.7817 16.0053 11.745 15.9739 11.6979C15.9425 11.6509 15.9257 11.5956 15.9258 11.539C15.9259 11.4632 15.9561 11.3906 16.0096 11.3371C16.0632 11.2835 16.1358 11.2533 16.2116 11.2532Z" fill="#F16232"/>
</svg>
