<svg width="21" height="21" viewBox="0 0 21 21" fill="none" xmlns="http://www.w3.org/2000/svg">
<path d="M6.88997 5.25C5.96039 5.25 5.79666 9.84375 4.92188 9.84375C4.42969 9.84375 4.26562 8.33995 4.26562 5.90625C4.26562 4.32042 6.12478 1.3125 10.4993 1.3125C14.8746 1.3125 16.7337 4.32042 16.7337 5.90625C16.7337 8.33995 16.5697 9.84375 16.0775 9.84375C15.2027 9.84375 15.0931 5.57812 14.4368 5.57812C13.6979 5.57812 13.443 5.88394 10.4997 5.90527L10.4993 5.90625C8.66742 5.90625 7.62858 5.25 6.88997 5.25Z" stroke="#F16232" stroke-width="0.8" stroke-miterlimit="10" stroke-linecap="round" stroke-linejoin="round"/>
<path d="M11.1338 19.0116C11.0717 19.0148 11.0058 19.0214 10.9402 19.0214C10.8516 19.0247 10.763 19.028 10.6678 19.028C10.612 19.0313 10.5563 19.0313 10.5005 19.0313C10.4447 19.0313 10.3889 19.0313 10.3331 19.028C10.238 19.028 10.1494 19.0247 10.0608 19.0214C9.99516 19.0214 9.92953 19.0148 9.86719 19.0116" stroke="#F16232" stroke-width="0.8" stroke-miterlimit="10" stroke-linecap="round" stroke-linejoin="round"/>
<path d="M6.45094 16.1963C5.99156 15.5695 5.57812 14.6672 5.57812 13.125C4.75781 13.837 3.9375 12.577 3.9375 10.8281C3.9375 9.4336 4.45594 9.63703 4.75125 9.77485C4.75453 9.77813 4.75453 9.77813 4.75781 9.78141C4.76109 9.78141 4.76109 9.78469 4.76438 9.78469C4.81688 9.81094 4.85953 9.83063 4.89234 9.84047C4.90547 9.84375 4.91531 9.84375 4.92188 9.84375" stroke="#F16232" stroke-width="0.8" stroke-miterlimit="10" stroke-linecap="round" stroke-linejoin="round"/>
<path d="M14.5508 16.1963C15.0102 15.5695 15.4236 14.6672 15.4236 13.125C16.2439 13.837 17.0642 12.577 17.0642 10.8281C17.0642 9.4336 16.5458 9.63703 16.2505 9.77485C16.2472 9.77813 16.2472 9.77813 16.2439 9.78141C16.1717 9.81422 16.1127 9.84375 16.0798 9.84375" stroke="#F16232" stroke-width="0.8" stroke-miterlimit="10" stroke-linecap="round" stroke-linejoin="round"/>
<path d="M9.51562 14.4375L8.20312 18.7031C8.20312 18.7031 8.91417 19.0312 10.5 19.0312C12.0858 19.0312 12.7969 18.7031 12.7969 18.7031L11.4844 14.4375" stroke="#F16232" stroke-width="0.8" stroke-miterlimit="10" stroke-linecap="round" stroke-linejoin="round"/>
<path d="M8.30156 18.3816C7.37297 18.3258 5.90625 17.3906 5.90625 17.3906C5.90625 17.3906 8.72255 10.8281 10.5 10.8281C12.2775 10.8281 15.0938 17.3906 15.0938 17.3906C15.0938 17.3906 13.627 18.3258 12.6984 18.3816" stroke="#F16232" stroke-width="0.8" stroke-miterlimit="10" stroke-linecap="round" stroke-linejoin="round"/>
<path d="M12.1406 10.1719C12.7194 10.6093 13.5306 10.6093 14.1094 10.1719" stroke="#F16232" stroke-width="0.8" stroke-miterlimit="10" stroke-linecap="round" stroke-linejoin="round"/>
<path d="M8.85938 10.1719C8.28056 10.6093 7.46944 10.6093 6.89062 10.1719" stroke="#F16232" stroke-width="0.8" stroke-miterlimit="10" stroke-linecap="round" stroke-linejoin="round"/>
<path d="M15.4219 18.375L16.7344 19.6875" stroke="#F16232" stroke-width="0.8" stroke-miterlimit="10" stroke-linecap="round" stroke-linejoin="round"/>
<path d="M5.57812 18.375L4.26562 19.6875" stroke="#F16232" stroke-width="0.8" stroke-miterlimit="10" stroke-linecap="round" stroke-linejoin="round"/>
<path d="M16.4062 16.4062L18.375 17.7188" stroke="#F16232" stroke-width="0.8" stroke-miterlimit="10" stroke-linecap="round" stroke-linejoin="round"/>
<path d="M4.59375 16.4062L2.625 17.7188" stroke="#F16232" stroke-width="0.8" stroke-miterlimit="10" stroke-linecap="round" stroke-linejoin="round"/>
<path d="M16.7344 14.4375L19.0312 14.7656" stroke="#F16232" stroke-width="0.8" stroke-miterlimit="10" stroke-linecap="round" stroke-linejoin="round"/>
<path d="M4.26562 14.4375L1.96875 14.7656" stroke="#F16232" stroke-width="0.8" stroke-miterlimit="10" stroke-linecap="round" stroke-linejoin="round"/>
</svg>
