<svg width="21" height="21" viewBox="0 0 21 21" fill="none" xmlns="http://www.w3.org/2000/svg">
<path d="M15.813 11.529L15.183 11.424C14.028 11.235 13.608 11.004 13.419 10.458L13.104 9.492C13.965 8.757 14.511 7.665 14.511 6.447V5.04C14.511 2.835 12.726 1.05 10.521 1.05C8.31603 1.05 6.53103 2.835 6.53103 5.04V6.426C6.53103 7.644 7.07703 8.736 7.93803 9.471L7.62303 10.437C7.43403 10.983 7.01403 11.214 5.85903 11.403L5.22903 11.508C3.57003 11.781 2.45703 12.915 2.45703 14.343V19.614C2.45703 19.782 2.60403 19.929 2.77203 19.929H18.27C18.438 19.929 18.585 19.782 18.585 19.614V14.364C18.585 12.957 17.472 11.802 15.813 11.529ZM7.14003 6.426V5.04C7.14003 3.192 8.65203 1.68 10.5 1.68C12.348 1.68 13.86 3.192 13.86 5.04V6.426C13.86 8.274 12.348 9.786 10.5 9.786C8.65203 9.786 7.14003 8.295 7.14003 6.426ZM3.04503 19.32V17.577C3.42303 17.787 3.84303 17.913 4.28403 17.913C4.95603 17.913 5.58603 17.661 6.06903 17.178C6.80403 16.443 8.00103 16.443 8.73603 17.178C9.21903 17.661 9.84903 17.913 10.521 17.913C11.193 17.913 11.823 17.661 12.306 17.178C12.663 16.821 13.125 16.632 13.629 16.632C14.133 16.632 14.595 16.821 14.952 17.178C15.435 17.661 16.065 17.913 16.737 17.913C17.178 17.913 17.598 17.787 17.976 17.577V19.32H3.04503ZM17.955 16.8C17.619 17.094 17.178 17.262 16.716 17.262C16.212 17.262 15.729 17.073 15.393 16.716C14.91 16.233 14.28 15.981 13.608 15.981C12.936 15.981 12.306 16.233 11.823 16.716C11.466 17.073 11.004 17.262 10.5 17.262C9.99603 17.262 9.51303 17.073 9.17703 16.716C8.69403 16.233 8.06403 15.981 7.39203 15.981C6.72003 15.981 6.09003 16.233 5.60703 16.716C5.25003 17.073 4.78803 17.262 4.28403 17.262C3.82203 17.262 3.38103 17.094 3.04503 16.8V14.364C3.04503 13.02 4.26303 12.327 5.29203 12.159L5.92203 12.054C7.14003 11.844 7.89603 11.55 8.19003 10.647L8.46303 9.849C9.07203 10.206 9.76503 10.416 10.521 10.416C11.277 10.416 11.97 10.206 12.579 9.849L12.852 10.647C13.146 11.55 13.902 11.844 15.12 12.054L15.75 12.159C16.8 12.327 17.997 13.02 17.997 14.364V16.8H17.955Z" fill="#F16232"/>
<path d="M11.1303 11.97C11.0043 11.781 10.8573 11.592 10.7733 11.445C10.6473 11.277 10.3743 11.277 10.2483 11.445C10.1433 11.592 10.0173 11.781 9.89131 11.97C9.55531 12.432 9.17731 12.957 8.98831 13.356C8.86231 13.587 8.82031 13.86 8.82031 14.112C8.82031 15.057 9.57631 15.813 10.5213 15.813C11.4663 15.813 12.2223 15.057 12.2223 14.112C12.2223 13.86 12.1593 13.587 12.0543 13.356C11.8233 12.957 11.4663 12.432 11.1303 11.97ZM10.5003 15.162C9.91231 15.162 9.42931 14.679 9.42931 14.091C9.42931 13.923 9.47131 13.755 9.53431 13.608C9.70231 13.272 10.0593 12.768 10.3743 12.306C10.4163 12.243 10.4583 12.201 10.4793 12.138C10.5213 12.18 10.5633 12.243 10.5843 12.306C10.8993 12.747 11.2563 13.272 11.4243 13.608C11.5083 13.755 11.5293 13.923 11.5293 14.091C11.5713 14.679 11.0883 15.162 10.5003 15.162Z" fill="#F16232"/>
<path d="M16.2117 4.725C16.3587 4.872 16.4427 5.082 16.4427 5.292C16.4427 5.502 16.3587 5.712 16.2117 5.859C16.0857 5.985 16.0857 6.174 16.2117 6.3C16.2747 6.363 16.3587 6.384 16.4427 6.384C16.5267 6.384 16.6107 6.363 16.6737 6.3C16.9467 6.027 17.0937 5.67 17.0937 5.292C17.0937 4.914 16.9467 4.557 16.6737 4.284C16.3587 3.969 16.3587 3.465 16.6737 3.171C17.2197 2.625 17.2197 1.722 16.6737 1.155C16.5477 1.029 16.3587 1.029 16.2327 1.155C16.1067 1.281 16.1067 1.47 16.2327 1.596C16.5477 1.911 16.5477 2.415 16.2327 2.73C15.6447 3.276 15.6447 4.179 16.2117 4.725Z" fill="#F16232"/>
<path d="M3.92578 5.29201C3.92578 5.67 4.07278 6.027 4.34578 6.3C4.40878 6.363 4.49278 6.384 4.57678 6.384C4.66078 6.384 4.74478 6.363 4.80778 6.3C4.93378 6.174 4.93378 5.985 4.80778 5.859C4.66078 5.712 4.57678 5.50201 4.57678 5.29201C4.57678 5.08201 4.66078 4.872 4.80778 4.725C5.35378 4.179 5.35378 3.276 4.80778 2.709C4.49278 2.394 4.49278 1.89 4.80778 1.575C4.93378 1.449 4.93378 1.26001 4.80778 1.13401C4.68178 1.00801 4.49278 1.00801 4.36678 1.13401C3.82078 1.68 3.82078 2.583 4.36678 3.15C4.68178 3.465 4.68178 3.969 4.36678 4.263C4.07278 4.557 3.92578 4.914 3.92578 5.29201Z" fill="#F16232"/>
<path d="M2.05859 10.185C2.05859 10.563 2.20559 10.92 2.47859 11.193C2.54159 11.256 2.62559 11.277 2.70959 11.277C2.79359 11.277 2.87759 11.256 2.94059 11.193C3.06659 11.067 3.06659 10.878 2.94059 10.752C2.79359 10.605 2.70959 10.395 2.70959 10.185C2.70959 9.97501 2.79359 9.76501 2.94059 9.61801C3.48659 9.07201 3.48659 8.16901 2.94059 7.60201C2.79359 7.45501 2.70959 7.24501 2.70959 7.03501C2.70959 6.82501 2.79359 6.61501 2.94059 6.46801C3.06659 6.34201 3.06659 6.15301 2.94059 6.02701C2.81459 5.90101 2.62559 5.90101 2.49959 6.02701C2.22659 6.30001 2.07959 6.65701 2.07959 7.03501C2.07959 7.41301 2.22659 7.77001 2.49959 8.04301C2.81459 8.35801 2.81459 8.86201 2.49959 9.15601C2.20559 9.45001 2.05859 9.80701 2.05859 10.185Z" fill="#F16232"/>
<path d="M18.2902 8.61001C18.2902 8.40001 18.3742 8.19001 18.5212 8.04301C19.0672 7.49701 19.0672 6.59401 18.5212 6.02701C18.3952 5.90101 18.2062 5.90101 18.0802 6.02701C17.9542 6.15301 17.9542 6.34201 18.0802 6.46801C18.3952 6.78301 18.3952 7.28701 18.0802 7.60201C17.8072 7.87501 17.6602 8.23201 17.6602 8.61001C17.6602 8.98801 17.8072 9.34501 18.0802 9.61801C18.3952 9.93301 18.3952 10.437 18.0802 10.752C17.9542 10.878 17.9542 11.067 18.0802 11.193C18.1432 11.256 18.2272 11.277 18.3112 11.277C18.3952 11.277 18.4792 11.256 18.5422 11.193C19.0882 10.647 19.0882 9.74401 18.5422 9.17701C18.3742 9.03001 18.2902 8.84101 18.2902 8.61001Z" fill="#F16232"/>
</svg>
