<svg width="21" height="21" viewBox="0 0 21 21" fill="none" xmlns="http://www.w3.org/2000/svg">
<g clip-path="url(#clip0_2684_1020)">
<path d="M9.15781 11.1665C8.901 11.3365 8.66481 11.4937 8.47201 11.6368C7.11087 12.6476 6.44922 13.7628 6.44922 15.0459C6.44922 15.2391 6.60586 15.3958 6.79911 15.3958C6.99236 15.3958 7.149 15.2391 7.149 15.0459C7.149 13.9853 7.70219 13.0804 8.88943 12.1984C9.07313 12.0619 9.29919 11.9125 9.54444 11.7501C10.5739 11.0682 11.9833 10.1343 12.1852 8.91592C12.2668 8.33099 12.0932 7.73913 11.7086 7.29095C11.1586 6.57821 10.1582 6.43822 9.27852 6.95086C9.11787 7.04927 8.96381 7.1581 8.81735 7.27664C8.62126 7.45813 8.38721 7.59369 8.13224 7.67344C7.81528 7.70895 7.51603 7.52 7.4118 7.21858C7.28747 6.8078 7.28214 6.37016 7.39642 5.95646C7.82336 4.04348 9.71022 2.83037 11.6278 3.23594C12.9977 3.56521 13.5264 5.10267 13.4375 6.39209C13.4242 6.58535 13.57 6.75281 13.7633 6.76614C13.9566 6.77946 14.124 6.63361 14.1373 6.44036C14.2458 4.86579 13.5586 2.97979 11.793 2.55642C9.49043 2.05867 7.21891 3.51678 6.71275 5.81754C6.56821 6.36552 6.58621 6.94373 6.76454 7.4817C6.99125 8.09558 7.61993 8.46396 8.26633 8.3617C8.63123 8.26534 8.96783 8.08324 9.24818 7.83053C9.3705 7.73118 9.49904 7.63978 9.63309 7.55691C10.1139 7.27697 10.771 7.21923 11.1573 7.71961C11.4216 8.01464 11.5456 8.40943 11.4974 8.80258C11.3426 9.71895 10.0798 10.5556 9.15781 11.1665Z" fill="#F16232"/>
<path d="M10.6481 0C8.81872 4.10044e-05 7.07968 0.795158 5.88284 2.17873C4.68601 3.5623 4.14955 5.3977 4.41284 7.20804C4.42748 7.33421 4.50932 7.44255 4.62667 7.4911C4.74407 7.53965 4.87852 7.52074 4.978 7.44177C5.07748 7.36279 5.12631 7.23609 5.10565 7.11078C4.81066 5.03969 5.695 2.97688 7.39849 1.76257C9.10198 0.54827 11.3404 0.385031 13.2021 1.33933C15.0637 2.29362 16.238 4.20632 16.2466 6.29828C16.2374 7.81438 15.6213 9.26364 14.5359 10.3222C14.3449 10.5087 14.1475 10.6854 13.9512 10.8614C13.5125 11.2323 13.1082 11.6422 12.7434 12.0861C12.0871 12.9409 11.6021 13.9144 11.3151 14.9532C11.1877 15.4737 11.1118 16.0056 11.0887 16.541C11.0695 17.0406 10.9979 17.5368 10.8753 18.0215C10.441 19.5306 8.96133 20.4891 7.40657 20.2685C5.8518 20.0479 4.69716 18.7156 4.69979 17.1453V14.696C4.69979 14.5027 4.54311 14.3461 4.34989 14.3461C4.15664 14.3461 4 14.5027 4 14.696V17.1453C3.9973 19.0641 5.40834 20.6919 7.30816 20.9615C9.20797 21.2311 11.0162 20.0602 11.5474 18.2163C11.684 17.6852 11.7641 17.1411 11.7864 16.5931C11.8065 16.1029 11.8746 15.6158 11.9897 15.1389C12.2525 14.1882 12.6963 13.2972 13.2966 12.5146C13.6358 12.1038 14.0113 11.7245 14.4187 11.3813C14.6224 11.1987 14.8267 11.0153 15.0251 10.8215C16.2444 9.63116 16.9363 8.00222 16.9465 6.29828C16.9423 2.82151 14.1249 0.00405944 10.6481 0Z" fill="#F16232"/>
</g>
<defs>
<clipPath id="clip0_2684_1020">
<rect width="21" height="21" fill="white"/>
</clipPath>
</defs>
</svg>
