<svg width="21" height="21" viewBox="0 0 21 21" fill="none" xmlns="http://www.w3.org/2000/svg">
<g clip-path="url(#clip0_2684_1089)">
<path d="M20.9411 10.2809C19.9002 8.48161 18.4034 6.97247 16.6125 5.91678C14.7673 4.829 12.6536 4.25403 10.5 4.25403C8.34635 4.25403 6.2326 4.829 4.38732 5.91678C2.59647 6.97252 1.09969 8.48161 0.0587856 10.2809C-0.0195952 10.4165 -0.0195952 10.5835 0.0587856 10.7191C1.09969 12.5184 2.59647 14.0276 4.38732 15.0832C6.23265 16.1711 8.34635 16.746 10.5 16.746C12.6536 16.746 14.7673 16.1711 16.6125 15.0832C18.4034 14.0275 19.9002 12.5184 20.9411 10.7191C21.0195 10.5835 21.0195 10.4165 20.9411 10.2809ZM16.1682 14.3295C14.4574 15.3379 12.4974 15.871 10.4999 15.871C8.50245 15.871 6.54239 15.3379 4.83166 14.3295C3.24351 13.3933 1.90464 12.0727 0.946257 10.5C1.90464 8.92728 3.24351 7.60672 4.83166 6.6705C6.54239 5.66204 8.50245 5.12897 10.4999 5.12897C12.4974 5.12897 14.4574 5.66204 16.1682 6.6705C17.7563 7.60672 19.0951 8.92724 20.0536 10.5C19.0951 12.0727 17.7563 13.3933 16.1682 14.3295Z" fill="#F16232"/>
<path d="M10.5016 6.5687C8.33384 6.5687 6.57031 8.33222 6.57031 10.5C6.57031 12.6677 8.33384 14.4313 10.5016 14.4313C12.6693 14.4313 14.4329 12.6677 14.4329 10.5C14.4329 8.33226 12.6693 6.5687 10.5016 6.5687ZM10.5016 13.5563C8.81634 13.5563 7.4453 12.1852 7.4453 10.5C7.4453 8.81472 8.81634 7.44368 10.5016 7.44368C12.1868 7.44368 13.5579 8.81472 13.5579 10.5C13.5579 12.1852 12.1868 13.5563 10.5016 13.5563Z" fill="#F16232"/>
</g>
<defs>
<clipPath id="clip0_2684_1089">
<rect width="21" height="21" fill="white"/>
</clipPath>
</defs>
</svg>
