<svg width="21" height="21" viewBox="0 0 21 21" fill="none" xmlns="http://www.w3.org/2000/svg">
<path d="M12.5651 4.431C12.4601 4.3218 12.2921 4.3008 12.1661 4.3827C9.90651 5.8443 9.39201 9.1497 9.27651 10.5021C9.26601 10.6155 9.20301 10.7205 9.10011 10.7898C8.41341 11.2539 8.00391 12.0246 8.00391 12.8541C8.00391 13.5282 8.26851 14.1603 8.74941 14.6328C9.21981 15.0969 9.84141 15.351 10.4987 15.351H10.5386C11.8637 15.33 12.9914 14.1939 12.9977 12.8688C13.0019 11.9658 12.5168 11.1279 11.7293 10.6848C11.6117 10.6197 11.534 10.5105 11.5235 10.395C11.1539 6.8586 12.5336 4.914 12.5924 4.8321C12.6806 4.7103 12.6701 4.5423 12.5651 4.431ZM12.3677 12.8667C12.3614 13.8579 11.5193 14.7063 10.5281 14.721C10.0283 14.7315 9.54741 14.5383 9.18831 14.1855C8.82921 13.8327 8.63181 13.3602 8.63181 12.8562C8.63181 12.2367 8.93841 11.6613 9.45081 11.3148C9.71121 11.1384 9.87711 10.8633 9.90231 10.5588C9.98421 9.6033 10.274 7.6041 11.2925 6.1236C10.9628 7.1337 10.7003 8.5869 10.8956 10.4622C10.9292 10.7814 11.1245 11.0691 11.4206 11.235C12.0086 11.5647 12.3719 12.1905 12.3677 12.8667Z" fill="#F16232"/>
<path d="M17.992 11.4471H13.6933C13.6891 11.4471 13.6828 11.4492 13.6786 11.4492C13.666 11.4492 13.6555 11.4513 13.6429 11.4534C13.6324 11.4555 13.6219 11.4576 13.6114 11.4597C13.6051 11.4618 13.6009 11.4618 13.5946 11.4639C13.5904 11.466 13.5862 11.4681 13.5841 11.4681C13.5736 11.4723 13.5631 11.4765 13.5526 11.4828C13.5442 11.487 13.5358 11.4912 13.5274 11.4954C13.519 11.5017 13.5106 11.508 13.5022 11.5143C13.4938 11.5206 13.4854 11.5269 13.4791 11.5332C13.4728 11.5395 13.4644 11.5479 13.4581 11.5542C13.4518 11.5626 13.4455 11.5689 13.4392 11.5773C13.4329 11.5857 13.4287 11.5941 13.4224 11.6025C13.4182 11.6109 13.4119 11.6193 13.4077 11.6277C13.4035 11.6361 13.3993 11.6466 13.3972 11.6571C13.393 11.6676 13.3909 11.676 13.3888 11.6865C13.3867 11.6949 13.3846 11.7054 13.3825 11.7159C13.3804 11.7264 13.3804 11.739 13.3783 11.7495C13.3783 11.7537 13.3762 11.7579 13.3762 11.7621C13.3762 11.7684 13.3783 11.7726 13.3783 11.7768C13.3783 11.7873 13.3804 11.7999 13.3825 11.8104C13.3846 11.8209 13.3867 11.8314 13.3888 11.8419C13.3909 11.8482 13.3909 11.8524 13.393 11.8587C13.4917 12.1632 13.5421 12.4782 13.5421 12.7953C13.5421 14.4732 12.1771 15.8403 10.5013 15.8403C8.82341 15.8403 7.45631 14.4753 7.45631 12.7953C7.45631 12.4782 7.50671 12.1632 7.60541 11.8587C7.60751 11.8524 7.60751 11.8482 7.60961 11.8419C7.61171 11.8314 7.61381 11.8209 7.61591 11.8104C7.61801 11.7999 7.61801 11.7873 7.62011 11.7768C7.62011 11.7705 7.62221 11.7663 7.62221 11.7621C7.62221 11.7579 7.62011 11.7537 7.62011 11.7495C7.62011 11.739 7.61801 11.7264 7.61591 11.7159C7.61381 11.7054 7.61381 11.697 7.60961 11.6865C7.60751 11.676 7.60331 11.6676 7.60121 11.6571C7.59701 11.6466 7.59491 11.6382 7.59071 11.6277C7.58651 11.6193 7.58231 11.6109 7.57601 11.6025C7.56971 11.5941 7.56551 11.5857 7.55921 11.5773C7.55291 11.5689 7.54661 11.5626 7.54031 11.5542C7.53401 11.5458 7.52771 11.5395 7.51931 11.5332C7.51091 11.5269 7.50461 11.5206 7.49621 11.5143C7.48781 11.508 7.47941 11.5017 7.47101 11.4954C7.46261 11.4912 7.45421 11.487 7.44581 11.4828C7.43531 11.4786 7.42481 11.4723 7.41431 11.4681C7.41011 11.466 7.40591 11.4639 7.40381 11.4639C7.39961 11.4618 7.39331 11.4618 7.38911 11.4597C7.37861 11.4576 7.36811 11.4555 7.35761 11.4534C7.34711 11.4513 7.33451 11.4513 7.32401 11.4492C7.31981 11.4492 7.31351 11.4471 7.30931 11.4471H3.00641C2.83211 11.4471 2.69141 11.5878 2.69141 11.7621C2.69141 11.9364 2.83211 12.0771 3.00641 12.0771H6.89981C6.85151 12.3144 6.82631 12.5538 6.82631 12.7953C6.82631 14.8218 8.47481 16.4703 10.5013 16.4703C12.5257 16.4703 14.1721 14.8218 14.1721 12.7953C14.1721 12.5538 14.1448 12.3144 14.0986 12.0771H17.992C18.1663 12.0771 18.307 11.9364 18.307 11.7621C18.307 11.5878 18.1642 11.4471 17.992 11.4471Z" fill="#F16232"/>
</svg>
