<svg width="21" height="21" viewBox="0 0 21 21" fill="none" xmlns="http://www.w3.org/2000/svg">
<path d="M12.6759 19.25C12.8684 19.25 13.0259 19.0925 13.0259 18.9V17.003C13.0259 15.953 12.1719 15.099 11.1219 15.099H7.52038C6.61388 15.099 5.87538 14.3605 5.87538 13.454C5.87538 12.5475 6.61388 11.809 7.52038 11.809H11.1184C11.3109 11.809 11.4684 11.6515 11.4684 11.459C11.4684 11.2665 11.3109 11.109 11.1184 11.109H7.52038C6.61388 11.109 5.87538 10.3705 5.87538 9.464C5.87538 8.5575 6.61388 7.819 7.52038 7.819H11.1184C11.3109 7.819 11.4684 7.6615 11.4684 7.469C11.4684 7.2765 11.3109 7.119 11.1184 7.119H9.39638C7.45388 7.119 5.87188 5.537 5.87188 3.5945V2.1C5.87188 1.9075 5.71438 1.75 5.52187 1.75C5.32937 1.75 5.17188 1.9075 5.17188 2.1V3.591C5.17188 5.082 5.94888 6.398 7.12138 7.147C6.01538 7.336 5.17188 8.302 5.17188 9.4605C5.17188 10.304 5.61987 11.0425 6.29187 11.4555C5.62337 11.8685 5.17188 12.607 5.17188 13.4505C5.17188 14.7455 6.22537 15.7955 7.51687 15.7955H11.1149C11.7799 15.7955 12.3189 16.3345 12.3189 16.9995V18.9C12.3259 19.0925 12.4799 19.25 12.6759 19.25Z" fill="#F16232"/>
<path d="M15.8217 7.4655C15.8217 6.1705 14.7682 5.1205 13.4767 5.1205H9.72822C9.06322 5.1205 8.52422 4.5815 8.52422 3.9165V2.1C8.52422 1.9075 8.36672 1.75 8.17422 1.75C7.98172 1.75 7.82422 1.9075 7.82422 2.1V3.9165C7.82422 4.9665 8.67822 5.8205 9.72822 5.8205H13.4732C14.3797 5.8205 15.1182 6.559 15.1182 7.4655C15.1182 8.372 14.3797 9.1105 13.4732 9.1105H9.87522C9.68272 9.1105 9.52522 9.268 9.52522 9.4605C9.52522 9.653 9.68272 9.8105 9.87522 9.8105H13.4732C14.3797 9.8105 15.1182 10.549 15.1182 11.4555C15.1182 12.362 14.3797 13.1005 13.4732 13.1005H9.87522C9.68272 13.1005 9.52522 13.258 9.52522 13.4505C9.52522 13.643 9.68272 13.8005 9.87522 13.8005H11.2682C13.3472 13.8005 15.0377 15.491 15.0377 17.57V18.9C15.0377 19.0925 15.1952 19.25 15.3877 19.25C15.5802 19.25 15.7377 19.0925 15.7377 18.9V17.57C15.7377 15.9845 14.9082 14.588 13.6587 13.7935C14.8662 13.699 15.8217 12.6875 15.8217 11.4555C15.8217 10.612 15.3737 9.8735 14.7017 9.4605C15.3737 9.0475 15.8217 8.309 15.8217 7.4655Z" fill="#F16232"/>
</svg>
