<svg width="21" height="21" viewBox="0 0 21 21" fill="none" xmlns="http://www.w3.org/2000/svg">
<g clip-path="url(#clip0_2684_1064)">
<path d="M4.43319 6.99841C4.37999 7.09049 4.28348 7.14201 4.18427 7.14201C4.13554 7.14201 4.0862 7.12958 4.041 7.10354L1.8296 5.8268C1.69228 5.74748 1.64523 5.57189 1.72452 5.43461C1.80384 5.29733 1.97943 5.25037 2.11671 5.32953L4.32811 6.60626C4.46539 6.68551 4.51243 6.86109 4.43319 6.99841ZM4.04096 13.8965L1.82956 15.1733C1.69224 15.2526 1.64519 15.4282 1.72448 15.5655C1.77763 15.6576 1.8741 15.7091 1.97336 15.7091C2.02209 15.7091 2.07143 15.6966 2.11663 15.6706L4.32803 14.3938C4.46535 14.3145 4.51239 14.1389 4.43311 14.0016C4.35387 13.8642 4.17836 13.8173 4.04096 13.8965ZM16.8119 7.14201C16.8606 7.14201 16.91 7.12958 16.9552 7.10354L19.1666 5.8268C19.3039 5.74748 19.3509 5.57189 19.2717 5.43461C19.1924 5.29725 19.0168 5.25029 18.8795 5.32953L16.6681 6.60626C16.5307 6.68559 16.4837 6.86118 16.563 6.99846C16.6161 7.09054 16.7127 7.14201 16.8119 7.14201ZM3.49492 10.5C3.49492 10.3414 3.36637 10.2129 3.20781 10.2129H0.654297C0.49573 10.2129 0.367188 10.3414 0.367188 10.5C0.367188 10.6586 0.49573 10.7871 0.654297 10.7871H3.20781C3.36637 10.7871 3.49492 10.6586 3.49492 10.5ZM20.3418 10.2129H17.7883C17.6298 10.2129 17.5012 10.3414 17.5012 10.5C17.5012 10.6586 17.6298 10.7871 17.7883 10.7871H20.3418C20.5004 10.7871 20.6289 10.6586 20.6289 10.5C20.6289 10.3414 20.5004 10.2129 20.3418 10.2129ZM19.1666 15.1732L16.9552 13.8964C16.8179 13.8173 16.6423 13.8643 16.563 14.0015C16.4837 14.1388 16.5308 14.3144 16.6681 14.3937L18.8795 15.6704C18.9247 15.6966 18.974 15.7089 19.0227 15.7089C19.122 15.7089 19.2185 15.6574 19.2716 15.5653C19.3509 15.4281 19.3039 15.2525 19.1666 15.1732ZM14.8422 7.19098C14.8422 8.57723 13.7145 9.70499 12.3282 9.70499C11.674 9.70499 11.0544 9.45488 10.5834 9.0008C10.5356 8.95457 10.4606 8.95461 10.4127 9.00076C9.94179 9.45488 9.32213 9.70499 8.66793 9.70499C7.28168 9.70499 6.15392 8.57723 6.15392 7.19098C6.15392 5.90178 7.12923 4.83611 8.38082 4.69325V0.65625C8.38082 0.497684 8.50936 0.369141 8.66793 0.369141H12.3282C12.4868 0.369141 12.6153 0.497684 12.6153 0.65625V4.69325C13.8669 4.83611 14.8422 5.90182 14.8422 7.19098ZM14.268 7.19098C14.268 6.12138 13.3978 5.25115 12.3282 5.25115C12.1696 5.25115 12.0411 5.12261 12.0411 4.96404V0.943359H8.95504V4.96404C8.95504 5.12261 8.8265 5.25115 8.66793 5.25115C7.59832 5.25115 6.72814 6.12138 6.72814 7.19098C6.72814 8.26059 7.59832 9.13078 8.66793 9.13078C9.17271 9.13078 9.65075 8.93784 10.014 8.58748C10.1497 8.4566 10.3239 8.39114 10.498 8.39114C10.6722 8.39114 10.8463 8.4566 10.9821 8.58748C11.3454 8.93784 11.8235 9.13078 12.3282 9.13078C13.3978 9.13078 14.268 8.26059 14.268 7.19098ZM14.8422 13.809C14.8422 15.0982 13.8669 16.1638 12.6153 16.3067V20.3438C12.6153 20.5023 12.4868 20.6309 12.3282 20.6309H8.66793C8.50936 20.6309 8.38082 20.5023 8.38082 20.3438V16.3067C7.12923 16.1638 6.15392 15.0982 6.15392 13.809C6.15392 12.4228 7.28168 11.295 8.66793 11.295C9.32217 11.295 9.94183 11.5451 10.4127 11.9992C10.4605 12.0454 10.5356 12.0454 10.5835 11.9992C11.0543 11.5451 11.674 11.295 12.3282 11.295C13.7145 11.295 14.8422 12.4228 14.8422 13.809ZM14.268 13.809C14.268 12.7394 13.3978 11.8692 12.3282 11.8692C11.8234 11.8692 11.3453 12.0622 10.9821 12.4125C10.7107 12.6742 10.2855 12.6742 10.0141 12.4126C9.65079 12.0622 9.17271 11.8692 8.66793 11.8692C7.59832 11.8692 6.72814 12.7394 6.72814 13.809C6.72814 14.8786 7.59832 15.7488 8.66793 15.7488C8.8265 15.7488 8.95504 15.8774 8.95504 16.0359V20.0566H12.0411V16.0359C12.0411 15.8774 12.1696 15.7488 12.3282 15.7488C13.3978 15.7488 14.268 14.8786 14.268 13.809Z" fill="#F16232"/>
</g>
<defs>
<clipPath id="clip0_2684_1064">
<rect width="21" height="21" fill="white"/>
</clipPath>
</defs>
</svg>
