<svg width="21" height="21" viewBox="0 0 21 21" fill="none" xmlns="http://www.w3.org/2000/svg">
<path d="M18.2826 7.52374V5.74354C18.2826 2.57652 15.7061 0 12.5391 0H10.3039C10.134 0 9.99626 0.137689 9.99626 0.307617C9.99626 0.477545 10.134 0.615234 10.3039 0.615234H12.5391C15.3668 0.615234 17.6674 2.9158 17.6674 5.74354V7.4744H16.616H15.9365C15.0871 7.4744 14.3792 6.85925 14.2336 6.05116H14.5775C14.7474 6.05116 14.8852 5.91347 14.8852 5.74354C14.8852 5.57361 14.7474 5.43592 14.5775 5.43592H6.42363C6.25375 5.43592 6.11602 5.57361 6.11602 5.74354C6.11602 5.91347 6.25375 6.05116 6.42363 6.05116H6.76759C6.62194 6.85925 5.91405 7.4744 5.06466 7.4744H4.38516H3.3338V5.74354C3.3338 2.9158 5.63433 0.615234 8.46211 0.615234H8.86837C9.03826 0.615234 9.17599 0.477545 9.17599 0.307617C9.17599 0.137689 9.03826 0 8.86837 0H8.46211C5.29509 0 2.71857 2.57652 2.71857 5.74354V7.52374C2.32449 7.65335 2.03906 8.02462 2.03906 8.46152V11.1795C2.03906 12.0985 2.7867 12.8461 3.70565 12.8461H4.08558C4.09276 12.9954 4.10445 13.1449 4.12192 13.2937C3.65401 13.8414 3.39803 14.5327 3.39803 15.2565C3.39803 16.9248 4.75532 18.2821 6.42363 18.2821C6.43438 18.2821 6.44504 18.2816 6.45575 18.2814V20.0129C6.45575 20.5572 6.89855 21 7.44287 21H8.27303C8.44291 21 8.58064 20.8623 8.58064 20.6924C8.58064 20.5225 8.44291 20.3848 8.27303 20.3848H7.44287C7.23783 20.3848 7.07098 20.218 7.07098 20.0129V18.2118C7.16515 18.1911 7.25851 18.1665 7.35059 18.1369C8.30875 18.6768 9.39468 18.9615 10.5006 18.9615C11.6065 18.9615 12.6924 18.6768 13.6505 18.1369C13.7427 18.1666 13.836 18.1911 13.9301 18.2118V20.0129C13.9301 20.218 13.7633 20.3848 13.5583 20.3848H9.70853C9.53865 20.3848 9.40092 20.5225 9.40092 20.6924C9.40092 20.8623 9.53865 21 9.70853 21H13.5583C14.1026 21 14.5454 20.5572 14.5454 20.0129V18.2814C14.5561 18.2816 14.5668 18.2821 14.5775 18.2821C16.2458 18.2821 17.6031 16.9248 17.6031 15.2565C17.6031 14.5327 17.3471 13.8413 16.8792 13.2937C16.8967 13.1449 16.9084 12.9954 16.9156 12.8461H17.2955C18.2144 12.8461 18.9621 12.0985 18.9621 11.1795V8.46152C18.9621 8.02462 18.6767 7.65335 18.2826 7.52374ZM2.6543 11.1795V8.46152C2.6543 8.25649 2.82111 8.08968 3.02614 8.08968H4.07754V8.90642C3.9627 8.85954 3.83719 8.83345 3.70569 8.83345C3.5358 8.83345 3.39807 8.97114 3.39807 9.14107C3.39807 9.311 3.5358 9.44869 3.70569 9.44869C3.91073 9.44869 4.07754 9.6155 4.07754 9.82054V10.1924H3.70569C3.5358 10.1924 3.39807 10.3301 3.39807 10.5C3.39807 10.6699 3.5358 10.8076 3.70569 10.8076H4.07754V12.2309H3.70569C3.12594 12.2309 2.6543 11.7592 2.6543 11.1795ZM16.9879 15.2565C16.9879 16.5855 15.9066 17.6668 14.5775 17.6668C14.2855 17.6668 13.9994 17.6147 13.7272 17.5121C13.6398 17.4791 13.542 17.4877 13.4616 17.5355C12.5683 18.0659 11.5445 18.3463 10.5006 18.3463C9.4567 18.3463 8.43282 18.0659 7.53959 17.5354C7.4592 17.4876 7.36141 17.479 7.27393 17.5121C7.00175 17.6147 6.71566 17.6668 6.42363 17.6668C5.09456 17.6668 4.01327 16.5855 4.01327 15.2564C4.01327 14.6404 4.24611 14.054 4.66894 13.6049C4.73289 13.537 4.76254 13.4437 4.74962 13.3513C4.71189 13.0817 4.69273 12.8082 4.69273 12.5384V8.08963H5.06462C6.25395 8.08963 7.2387 7.19984 7.38988 6.05116H13.6112C13.7624 7.19984 14.7472 8.08963 15.9365 8.08963H16.3084V12.5385C16.3084 12.8083 16.2892 13.0818 16.2515 13.3514C16.2385 13.4437 16.2682 13.537 16.3321 13.6049C16.755 14.054 16.9879 14.6405 16.9879 15.2565ZM18.3469 11.1795C18.3469 11.7592 17.8752 12.2309 17.2955 12.2309H16.9236V10.8076H17.2955C17.4654 10.8076 17.6031 10.6699 17.6031 10.5C17.6031 10.3301 17.4654 10.1924 17.2955 10.1924H16.9236V9.82054C16.9236 9.6155 17.0904 9.44869 17.2955 9.44869C17.4654 9.44869 17.6031 9.311 17.6031 9.14107C17.6031 8.97114 17.4654 8.83345 17.2955 8.83345C17.1639 8.83345 17.0385 8.8595 16.9236 8.90642V8.08968H17.975C18.18 8.08968 18.3468 8.25649 18.3468 8.46152L18.3469 11.1795Z" fill="#F16232"/>
<path d="M12.2011 11.5514C12.0312 11.5514 11.8935 11.6891 11.8935 11.859C11.8935 12.0641 11.7267 12.2309 11.5217 12.2309H11.4887C11.489 12.2202 11.4895 12.2095 11.4895 12.1988C11.4895 12.0288 11.3518 11.8911 11.1819 11.8911C11.012 11.8911 10.8743 12.0288 10.8743 12.1988C10.8743 12.4038 10.7075 12.5706 10.5024 12.5706C10.2974 12.5706 10.1305 12.4038 10.1305 12.1988C10.1305 12.0288 9.99279 11.8911 9.82291 11.8911C9.65302 11.8911 9.51529 12.0288 9.51529 12.1988C9.51529 12.2095 9.51574 12.2202 9.51611 12.2309H9.48318C9.27814 12.2309 9.11133 12.0641 9.11133 11.859C9.11133 11.6891 8.9736 11.5514 8.80371 11.5514C8.63382 11.5514 8.49609 11.6891 8.49609 11.859C8.49609 12.4033 8.9389 12.8461 9.48318 12.8461H9.74293C9.74785 12.8461 9.75265 12.8456 9.75753 12.8454C9.93865 13.0537 10.2053 13.1858 10.5024 13.1858C10.7995 13.1858 11.0662 13.0537 11.2473 12.8454C11.2522 12.8456 11.257 12.8461 11.2619 12.8461H11.5217C12.066 12.8461 12.5087 12.4033 12.5087 11.859C12.5087 11.6891 12.371 11.5514 12.2011 11.5514Z" fill="#F16232"/>
<path d="M8.83517 9.82055C8.83517 9.99048 8.9729 10.1282 9.14279 10.1282C9.31267 10.1282 9.4504 9.99048 9.4504 9.82055C9.4504 9.27627 9.0076 8.83347 8.46328 8.83347H6.4248C6.25492 8.83347 6.11719 8.97116 6.11719 9.14108C6.11719 9.31101 6.25492 9.4487 6.4248 9.4487H8.46328C8.66832 9.44866 8.83517 9.61551 8.83517 9.82055Z" fill="#F16232"/>
<path d="M14.5764 8.8334H12.5379C11.9936 8.8334 11.5508 9.27621 11.5508 9.82049C11.5508 9.99041 11.6885 10.1281 11.8584 10.1281C12.0283 10.1281 12.166 9.99041 12.166 9.82049C12.166 9.61545 12.3328 9.44864 12.5379 9.44864H14.5764C14.7463 9.44864 14.884 9.31095 14.884 9.14102C14.884 8.97114 14.7463 8.8334 14.5764 8.8334Z" fill="#F16232"/>
<path d="M10.5025 14.2693C9.58357 14.2693 8.83594 15.017 8.83594 15.9359C8.83594 16.1059 8.97367 16.2436 9.14355 16.2436C9.31344 16.2436 9.45117 16.1059 9.45117 15.9359C9.45117 15.3562 9.92281 14.8846 10.5025 14.8846C11.0822 14.8846 11.5539 15.3562 11.5539 15.9359C11.5539 16.1059 11.6916 16.2436 11.8615 16.2436C12.0314 16.2436 12.1691 16.1059 12.1691 15.9359C12.1691 15.017 11.4215 14.2693 10.5025 14.2693Z" fill="#F16232"/>
<path d="M18.5474 14.2736C18.3799 14.3017 18.2669 14.4603 18.295 14.6279C18.3296 14.834 18.3471 15.0455 18.3471 15.2565C18.3471 16.598 17.6249 17.8492 16.4622 18.5217C16.3152 18.6068 16.2649 18.7949 16.35 18.942C16.407 19.0405 16.5103 19.0956 16.6165 19.0956C16.6688 19.0956 16.7218 19.0823 16.7703 19.0542C18.1224 18.2721 18.9623 16.8169 18.9623 15.2564C18.9623 15.0114 18.942 14.7656 18.9017 14.526C18.8736 14.3585 18.7151 14.2454 18.5474 14.2736Z" fill="#F16232"/>
<path d="M4.53917 18.5217C3.37654 17.8491 2.6543 16.5979 2.6543 15.2565C2.6543 15.0454 2.67185 14.8339 2.70643 14.6278C2.73456 14.4603 2.62153 14.3017 2.45398 14.2736C2.2863 14.2454 2.12778 14.3585 2.09968 14.526C2.05945 14.7657 2.03906 15.0114 2.03906 15.2565C2.03906 16.8168 2.87898 18.272 4.23106 19.0543C4.27958 19.0823 4.33253 19.0956 4.38483 19.0956C4.49102 19.0956 4.59438 19.0406 4.65135 18.942C4.73645 18.7949 4.68621 18.6067 4.53917 18.5217Z" fill="#F16232"/>
</svg>
