<svg width="21" height="21" viewBox="0 0 21 21" fill="none" xmlns="http://www.w3.org/2000/svg">
<path fill-rule="evenodd" clip-rule="evenodd" d="M3.57156 6.92004C3.4492 6.48183 3.79841 6.05486 4.2516 6.0866C8.67628 6.39656 11.9536 6.39647 16.5624 6.08603C16.9843 6.05761 17.3272 6.43094 17.2539 6.85235C16.9123 8.8147 16.4739 10.9117 15.4819 12.5078C14.9818 13.3123 14.3365 13.9979 13.4861 14.4757C12.6353 14.9537 11.5982 15.2129 10.3315 15.1931C8.07673 15.158 6.62456 13.9631 5.63062 12.3671C4.59746 10.7081 4.09247 8.78497 3.57156 6.92004ZM4.69655 6.77468C5.43352 6.82336 6.14051 6.86319 6.82936 6.89415V7.22593C6.82936 7.67502 6.46531 8.03906 6.01622 8.03906H5.5094C5.06047 8.03906 4.69655 7.67514 4.69655 7.22621V6.77468ZM7.48619 6.92117C7.48581 6.93453 7.48561 6.9479 7.48561 6.96128V7.56226C7.48561 8.09742 7.91944 8.53125 8.4546 8.53125H9.14161C9.67678 8.53125 10.1106 8.09742 10.1106 7.56226V6.97487C9.24264 6.97224 8.37677 6.95434 7.48619 6.92117ZM10.7669 6.97395V7.56226C10.7669 8.09742 11.2007 8.53125 11.7358 8.53125H12.4229C12.958 8.53125 13.3919 8.09742 13.3919 7.56226V7.08778C13.3919 7.02993 13.3885 6.97221 13.3819 6.9149C12.4848 6.94931 11.6216 6.96899 10.7669 6.97395ZM14.0481 6.88696V7.22593C14.0481 7.67502 14.4122 8.03906 14.8612 8.03906H15.3681C15.817 8.03906 16.1809 7.67514 16.1809 7.22621V6.76882C15.4404 6.81645 14.733 6.85582 14.0481 6.88696ZM16.2955 8.36563C15.9953 9.75177 15.5956 11.0679 14.9448 12.1286C14.8674 11.9743 14.7763 11.8264 14.672 11.6867C14.1145 10.9399 13.2373 10.5 12.3053 10.5H8.69684C7.76499 10.5 6.8878 10.9397 6.33019 11.6863C6.26474 11.7739 6.20448 11.8647 6.14952 11.9583C5.51557 10.9203 5.06758 9.68351 4.69192 8.44705C4.92561 8.60384 5.20682 8.69531 5.5094 8.69531H6.01622C6.39955 8.69531 6.74859 8.54852 7.01022 8.30811C7.2805 8.83048 7.82586 9.1875 8.4546 9.1875H9.14161C9.67143 9.1875 10.142 8.93399 10.4387 8.54165C10.7354 8.93399 11.206 9.1875 11.7358 9.1875H12.4229C13.0516 9.1875 13.597 8.83048 13.8672 8.30811C14.1289 8.54852 14.4779 8.69531 14.8612 8.69531H15.3681C15.7197 8.69531 16.0426 8.57174 16.2955 8.36563ZM6.57178 12.5802C7.45009 13.7386 8.63233 14.5103 10.3417 14.5369C11.5104 14.5552 12.4296 14.3165 13.1647 13.9035C13.6859 13.6107 14.1241 13.2248 14.4968 12.765C14.4198 12.5199 14.3017 12.2878 14.1461 12.0793C13.7125 11.4984 13.0302 11.1562 12.3053 11.1562H10.8288V12.6328C10.8288 12.814 10.6819 12.9609 10.5007 12.9609C10.3195 12.9609 10.1726 12.814 10.1726 12.6328V11.1562H8.69684C7.97202 11.1562 7.28971 11.4983 6.85597 12.079C6.73987 12.2344 6.64466 12.4029 6.57178 12.5802Z" fill="#F16232"/>
<path fill-rule="evenodd" clip-rule="evenodd" d="M1.78808 5.8923L2.64436 4.93441C3.67793 3.77815 5.1553 3.11719 6.70618 3.11719C7.21238 3.11719 7.7161 3.18773 8.20281 3.32679L10.1056 3.87041L12.1874 3.30937C12.6607 3.1818 13.1487 3.11719 13.6389 3.11719H14.1711C15.7896 3.11719 17.3283 3.82018 18.3878 5.04371L19.1279 5.89821C19.2605 6.05136 19.3149 6.25716 19.2754 6.45586L18.4164 10.7736C17.85 13.6204 16.2141 16.4482 13.322 17.3155C11.328 17.9133 9.40503 17.9119 7.43702 17.2935C4.67484 16.4256 3.13924 13.704 2.57468 10.9868L1.63482 6.46316C1.59248 6.25935 1.64933 6.04751 1.78808 5.8923ZM3.13362 5.37177L2.27735 6.32966L3.21721 10.8533C3.76029 13.4672 5.20144 15.9032 7.63374 16.6674C9.47338 17.2454 11.2621 17.2479 13.1335 16.6868C15.6918 15.9197 17.2287 13.3795 17.7728 10.6455L18.6318 6.32781L17.8919 5.47331C16.9569 4.39372 15.5992 3.77344 14.1711 3.77344H13.6389C13.2064 3.77344 12.7758 3.83045 12.3582 3.94301L10.2764 4.50406C10.1613 4.53506 10.04 4.53416 9.92535 4.50142L8.02254 3.95779C7.59445 3.83549 7.1514 3.77344 6.70618 3.77344C5.34212 3.77344 4.04269 4.35478 3.13362 5.37177Z" fill="#F16232"/>
</svg>
