<svg width="21" height="21" viewBox="0 0 21 21" fill="none" xmlns="http://www.w3.org/2000/svg">
<path d="M8.83203 20.3438C8.65091 20.3438 8.50391 20.1968 8.50391 20.0156C8.50391 19.8345 8.65091 19.6875 8.83203 19.6875C13.0156 19.6842 14.5355 18.1374 16.2956 16.3472C16.9131 15.6398 17.4762 14.8496 17.7163 14.3489C18.0044 13.7609 17.4289 11.2035 17.1198 9.82998C16.9617 9.12517 16.8357 8.56867 16.795 8.23792C16.7628 7.98264 16.7464 7.71095 16.7287 7.42876C16.6716 6.48442 16.6125 5.50857 15.9602 4.59376C15.6295 4.12651 15.3637 3.82726 15.0566 3.48076C14.8577 3.25698 14.6464 3.01876 14.3983 2.71361C14.084 2.3297 13.8182 1.77976 13.6069 1.0802C13.5544 0.90695 13.6522 0.723856 13.8261 0.671356C13.9987 0.619512 14.1824 0.717294 14.2349 0.890544C14.4213 1.50742 14.6477 1.98189 14.9069 2.29886C15.1484 2.59614 15.3538 2.82779 15.5474 3.04501C15.8546 3.39086 16.144 3.71767 16.4951 4.21314C17.2557 5.2802 17.3239 6.39976 17.3836 7.38807C17.4 7.65583 17.4158 7.91307 17.446 8.15523C17.4834 8.45448 17.612 9.02411 17.7603 9.68429C18.2912 12.0396 18.6679 13.8994 18.3076 14.6337C18.0451 15.1817 17.444 16.0296 16.7766 16.7921C14.9778 18.6237 13.2913 20.3398 8.83203 20.3438Z" fill="#F16232"/>
<path d="M4.82235 18.4708C4.70619 18.4708 4.59397 18.4091 4.53491 18.3002C3.58006 16.5513 3.97513 14.9402 4.35641 13.881C5.37228 11.0952 8.309 9.95203 8.43369 9.90478C8.60169 9.83981 8.79266 9.92512 8.85763 10.0951C8.92194 10.2644 8.83663 10.4541 8.66731 10.5184C8.55378 10.561 5.8881 11.5992 4.97394 14.1041C4.60775 15.1226 4.29275 16.485 5.1111 17.9852C5.19838 18.1447 5.13997 18.3435 4.9805 18.4308C4.92931 18.4577 4.8755 18.4708 4.82235 18.4708Z" fill="#F16232"/>
<path d="M9.41881 10.6253C8.22837 10.6253 7.53602 9.94678 7.29387 9.29907C6.94212 8.35866 7.34571 7.2916 8.27627 6.70557C8.41802 6.61632 8.58274 6.52247 8.76387 6.41944C9.41815 6.04669 10.3152 5.53678 11.1172 4.61541C11.5595 3.96375 11.5779 3.26025 11.5116 2.78972C11.486 2.61057 11.6107 2.44453 11.7905 2.41894C11.9736 2.39269 12.1357 2.51803 12.1613 2.69785C12.244 3.28322 12.2197 4.15997 11.6356 5.01572C10.7372 6.05194 9.78434 6.594 9.08806 6.98972C8.91612 7.08685 8.76059 7.1761 8.62606 7.26075C7.84643 7.75229 7.70402 8.52338 7.90812 9.06938C8.10762 9.60225 8.72318 10.1089 9.8539 9.93432C10.0304 9.90675 10.2004 10.0301 10.228 10.208C10.2555 10.3871 10.1328 10.5551 9.95365 10.5827C9.76531 10.6116 9.58681 10.6253 9.41881 10.6253Z" fill="#F16232"/>
<path d="M5.5782 19.6875C5.50339 19.6875 5.42792 19.6619 5.36623 19.6101C5.22776 19.4933 5.2107 19.2859 5.32751 19.1474C5.72389 18.6782 6.59604 18.3632 7.49707 18.3632C8.27539 18.3632 10.4108 17.8454 12.0469 16.2455C12.3323 15.9666 12.6493 15.6188 12.9702 15.267C13.5812 14.5983 14.1613 13.9624 14.6436 13.6349C14.6023 12.7575 14.282 10.6509 13.7708 9.57797C12.9964 7.95638 12.2687 5.97253 13.5169 5.02294C13.6619 4.91334 13.8673 4.94091 13.9762 5.08528C14.0865 5.22966 14.0583 5.43572 13.9139 5.54531C13.4913 5.86688 13.0791 6.60516 14.3628 9.29513C14.9895 10.6096 15.3064 13.06 15.3045 13.816C15.3038 13.9368 15.2375 14.047 15.1319 14.1041C14.7165 14.3273 14.0464 15.0616 13.4545 15.7093C13.1244 16.0709 12.7989 16.4273 12.5056 16.714C10.7895 18.3934 8.52279 19.0188 7.49707 19.0188C6.70826 19.0188 6.0612 19.2964 5.82889 19.57C5.76392 19.6481 5.67139 19.6875 5.5782 19.6875Z" fill="#F16232"/>
<path d="M10.0076 3.67041C9.79166 3.67041 9.59544 3.63497 9.42875 3.56147C8.45028 3.09422 8.29409 1.8736 8.26194 0.996193C8.25538 0.815068 8.39647 0.662818 8.57759 0.656255C8.75347 0.64838 8.91097 0.791442 8.91819 0.971911C8.95953 2.09541 9.20891 2.72935 9.70306 2.96494C10.1211 3.15001 11.3115 2.85863 12.4377 1.82241C12.5722 1.70035 12.7796 1.70822 12.9016 1.84144C13.0243 1.97466 13.0158 2.18269 12.8826 2.30541C11.9599 3.15526 10.8351 3.67041 10.0076 3.67041Z" fill="#F16232"/>
</svg>
