<svg width="21" height="21" viewBox="0 0 21 21" fill="none" xmlns="http://www.w3.org/2000/svg">
<g clip-path="url(#clip0_2695_455)">
<path d="M18.7031 4.92188C17.7801 3.60312 16.5523 2.52668 15.1242 1.78404C13.696 1.0414 12.1097 0.654512 10.5 0.656256C7.88928 0.656256 5.38548 1.69336 3.53942 3.53942C1.69336 5.38548 0.65625 7.88928 0.65625 10.5" stroke="#F16232" stroke-width="0.8" stroke-linecap="round" stroke-linejoin="round"/>
<path d="M10.8711 14.3693C11.335 14.8331 11.9641 15.0937 12.6202 15.0937C13.2762 15.0937 13.9054 14.8331 14.3692 14.3693C14.8331 13.9054 15.0937 13.2762 15.0937 12.6202C15.0937 11.9642 14.8331 11.335 14.3692 10.8711L10.1289 6.63075C9.89919 6.40106 9.62651 6.21886 9.3264 6.09455C9.02629 5.97025 8.70464 5.90627 8.37981 5.90627C8.05498 5.90627 7.73332 5.97025 7.43322 6.09455C7.13311 6.21886 6.86043 6.40106 6.63074 6.63075C6.16686 7.09464 5.90625 7.7238 5.90625 8.37982C5.90625 9.03585 6.16686 9.66501 6.63074 10.1289L10.8711 14.3693Z" stroke="#F16232" stroke-width="0.8" stroke-linecap="round" stroke-linejoin="round"/>
<path d="M12.2485 8.75078L8.75 12.2492" stroke="#F16232" stroke-width="0.8" stroke-linecap="round" stroke-linejoin="round"/>
<path d="M18.7031 2.29688V4.92188H16.0781" stroke="#F16232" stroke-width="0.8" stroke-linecap="round" stroke-linejoin="round"/>
<path d="M2.29688 16.0781C3.21995 17.3968 4.44772 18.4733 5.87586 19.2159C7.304 19.9585 8.89031 20.3454 10.5 20.3438C13.1107 20.3437 15.6145 19.3066 17.4606 17.4606C19.3066 15.6145 20.3437 13.1107 20.3438 10.5" stroke="#F16232" stroke-width="0.8" stroke-linecap="round" stroke-linejoin="round"/>
<path d="M2.29688 18.7031V16.0781H4.92188" stroke="#F16232" stroke-width="0.8" stroke-linecap="round" stroke-linejoin="round"/>
</g>
<defs>
<clipPath id="clip0_2695_455">
<rect width="21" height="21" fill="white"/>
</clipPath>
</defs>
</svg>
