<svg width="21" height="21" viewBox="0 0 21 21" fill="none" xmlns="http://www.w3.org/2000/svg">
<path d="M19.6863 4.375H17.0613C16.9453 4.375 16.834 4.42109 16.7519 4.50314C16.6699 4.58519 16.6238 4.69647 16.6238 4.8125C16.6238 4.92853 16.6699 5.03981 16.7519 5.12186C16.834 5.20391 16.9453 5.25 17.0613 5.25H18.6302L15.6355 8.24469C14.9341 7.65003 14.0887 7.25024 13.1841 7.08542C12.2794 6.9206 11.3473 6.99653 10.4813 7.30561C9.61525 7.61469 8.84571 8.14605 8.24983 8.8464C7.65396 9.54674 7.2527 10.3915 7.0863 11.2958C7.07516 11.3526 7.07541 11.4111 7.08703 11.4678C7.09865 11.5245 7.12141 11.5784 7.154 11.6263C7.18659 11.6741 7.22836 11.715 7.27687 11.7466C7.32539 11.7782 7.3797 11.7999 7.43665 11.8103C7.4936 11.8208 7.55206 11.8198 7.60863 11.8075C7.66521 11.7952 7.71878 11.7718 7.76624 11.7386C7.8137 11.7054 7.8541 11.6632 7.88511 11.6143C7.91611 11.5654 7.93711 11.5108 7.94687 11.4538C8.13044 10.4603 8.65216 9.56104 9.42345 8.90857C10.1947 8.25611 11.1681 7.89068 12.1782 7.87432C13.1883 7.85796 14.173 8.19168 14.965 8.81883C15.757 9.44598 16.3075 10.3279 16.5232 11.3149C16.7388 12.3018 16.6063 13.333 16.148 14.2333C15.6897 15.1337 14.934 15.8477 14.0091 16.2541C13.0842 16.6605 12.0472 16.7343 11.0741 16.463C10.1009 16.1917 9.25167 15.592 8.67049 14.7656C8.60377 14.6707 8.50206 14.6061 8.38773 14.5861C8.27339 14.5661 8.15581 14.5924 8.06083 14.6591C7.96586 14.7258 7.90128 14.8275 7.8813 14.9419C7.86133 15.0562 7.88758 15.1738 7.9543 15.2688C8.35865 15.8569 8.87868 16.3565 9.48262 16.7369C10.0866 17.1173 10.7617 17.3705 11.4669 17.4812C12.172 17.5918 12.8923 17.5575 13.5837 17.3803C14.2751 17.2032 14.9231 16.8869 15.4882 16.4508C16.0532 16.0147 16.5234 15.468 16.87 14.8441C17.2166 14.2201 17.4324 13.532 17.5041 12.8219C17.5758 12.1118 17.5019 11.3944 17.287 10.7138C17.0721 10.0332 16.7206 9.40352 16.2541 8.86331L19.2488 5.86862V7.4375C19.2488 7.55353 19.2949 7.66481 19.3769 7.74686C19.459 7.82891 19.5703 7.875 19.6863 7.875C19.8023 7.875 19.9136 7.82891 19.9957 7.74686C20.0777 7.66481 20.1238 7.55353 20.1238 7.4375V4.8125C20.1238 4.69647 20.0777 4.58519 19.9957 4.50314C19.9136 4.42109 19.8023 4.375 19.6863 4.375Z" fill="#F16232"/>
<path d="M3.68259 14.4375L5.36478 12.7553C6.09734 13.3766 6.98646 13.7848 7.93515 13.9353C8.88384 14.0858 9.85564 13.9729 10.7445 13.6088C11.6334 13.2448 12.4053 12.6436 12.9758 11.8709C13.5464 11.0981 13.8937 10.1835 13.98 9.22687C13.9905 9.1113 13.9546 8.99632 13.8802 8.90722C13.8059 8.81812 13.6992 8.76219 13.5837 8.75175C13.4681 8.7413 13.3531 8.7772 13.264 8.85153C13.1749 8.92587 13.119 9.03255 13.1085 9.14812C13.0149 10.1713 12.564 11.1289 11.8351 11.853C11.1062 12.5772 10.1456 13.0217 9.1218 13.1086C8.098 13.1955 7.07627 12.9193 6.23571 12.3284C5.39514 11.7375 4.78936 10.8696 4.52455 9.87679C4.25974 8.88402 4.3528 7.82971 4.78741 6.89867C5.22202 5.96763 5.97045 5.21926 6.90153 4.78473C7.83261 4.3502 8.88692 4.25724 9.87967 4.52213C10.8724 4.78703 11.7403 5.39288 12.3311 6.2335C12.3626 6.28398 12.404 6.32751 12.4528 6.36144C12.5017 6.39537 12.557 6.41898 12.6153 6.43083C12.6735 6.44268 12.7336 6.44251 12.7919 6.43035C12.8501 6.41818 12.9052 6.39427 12.9539 6.36008C13.0026 6.32588 13.0438 6.28212 13.0749 6.23147C13.1061 6.18081 13.1267 6.12433 13.1353 6.06548C13.1439 6.00662 13.1404 5.94663 13.1251 5.88916C13.1097 5.83169 13.0828 5.77796 13.046 5.73125C12.6416 5.14307 12.1216 4.64352 11.5177 4.26312C10.9137 3.88272 10.2385 3.62947 9.53342 3.51883C8.82829 3.4082 8.10801 3.44251 7.41659 3.61967C6.72516 3.79682 6.07713 4.11311 5.51208 4.54919C4.94703 4.98527 4.47684 5.53199 4.13023 6.15593C3.78362 6.77988 3.56789 7.46795 3.4962 8.1781C3.42451 8.88825 3.49838 9.60555 3.7133 10.2862C3.92822 10.9668 4.27966 11.5965 4.74616 12.1367L3.06397 13.8189L1.62328 12.3782C1.54077 12.2985 1.43026 12.2544 1.31554 12.2554C1.20083 12.2564 1.0911 12.3024 1.00999 12.3835C0.928871 12.4646 0.882859 12.5744 0.881862 12.6891C0.880866 12.8038 0.924963 12.9143 1.00466 12.9968L2.44534 14.4375L1.00466 15.8782C0.962872 15.9185 0.929542 15.9668 0.906613 16.0202C0.883684 16.0736 0.871615 16.131 0.87111 16.1891C0.870605 16.2472 0.881675 16.3048 0.903673 16.3585C0.925671 16.4123 0.958156 16.4612 0.999235 16.5022C1.04031 16.5433 1.08916 16.5758 1.14293 16.5978C1.19669 16.6198 1.2543 16.6309 1.3124 16.6304C1.37049 16.6299 1.4279 16.6178 1.48127 16.5949C1.53465 16.5719 1.58292 16.5386 1.62328 16.4968L3.06397 15.0561L4.50466 16.4968C4.58717 16.5765 4.69768 16.6206 4.8124 16.6196C4.92711 16.6186 5.03684 16.5726 5.11795 16.4915C5.19907 16.4104 5.24508 16.3006 5.24608 16.1859C5.24707 16.0712 5.20298 15.9607 5.12328 15.8782L3.68259 14.4375Z" fill="#F16232"/>
</svg>
