<svg width="21" height="21" viewBox="0 0 21 21" fill="none" xmlns="http://www.w3.org/2000/svg">
<path d="M8.70026 12.5278C8.19167 12.5278 7.72245 12.2948 7.41729 11.888C7.30901 11.7436 7.33526 11.5369 7.47963 11.4286C7.62401 11.3203 7.83073 11.3465 7.93901 11.4909C8.12276 11.7337 8.39838 11.8715 8.70026 11.8715C9.00213 11.8715 9.27776 11.7337 9.46151 11.4909C9.56979 11.3465 9.77651 11.317 9.92088 11.4286C10.0653 11.5369 10.0948 11.7436 9.98323 11.888C9.67479 12.2948 9.20557 12.5278 8.70026 12.5278ZM13.399 11.4909C13.2153 11.7337 12.9396 11.8715 12.6378 11.8715C12.3359 11.8715 12.0603 11.7337 11.8765 11.4909C11.7682 11.3465 11.5615 11.317 11.4171 11.4286C11.2728 11.5369 11.2432 11.7436 11.3548 11.888C11.6632 12.2948 12.1324 12.5278 12.6378 12.5278C13.1431 12.5278 13.6156 12.2948 13.9207 11.888C14.029 11.7436 14.0028 11.5369 13.8584 11.4286C13.714 11.3203 13.5073 11.3465 13.399 11.4909ZM11.3974 14.8805C11.2334 15.0314 10.961 15.12 10.6723 15.12C10.3835 15.12 10.1112 15.0314 9.94713 14.8805C9.8126 14.759 9.60588 14.7689 9.48448 14.9034C9.36307 15.038 9.37292 15.2447 9.50745 15.3661C9.79292 15.6253 10.2195 15.773 10.6723 15.773C11.1251 15.773 11.5517 15.6253 11.8371 15.3661C11.9717 15.2447 11.9815 15.038 11.8601 14.9034C11.7387 14.7689 11.532 14.759 11.3974 14.8805ZM19.2298 17.3873C19.2298 17.5219 19.1445 17.6433 19.0165 17.6892C17.9796 18.0764 17.517 19.1953 17.5104 19.2051C17.4612 19.3298 17.3398 19.4086 17.2053 19.4086C17.0707 19.4086 16.9526 19.3265 16.9001 19.2051C16.4473 18.0797 15.4071 17.6958 15.3973 17.6925C15.2726 17.6465 15.184 17.5284 15.1807 17.3972C15.1742 17.2626 15.2529 17.138 15.3743 17.0855C16.5589 16.5605 16.8804 15.622 16.8935 15.5826C16.9362 15.4481 17.0609 15.3595 17.202 15.3562C17.3332 15.3431 17.4678 15.4415 17.5137 15.5728C17.8812 16.6064 19.0099 17.0723 19.0198 17.0756C19.1445 17.1248 19.2265 17.2495 19.2265 17.384L19.2298 17.3873ZM18.206 17.3742C17.891 17.1642 17.5006 16.8459 17.2053 16.3997C17.0018 16.7015 16.6835 17.069 16.2045 17.3808C16.5195 17.5875 16.9067 17.9123 17.2151 18.3881C17.4251 18.0698 17.7499 17.6761 18.206 17.3742ZM13.7534 17.5875V19.6875C13.7534 19.868 13.6057 20.0156 13.4253 20.0156C13.2448 20.0156 13.0971 19.868 13.0971 19.6875V17.9681C12.3556 18.3323 11.5287 18.539 10.669 18.539C10.6362 18.539 10.6034 18.539 10.5673 18.539C9.68792 18.5226 8.84463 18.2831 8.09323 17.8697V19.6875C8.09323 19.868 7.94557 20.0156 7.7651 20.0156C7.58463 20.0156 7.43698 19.868 7.43698 19.6875V17.4464C6.66588 16.8656 6.03588 16.0814 5.63229 15.1561C4.99573 15.7828 4.7037 16.4948 4.70042 16.5047C4.6512 16.6294 4.52979 16.7114 4.39526 16.7114C4.26073 16.7114 4.13932 16.6294 4.0901 16.5047C3.46338 14.9461 2.00323 14.4014 1.9901 14.3981C1.86542 14.3522 1.77682 14.234 1.77354 14.0995C1.77026 13.965 1.84573 13.8436 1.96713 13.7878C2.88917 13.3776 3.43385 12.7903 3.73901 12.3375C3.53885 11.6845 3.46338 11.189 3.4601 11.1661C2.85963 7.98655 4.95963 5.72577 5.04823 5.63061C5.38948 5.21061 5.78323 4.85624 6.19995 4.55436C6.56417 2.50686 8.36557 0.981079 10.4557 0.981079H10.8823C12.979 0.981079 14.7837 2.51342 15.1414 4.56749C15.5614 4.87264 15.9617 5.22374 16.3062 5.64702C16.3784 5.72249 18.4784 7.98327 17.8779 11.1759C17.8615 11.2776 17.4382 14.0076 15.8731 15.1823C15.8271 15.2184 15.7746 15.2348 15.7189 15.2414C15.2923 16.2061 14.6032 17.0133 13.7501 17.5842L13.7534 17.5875ZM13.0643 4.19014C13.1332 4.3378 13.1824 4.48217 13.2087 4.60358C13.4318 6.11624 12.5951 6.8217 12.2276 7.05467C12.1128 7.12686 11.9815 7.17936 11.8437 7.22202C15.7517 8.71827 15.7878 11.2645 15.7779 11.5697L15.9584 14.2012C16.9296 13.0298 17.2315 11.0939 17.2315 11.0709C17.7729 8.20311 15.8337 6.10639 15.814 6.0867C15.0528 5.15483 14.0159 4.56749 13.061 4.19342L13.0643 4.19014ZM7.01698 4.04249C8.79541 3.07452 10.669 2.91045 10.7806 2.90389C11.3679 2.86452 11.8306 2.99905 12.1882 3.21233C12.8281 3.38295 13.586 3.65202 14.3276 4.05561C13.8059 2.63811 12.4409 1.64389 10.8823 1.64389H10.4557C8.9037 1.64389 7.54198 2.63483 7.01698 4.04577V4.04249ZM4.10651 11.0578C4.10651 11.0578 4.13604 11.2481 4.20167 11.5237C4.25417 11.4844 4.31979 11.4614 4.3887 11.4614C4.52651 11.4581 4.65448 11.5467 4.7037 11.678C4.8776 12.1636 5.16635 12.554 5.47479 12.8658L5.56338 11.5664C5.55026 11.212 5.59292 7.88155 11.5615 6.61827C11.6796 6.59202 11.7846 6.55264 11.8765 6.49358C12.2735 6.2442 12.7132 5.73233 12.5623 4.71842C12.5557 4.69217 12.2539 3.45842 10.8265 3.55358C10.797 3.55358 7.33198 3.86202 5.54042 6.06374C5.50432 6.10311 3.56838 8.19983 4.10651 11.0545V11.0578ZM5.95385 14.0733C5.48135 13.7845 4.83495 13.2858 4.3887 12.5409C4.11307 12.9905 3.62417 13.5942 2.82026 14.0798C3.2862 14.362 3.92932 14.8575 4.40182 15.6581C4.69385 15.1823 5.19588 14.5261 5.95385 14.07V14.0733ZM15.3185 14.4605L15.1217 11.5926C15.1217 11.5926 15.1217 11.5631 15.1217 11.5467C15.1282 11.4384 15.2103 8.82655 10.669 7.51733C6.13432 8.82327 6.21963 11.4319 6.22292 11.55V11.5926L6.09823 13.3809C6.48542 13.6467 6.79713 13.7747 6.8037 13.778C6.92838 13.8272 7.01042 13.9519 7.01042 14.0864C7.01042 14.2209 6.9251 14.3423 6.79713 14.3915C6.56417 14.4801 6.35417 14.595 6.16385 14.723C6.89885 16.5867 8.6412 17.85 10.5804 17.8861H10.669C12.792 17.8861 14.6853 16.4915 15.3185 14.4637V14.4605Z" fill="#F16232"/>
</svg>
