<svg width="21" height="21" viewBox="0 0 21 21" fill="none" xmlns="http://www.w3.org/2000/svg">
<g clip-path="url(#clip0_2684_1141)">
<path d="M19.6391 9.66719C19.432 9.25289 19.0758 8.94441 18.6362 8.79848C18.1965 8.65246 17.7266 8.68684 17.3128 8.89503L15.1592 9.97862C15.1561 9.98018 15.1487 9.98395 15.1383 9.97862C15.1276 9.97321 15.1263 9.96484 15.1257 9.96127C15.0586 9.55428 14.9738 9.15925 14.8734 8.78728C14.7427 8.30252 14.7509 7.79003 14.897 7.30522L15.2882 6.00786C15.3373 5.84519 15.2451 5.67362 15.0825 5.62453C14.9198 5.57543 14.7482 5.66755 14.6991 5.83026L14.3079 7.12763C14.1286 7.72244 14.1187 8.35174 14.2794 8.94749C14.3744 9.29973 14.4548 9.67445 14.5186 10.0612C14.552 10.2641 14.6762 10.4338 14.8593 10.5269C15.0423 10.62 15.2524 10.6204 15.4358 10.5282L17.5893 9.4446C17.8561 9.31036 18.159 9.28825 18.4424 9.38234C18.7257 9.47639 18.9553 9.67527 19.0889 9.94228C19.3651 10.4947 19.1409 11.17 18.5891 11.4476L16.4931 12.5023C15.3817 13.0615 14.5301 14.0113 14.0949 15.1768C13.9381 15.5969 13.5472 15.8766 13.0985 15.8895L13.094 15.8896C12.6472 15.9024 12.2881 16.2625 12.2763 16.7092L12.1924 19.9058C12.1854 20.1726 11.9663 20.3848 11.7011 20.3848C11.6967 20.3848 11.6924 20.3847 11.688 20.3846L6.7779 20.2557C6.50687 20.2486 6.29212 20.0222 6.29921 19.7512L6.38641 16.4294C6.39855 15.9696 6.18014 15.5403 5.80223 15.2812C5.25942 14.9089 4.87183 14.3524 4.71092 13.7143C4.61876 13.3492 4.54497 12.9591 4.49153 12.5547C4.46926 12.3862 4.31426 12.2679 4.14626 12.2901C3.97785 12.3123 3.85936 12.4669 3.88159 12.6353C3.93815 13.0632 4.01645 13.4768 4.11435 13.8649C4.31196 14.6483 4.78783 15.3315 5.45429 15.7886C5.65945 15.9293 5.77803 16.1628 5.77142 16.4133L5.68422 19.7351C5.66819 20.3452 6.1516 20.8547 6.76174 20.8707L11.6719 20.9996C11.6817 20.9999 11.6915 21.0001 11.7013 21.0001C12.2983 21.0001 12.7917 20.5224 12.8075 19.9222L12.8914 16.7256C12.8946 16.6051 12.9914 16.5082 13.1124 16.5047L13.1169 16.5046C13.8164 16.4845 14.4266 16.0478 14.6714 15.3921C15.0521 14.3723 15.7973 13.5412 16.7697 13.052L18.8657 11.9973C19.7197 11.5676 20.0667 10.5223 19.6391 9.66719Z" fill="#F16232"/>
<path d="M4.08576 11.4577C4.25564 11.4551 4.39128 11.3153 4.38874 11.1455C4.38534 10.9187 4.38821 10.6907 4.39731 10.4679C4.41921 9.92886 4.21098 9.39894 3.82596 9.014L2.12205 7.31001C1.68556 6.87356 1.68556 6.16342 2.12205 5.72697C2.55846 5.29048 3.26856 5.2904 3.70505 5.72697L5.48386 7.50578C5.61609 7.63793 5.82039 7.66332 5.98093 7.56726C6.14142 7.47128 6.21582 7.27921 6.1618 7.10013L4.97834 3.17527C4.89204 2.88902 4.92235 2.58624 5.06373 2.3228C5.20511 2.05931 5.44063 1.8667 5.72692 1.78037C6.31799 1.60236 6.9436 1.93799 7.12177 2.52894L8.32202 6.50947C8.38087 6.70458 8.56954 6.82438 8.77142 6.79485C8.97297 6.76512 9.11928 6.59568 9.11928 6.39192V1.73459C9.11928 1.11739 9.62143 0.615234 10.2386 0.615234C10.8559 0.615234 11.358 1.11739 11.358 1.73463V6.39192C11.358 6.59568 11.5043 6.76512 11.7059 6.79481C11.9076 6.82475 12.0965 6.70454 12.1553 6.50947L13.3555 2.52894C13.4418 2.24269 13.6345 2.00714 13.8979 1.86576C14.1615 1.72442 14.4642 1.69407 14.7504 1.78037C15.0366 1.86666 15.2722 2.05931 15.4136 2.3228C15.555 2.58624 15.5853 2.88902 15.499 3.17527L15.1102 4.46471C15.0612 4.62738 15.1532 4.79899 15.3159 4.84805C15.4785 4.89714 15.6502 4.80498 15.6992 4.64231L16.088 3.35286C16.2218 2.90928 16.1748 2.4401 15.9557 2.03187C15.7366 1.6236 15.3716 1.32509 14.928 1.19134C14.4844 1.05755 14.0152 1.10455 13.607 1.3237C13.1988 1.5428 12.9003 1.90776 12.7665 2.35138L11.9733 4.98213V1.73463C11.9733 0.778148 11.1952 0 10.2386 0C9.28219 0 8.50404 0.778148 8.50404 1.73459V4.98209L7.7108 2.35134C7.43472 1.43563 6.46512 0.915182 5.54932 1.19134C5.10573 1.32509 4.74074 1.6236 4.52163 2.03187C4.30253 2.4401 4.25556 2.90928 4.38927 3.35286L5.3339 6.4858L4.14006 5.29192C3.46376 4.61569 2.36335 4.61561 1.68692 5.29192C1.01061 5.96827 1.01061 7.06871 1.68692 7.7451L3.39087 9.44906C3.65472 9.71287 3.79746 10.0752 3.78249 10.4429C3.77297 10.677 3.76994 10.9165 3.77351 11.1547C3.77605 11.323 3.91325 11.4577 4.081 11.4577C4.0826 11.4577 4.0842 11.4577 4.08576 11.4577Z" fill="#F16232"/>
<path d="M7.74794 9.48009C7.74794 8.92819 7.29895 8.47919 6.74704 8.47919C6.19509 8.47919 5.74609 8.92819 5.74609 9.48009C5.74609 10.032 6.19509 10.481 6.74704 10.481C7.29895 10.481 7.74794 10.032 7.74794 9.48009ZM6.36133 9.48009C6.36133 9.26743 6.53437 9.09442 6.74704 9.09442C6.95971 9.09442 7.13271 9.26747 7.13271 9.48009C7.13271 9.69272 6.95966 9.86576 6.74704 9.86576C6.53437 9.86576 6.36133 9.69272 6.36133 9.48009Z" fill="#F16232"/>
<path d="M8.30559 18.6369C8.85754 18.6369 9.30654 18.1879 9.30654 17.636C9.30654 17.084 8.85754 16.635 8.30559 16.635C7.75369 16.635 7.30469 17.084 7.30469 17.636C7.30469 18.1879 7.75369 18.6369 8.30559 18.6369ZM8.30559 17.2502C8.5183 17.2502 8.6913 17.4232 8.6913 17.6359C8.6913 17.8486 8.51826 18.0216 8.30559 18.0216C8.09293 18.0216 7.91992 17.8485 7.91992 17.6359C7.91992 17.4232 8.09297 17.2502 8.30559 17.2502Z" fill="#F16232"/>
<path d="M11.6758 13.6168C11.6758 14.1687 12.1248 14.6177 12.6767 14.6177C13.2286 14.6177 13.6776 14.1687 13.6776 13.6168C13.6776 13.0649 13.2286 12.6159 12.6767 12.6159C12.1248 12.6159 11.6758 13.0649 11.6758 13.6168ZM12.6768 13.2311C12.8894 13.2311 13.0624 13.4042 13.0624 13.6168C13.0624 13.8295 12.8894 14.0025 12.6768 14.0025C12.4641 14.0025 12.2911 13.8294 12.2911 13.6168C12.291 13.4042 12.4641 13.2311 12.6768 13.2311Z" fill="#F16232"/>
<path d="M10.6933 11.8434C10.6933 11.2915 10.2443 10.8425 9.69231 10.8425C9.1404 10.8425 8.69141 11.2915 8.69141 11.8434C8.69141 12.3953 9.1404 12.8443 9.69231 12.8443C10.2443 12.8443 10.6933 12.3953 10.6933 11.8434ZM9.30664 11.8434C9.30664 11.6307 9.47969 11.4577 9.69231 11.4577C9.90502 11.4577 10.078 11.6307 10.078 11.8434C10.078 12.0561 9.90498 12.2291 9.69231 12.2291C9.47969 12.2291 9.30664 12.056 9.30664 11.8434Z" fill="#F16232"/>
<path d="M12.3154 8.9469C12.4853 8.9469 12.623 8.80917 12.623 8.63928C12.623 8.46939 12.4853 8.33167 12.3154 8.33167C12.1455 8.33167 12.0078 8.46939 12.0078 8.63928C12.0078 8.80917 12.1455 8.9469 12.3154 8.9469Z" fill="#F16232"/>
<path d="M10.0146 8.35654C10.1845 8.35654 10.3223 8.21881 10.3223 8.04892C10.3223 7.87903 10.1845 7.7413 10.0146 7.7413C9.84476 7.7413 9.70703 7.87903 9.70703 8.04892C9.70703 8.21881 9.84476 8.35654 10.0146 8.35654Z" fill="#F16232"/>
<path d="M13.0654 11.2282C13.2353 11.2282 13.373 11.0905 13.373 10.9206C13.373 10.7507 13.2353 10.6129 13.0654 10.6129C12.8955 10.6129 12.7578 10.7507 12.7578 10.9206C12.7578 11.0905 12.8955 11.2282 13.0654 11.2282Z" fill="#F16232"/>
<path d="M15.46 12.151C15.6299 12.151 15.7676 12.0133 15.7676 11.8434C15.7676 11.6735 15.6299 11.5358 15.46 11.5358C15.2901 11.5358 15.1523 11.6735 15.1523 11.8434C15.1523 12.0133 15.2901 12.151 15.46 12.151Z" fill="#F16232"/>
<path d="M8.55762 14.6177C8.72751 14.6177 8.86523 14.48 8.86523 14.3101C8.86523 14.1402 8.72751 14.0025 8.55762 14.0025C8.38772 14.0025 8.25 14.1402 8.25 14.3101C8.25 14.48 8.38772 14.6177 8.55762 14.6177Z" fill="#F16232"/>
<path d="M6.05371 12.584C6.2236 12.584 6.36133 12.4463 6.36133 12.2764C6.36133 12.1065 6.2236 11.9688 6.05371 11.9688C5.88382 11.9688 5.74609 12.1065 5.74609 12.2764C5.74609 12.4463 5.88382 12.584 6.05371 12.584Z" fill="#F16232"/>
</g>
<defs>
<clipPath id="clip0_2684_1141">
<rect width="21" height="21" fill="white"/>
</clipPath>
</defs>
</svg>
