<svg width="21" height="21" viewBox="0 0 21 21" fill="none" xmlns="http://www.w3.org/2000/svg">
<path d="M18.8349 9.74066C18.646 9.3629 18.3213 9.08164 17.9204 8.94857C17.5195 8.81544 17.091 8.84678 16.7138 9.03661L14.7501 10.0246C14.7473 10.026 14.7405 10.0295 14.731 10.0246C14.7213 10.0197 14.7201 10.0121 14.7195 10.0088C14.6584 9.6377 14.581 9.27753 14.4896 8.93837C14.3703 8.49636 14.3778 8.02908 14.511 7.58704L14.8677 6.40411C14.9125 6.25579 14.8285 6.09936 14.6801 6.05459C14.5318 6.00983 14.3754 6.09382 14.3306 6.24218L13.9739 7.4251C13.8104 7.96745 13.8014 8.54124 13.9479 9.08444C14.0345 9.40561 14.1079 9.74728 14.166 10.0999C14.1964 10.2849 14.3097 10.4396 14.4767 10.5246C14.6435 10.6094 14.8351 10.6098 15.0023 10.5257L16.9659 9.5377C17.2091 9.4153 17.4853 9.39514 17.7437 9.48093C18.002 9.56668 18.2114 9.74803 18.3332 9.99148C18.585 10.4952 18.3806 11.1109 17.8775 11.3641L15.9664 12.3257C14.953 12.8355 14.1765 13.7016 13.7797 14.7643C13.6367 15.1473 13.2803 15.4023 12.8712 15.4141L12.8671 15.4142C12.4597 15.4259 12.1323 15.7542 12.1215 16.1615L12.045 19.0762C12.0387 19.3194 11.8388 19.5129 11.597 19.5129C11.593 19.5129 11.5891 19.5128 11.5851 19.5127L7.10813 19.3952C6.861 19.3887 6.66519 19.1823 6.67166 18.9352L6.75116 15.9064C6.76223 15.4871 6.56309 15.0957 6.21851 14.8594C5.72359 14.52 5.37018 14.0126 5.22347 13.4308C5.13944 13.0979 5.07216 12.7422 5.02343 12.3735C5.00312 12.2199 4.8618 12.112 4.70862 12.1322C4.55506 12.1525 4.44702 12.2934 4.46729 12.447C4.51886 12.8371 4.59025 13.2143 4.67952 13.568C4.8597 14.2824 5.29359 14.9053 5.90126 15.3221C6.08833 15.4504 6.19644 15.6633 6.19042 15.8917L6.11092 18.9205C6.09629 19.4768 6.53706 19.9413 7.09339 19.9559L11.5704 20.0735C11.5794 20.0738 11.5883 20.0739 11.5972 20.0739C12.1416 20.0739 12.5915 19.6384 12.6059 19.0911L12.6824 16.1764C12.6853 16.0666 12.7735 15.9782 12.8838 15.975L12.888 15.9749C13.5258 15.9566 14.0821 15.5585 14.3054 14.9606C14.6525 14.0308 15.3319 13.273 16.2186 12.8269L18.1297 11.8653C18.9084 11.4734 19.2247 10.5204 18.8349 9.74066Z" fill="#F16232"/>
<path d="M4.65364 11.3732C4.80854 11.3709 4.93221 11.2434 4.92989 11.0886C4.92679 10.8818 4.92941 10.6739 4.93771 10.4708C4.95768 9.97924 4.76781 9.49606 4.41676 9.14508L2.86315 7.5914C2.46516 7.19345 2.46516 6.54594 2.86315 6.14799C3.26106 5.75001 3.90852 5.74993 4.30651 6.14799L5.92841 7.7699C6.04898 7.89039 6.23526 7.91354 6.38163 7.82595C6.52797 7.73844 6.59581 7.56331 6.54656 7.40003L5.46748 3.82137C5.3888 3.56037 5.41644 3.2843 5.54535 3.0441C5.67426 2.80386 5.88899 2.62824 6.15003 2.54951C6.68897 2.38721 7.25939 2.69323 7.42185 3.23206L8.51622 6.86147C8.56988 7.03937 8.74191 7.14861 8.92599 7.12168C9.10976 7.09457 9.24316 6.94008 9.24316 6.75429V2.50778C9.24316 1.94502 9.70102 1.48716 10.2638 1.48716C10.8266 1.48716 11.2844 1.94502 11.2844 2.50782V6.75429C11.2844 6.94008 11.4178 7.09457 11.6016 7.12164C11.7855 7.14894 11.9577 7.03933 12.0114 6.86147L13.1057 3.23206C13.1844 2.97106 13.3601 2.75629 13.6003 2.62738C13.8406 2.4985 14.1166 2.47083 14.3776 2.54951C14.6386 2.6282 14.8533 2.80386 14.9822 3.0441C15.1112 3.2843 15.1388 3.56037 15.0601 3.82137L14.7056 4.99708C14.6609 5.1454 14.7449 5.30187 14.8932 5.3466C15.0415 5.39137 15.198 5.30733 15.2427 5.15901L15.5972 3.9833C15.7192 3.57885 15.6763 3.15106 15.4765 2.77884C15.2767 2.40658 14.944 2.1344 14.5395 2.01245C14.135 1.89046 13.7072 1.93331 13.335 2.13313C12.9628 2.33291 12.6906 2.66567 12.5687 3.07017L11.8454 5.46885V2.50782C11.8454 1.6357 11.1359 0.926193 10.2638 0.926193C9.3917 0.926193 8.68219 1.6357 8.68219 2.50778V5.46882L7.95892 3.07013C7.70719 2.23519 6.82311 1.76065 5.9881 2.01245C5.58364 2.1344 5.25084 2.40658 5.05106 2.77884C4.85128 3.15106 4.80846 3.57885 4.93038 3.9833L5.79169 6.83989L4.70315 5.75132C4.0865 5.13474 3.08316 5.13467 2.46639 5.75132C1.84974 6.36801 1.84974 7.37139 2.46639 7.98811L4.02004 9.54176C4.26062 9.7823 4.39077 10.1126 4.37712 10.4479C4.36844 10.6614 4.36567 10.8798 4.36893 11.0969C4.37125 11.2504 4.49634 11.3732 4.6493 11.3732C4.65076 11.3732 4.65221 11.3732 4.65364 11.3732Z" fill="#F16232"/>
<path d="M7.99324 9.57006C7.99324 9.06683 7.58385 8.65744 7.08062 8.65744C6.57736 8.65744 6.16797 9.06683 6.16797 9.57006C6.16797 10.0733 6.57736 10.4827 7.08062 10.4827C7.58385 10.4827 7.99324 10.0733 7.99324 9.57006ZM6.72893 9.57006C6.72893 9.37615 6.88672 9.21841 7.08062 9.21841C7.27453 9.21841 7.43227 9.37619 7.43227 9.57006C7.43227 9.76393 7.27449 9.92171 7.08062 9.92171C6.88672 9.92171 6.72893 9.76393 6.72893 9.57006Z" fill="#F16232"/>
<path d="M8.50246 17.9191C9.00572 17.9191 9.41511 17.5097 9.41511 17.0065C9.41511 16.5032 9.00572 16.0939 8.50246 16.0939C7.99924 16.0939 7.58984 16.5032 7.58984 17.0065C7.58984 17.5097 7.99924 17.9191 8.50246 17.9191ZM8.50246 16.6548C8.6964 16.6548 8.85415 16.8126 8.85415 17.0065C8.85415 17.2004 8.69637 17.3581 8.50246 17.3581C8.30855 17.3581 8.15081 17.2003 8.15081 17.0065C8.15081 16.8126 8.30859 16.6548 8.50246 16.6548Z" fill="#F16232"/>
<path d="M11.5742 13.3419C11.5742 13.8451 11.9836 14.2545 12.4869 14.2545C12.9901 14.2545 13.3995 13.8451 13.3995 13.3419C13.3995 12.8386 12.9901 12.4292 12.4869 12.4292C11.9836 12.4292 11.5742 12.8386 11.5742 13.3419ZM12.4869 12.9902C12.6808 12.9902 12.8386 13.148 12.8386 13.3419C12.8386 13.5358 12.6808 13.6935 12.4869 13.6935C12.293 13.6935 12.1352 13.5358 12.1352 13.3419C12.1352 13.148 12.293 12.9902 12.4869 12.9902Z" fill="#F16232"/>
<path d="M10.6768 11.7249C10.6768 11.2216 10.2674 10.8123 9.76418 10.8123C9.26096 10.8123 8.85156 11.2216 8.85156 11.7249C8.85156 12.2281 9.26096 12.6375 9.76418 12.6375C10.2674 12.6375 10.6768 12.2281 10.6768 11.7249ZM9.41253 11.7249C9.41253 11.531 9.57031 11.3732 9.76418 11.3732C9.95812 11.3732 10.1159 11.531 10.1159 11.7249C10.1159 11.9188 9.95809 12.0766 9.76418 12.0766C9.57031 12.0766 9.41253 11.9188 9.41253 11.7249Z" fill="#F16232"/>
<path d="M12.1555 9.0839C12.3104 9.0839 12.436 8.95832 12.436 8.80342C12.436 8.64851 12.3104 8.52293 12.1555 8.52293C12.0006 8.52293 11.875 8.64851 11.875 8.80342C11.875 8.95832 12.0006 9.0839 12.1555 9.0839Z" fill="#F16232"/>
<path d="M10.0578 8.54562C10.2127 8.54562 10.3383 8.42004 10.3383 8.26513C10.3383 8.11023 10.2127 7.98465 10.0578 7.98465C9.90292 7.98465 9.77734 8.11023 9.77734 8.26513C9.77734 8.42004 9.90292 8.54562 10.0578 8.54562Z" fill="#F16232"/>
<path d="M12.843 11.1639C12.9979 11.1639 13.1235 11.0384 13.1235 10.8835C13.1235 10.7286 12.9979 10.603 12.843 10.603C12.6881 10.603 12.5625 10.7286 12.5625 10.8835C12.5625 11.0384 12.6881 11.1639 12.843 11.1639Z" fill="#F16232"/>
<path d="M15.0227 12.0054C15.1776 12.0054 15.3032 11.8798 15.3032 11.7249C15.3032 11.57 15.1776 11.4444 15.0227 11.4444C14.8678 11.4444 14.7422 11.57 14.7422 11.7249C14.7422 11.8798 14.8678 12.0054 15.0227 12.0054Z" fill="#F16232"/>
<path d="M8.7297 14.2545C8.88461 14.2545 9.01018 14.1289 9.01018 13.974C9.01018 13.8191 8.88461 13.6935 8.7297 13.6935C8.5748 13.6935 8.44922 13.8191 8.44922 13.974C8.44922 14.1289 8.5748 14.2545 8.7297 14.2545Z" fill="#F16232"/>
<path d="M6.44845 12.4002C6.60336 12.4002 6.72893 12.2746 6.72893 12.1197C6.72893 11.9648 6.60336 11.8392 6.44845 11.8392C6.29355 11.8392 6.16797 11.9648 6.16797 12.1197C6.16797 12.2746 6.29355 12.4002 6.44845 12.4002Z" fill="#F16232"/>
</svg>
