<svg width="21" height="21" viewBox="0 0 21 21" fill="none" xmlns="http://www.w3.org/2000/svg">
<path d="M18.6802 13.964L16.8042 13.7297C16.7061 13.5366 16.5082 13.4146 16.2916 13.4137H12.4266L8.36528 4.11359C8.25408 3.81273 7.92072 3.65821 7.61928 3.76781L7.34763 3.8683L6.86661 2.56772C6.78674 2.35151 6.62423 2.17591 6.41485 2.07956C6.20547 1.9832 5.96638 1.974 5.75021 2.05397L2.49079 3.25899C2.04083 3.42544 1.81096 3.92511 1.97734 4.3751L2.45865 5.67829L2.187 5.77878C1.88763 5.88952 1.73428 6.2216 1.84412 6.5213L5.90399 17.5031C6.2847 18.5244 7.25858 19.2027 8.34848 19.2057H16.2916C16.508 19.2049 16.7059 19.0832 16.8042 18.8903L18.6802 18.656C18.9701 18.6198 19.1876 18.3733 19.1875 18.0812V14.5382C19.1873 14.2463 18.9698 14.0002 18.6802 13.964ZM10.9494 11.4783L9.50137 12.0462C9.35232 12.1043 9.18436 12.0314 9.12489 11.8829L7.00649 6.48858C6.97858 6.4174 6.98026 6.33803 7.01115 6.2681C7.04204 6.19817 7.09957 6.14347 7.17098 6.11616L8.39713 5.63311L10.9494 11.4783ZM2.52062 4.17383C2.46548 4.02397 2.54204 3.85776 2.69177 3.80227L5.95293 2.59726C6.02497 2.57059 6.10466 2.57365 6.17445 2.60575C6.24424 2.63785 6.29842 2.69636 6.32506 2.76841L6.8058 4.06928L3.00193 5.47586L2.52062 4.17383ZM8.34848 18.6265C7.50071 18.6241 6.7432 18.0965 6.44698 17.3022L5.22343 13.9929H6.44525C6.60519 13.9929 6.73484 13.8633 6.73484 13.7033C6.73484 13.5434 6.60519 13.4137 6.44525 13.4137H5.00942L2.38683 6.3209L7.82779 4.32905L8.16546 5.10228L6.95986 5.57693C6.74484 5.66041 6.57197 5.82619 6.47957 6.03753C6.38716 6.24887 6.38283 6.48834 6.46755 6.70288L8.58827 12.0946C8.76429 12.5402 9.26697 12.7601 9.71364 12.5869L11.1816 12.0106L11.7947 13.4137H7.60364C7.4437 13.4137 7.31404 13.5434 7.31404 13.7033C7.31404 13.8633 7.4437 13.9929 7.60364 13.9929H16.2916V18.6265H8.34848ZM16.8708 18.2984V14.321L18.6083 14.5382V18.0812L16.8708 18.2984Z" fill="#F16232"/>
</svg>
