<svg width="21" height="21" viewBox="0 0 21 21" fill="none" xmlns="http://www.w3.org/2000/svg">
<g clip-path="url(#clip0_2684_1197)">
<path d="M20.8048 5.16537C19.991 5.01207 19.1432 5.04409 18.3525 5.25777C18.0261 5.3456 17.711 5.46383 17.4082 5.60973C17.2118 5.16983 16.9357 4.7649 16.5853 4.41451C16.235 4.06381 15.8304 3.7874 15.3909 3.59079C15.5367 3.28834 15.6544 2.97349 15.7422 2.64747C15.9558 1.85682 15.9879 1.00894 15.8346 0.195194C15.823 0.132194 15.7873 0.0775936 15.7343 0.0413686C15.6813 0.00566856 15.6177 -0.00745644 15.5547 0.00409356C15.4251 0.0287686 15.3395 0.154244 15.3636 0.283919C15.5038 1.02679 15.4749 1.80117 15.2796 2.52252C15.1955 2.83337 15.0819 3.13336 14.9409 3.42079C14.5631 3.30451 14.1659 3.24392 13.7592 3.24392C12.6911 3.24392 11.6871 3.65967 10.9322 4.41451C10.4197 4.92707 10.0579 5.5639 9.88368 6.25926C7.93084 5.06851 6.1493 4.44764 4.58764 4.41357C3.20668 4.38391 2.03493 4.77703 1.19824 5.54983C0.448484 6.24241 0.0232338 7.18741 0.0009213 8.21074C-0.0213912 9.23407 0.362226 10.1967 1.08111 10.9213C1.32109 11.1632 1.59592 11.3751 1.89838 11.5515C1.10773 12.9208 0.892004 14.3992 1.27473 15.8296C1.43239 16.4179 1.68622 16.9734 2.02942 17.4812C1.03239 19.0044 1.12316 19.4354 1.34403 19.6555C1.44173 19.7542 1.55933 19.8002 1.71421 19.8002C2.07619 19.8002 2.66666 19.5288 3.51895 18.9706C4.02667 19.3137 4.58212 19.5675 5.17023 19.7251C5.63023 19.8483 6.10021 19.9108 6.56715 19.9108C7.35801 19.9108 8.14567 19.7335 8.90818 19.3837C9.08883 19.3009 9.27079 19.2067 9.44961 19.1033C9.6259 19.4053 9.83743 19.6795 10.0787 19.9189C10.7815 20.6161 11.7141 21 12.7049 21C12.733 21 12.7612 20.9997 12.7893 20.9991C13.8127 20.9767 14.7576 20.5514 15.4501 19.8017C16.2236 18.9645 16.6165 17.7925 16.5864 16.4123C16.5524 14.8509 15.9317 13.0697 14.7412 11.1172C14.9287 11.0702 15.113 11.0094 15.29 10.9362C15.7736 10.7357 16.2094 10.4435 16.5853 10.0676C17.339 9.31387 17.7541 8.31001 17.7541 7.24101C17.7541 6.8345 17.6937 6.4376 17.5779 6.06013C17.8657 5.91827 18.1659 5.80414 18.4774 5.72029C19.1988 5.52552 19.9731 5.49612 20.716 5.63629C20.8462 5.66044 20.9712 5.57487 20.9958 5.44519C21.02 5.31499 20.9345 5.18952 20.8048 5.16537ZM0.480036 8.22118C0.499461 7.3291 0.870006 6.50543 1.52342 5.90189C2.2684 5.21388 3.32401 4.86454 4.57719 4.89279C7.77124 4.9624 11.3563 7.81856 12.1394 8.47549C11.0954 9.27785 7.65217 11.7265 4.5522 11.7265C4.51093 11.7265 4.4692 11.726 4.42819 11.7252C1.66438 11.6648 0.444179 9.86648 0.480036 8.22118ZM8.79583 16.5822C8.80375 16.9459 8.84187 17.3012 8.90917 17.6395C6.57397 16.2918 4.70802 14.4257 3.36113 12.091C3.69918 12.1582 4.05418 12.1962 4.41769 12.2041C4.46342 12.2051 4.50857 12.2056 4.5544 12.2056C5.66651 12.2056 6.9168 11.9127 8.27083 11.3351C8.69692 11.8368 9.16558 12.3056 9.6647 12.7293C9.06316 14.1395 8.77083 15.4358 8.79583 16.5822ZM8.72836 11.1309C9.79616 10.6336 10.7397 10.0488 11.3918 9.60808C10.951 10.2604 10.366 11.2041 9.86887 12.2715C9.46384 11.9192 9.08053 11.5359 8.72836 11.1309ZM1.72387 19.3185C1.70512 19.3185 1.69279 19.3166 1.68538 19.315C1.67399 19.2618 1.6573 18.9571 2.33607 17.8922C2.56717 18.174 2.82663 18.4334 3.1085 18.6644C2.18308 19.254 1.83244 19.3185 1.72387 19.3185ZM5.29397 19.2621C3.56404 18.7984 2.20141 17.4357 1.73773 15.7058C1.38718 14.3956 1.59109 13.035 2.32714 11.7691C2.4532 11.8248 2.58298 11.8753 2.71354 11.9195C4.17257 14.6269 6.37337 16.8276 9.08022 18.2859C9.12463 18.417 9.17529 18.547 9.2311 18.6731C7.96402 19.4093 6.60332 19.6131 5.29397 19.2621ZM16.1073 16.4229C16.1346 17.6763 15.7857 18.7323 15.0981 19.4766C14.4947 20.13 13.6711 20.5005 12.7788 20.52C11.8857 20.5401 11.0478 20.2052 10.4163 19.5787C9.69699 18.865 9.30235 17.8252 9.27499 16.5717C9.20533 13.3775 11.9025 9.67144 12.5247 8.86053C13.1816 9.6432 16.0376 13.2266 16.1073 16.4229ZM16.2468 9.72914C15.7565 10.2188 15.1429 10.5494 14.471 10.6863C13.6019 9.34022 12.785 8.42368 12.6942 8.32303L12.6657 8.29316L12.6644 8.29447C12.516 8.16149 11.6174 7.37068 10.3134 6.52879C10.4505 5.85637 10.7814 5.24302 11.2714 4.75366C11.9352 4.08907 12.8187 3.72309 13.7591 3.72309C14.6987 3.72309 15.5822 4.08907 16.2468 4.75372C16.9103 5.41732 17.2758 6.30079 17.2758 7.24143C17.2759 8.18207 16.9104 9.06554 16.2468 9.72914Z" fill="#F16232"/>
</g>
<defs>
<clipPath id="clip0_2684_1197">
<rect width="21" height="21" fill="white"/>
</clipPath>
</defs>
</svg>
