<svg width="21" height="21" viewBox="0 0 21 21" fill="none" xmlns="http://www.w3.org/2000/svg">
<path d="M19.694 10.3071C18.7774 8.72268 17.4593 7.39377 15.8824 6.46416C14.2575 5.5063 12.3962 5 10.4998 5C8.60344 5 6.74214 5.5063 5.11724 6.46416C3.54028 7.39381 2.22225 8.72268 1.30567 10.3071C1.23665 10.4265 1.23665 10.5736 1.30567 10.6929C2.22225 12.2774 3.54028 13.6063 5.11724 14.5359C6.74218 15.4938 8.60344 16.0001 10.4998 16.0001C12.3962 16.0001 14.2575 15.4938 15.8824 14.5359C17.4593 13.6062 18.7774 12.2774 19.694 10.6929C19.763 10.5735 19.763 10.4265 19.694 10.3071ZM15.4911 13.8721C13.9846 14.7601 12.2587 15.2295 10.4998 15.2295C8.74089 15.2295 7.01493 14.7601 5.50851 13.8721C4.11004 13.0477 2.93107 11.8849 2.08715 10.5C2.93107 9.11512 4.11004 7.95227 5.50851 7.12787C7.01493 6.23985 8.74089 5.77044 10.4998 5.77044C12.2587 5.77044 13.9846 6.23985 15.4911 7.12787C16.8895 7.95227 18.0685 9.11508 18.9124 10.5C18.0685 11.8849 16.8895 13.0477 15.4911 13.8721Z" fill="#F16232"/>
<path d="M10.5008 7.03822C8.59196 7.03822 7.03906 8.59113 7.03906 10.5C7.03906 12.4088 8.59196 13.9617 10.5008 13.9617C12.4096 13.9617 13.9626 12.4088 13.9626 10.5C13.9626 8.59116 12.4096 7.03822 10.5008 7.03822ZM10.5008 13.1913C9.01684 13.1913 7.80955 11.984 7.80955 10.5C7.80955 9.016 9.01684 7.80871 10.5008 7.80871C11.9848 7.80871 13.1921 9.016 13.1921 10.5C13.1921 11.984 11.9848 13.1913 10.5008 13.1913Z" fill="#F16232"/>
</svg>
