<svg width="16" height="16" viewBox="0 0 16 16" fill="none" xmlns="http://www.w3.org/2000/svg">
<path d="M14.7002 7.08925C14.6105 4.79725 13.6885 2.94225 12.294 2.24775C11.4975 1.85125 10.1627 1.64725 8.32396 2.92675C8.30196 2.942 8.28271 2.96075 8.26696 2.98225C8.10346 3.20525 7.85196 3.47 7.57921 3.47C7.57746 3.47 7.57596 3.47 7.57396 3.47C7.35171 3.46725 7.17271 3.2935 7.09471 3.204V0.86175C7.09471 0.52425 6.82021 0.25 6.48271 0.25H5.70246C5.36521 0.25 5.09071 0.52325 5.09071 0.85925C5.09096 1.12775 5.08521 1.49925 5.07971 1.8835C5.07121 2.447 5.06221 3.02975 5.06996 3.37475C5.08521 4.05175 5.39446 4.70175 5.91821 5.15875C7.74896 6.757 7.75771 8.4995 7.15571 9.59725C6.62846 10.5583 5.65696 11.052 4.79546 10.7992C4.39696 10.6822 3.94846 10.6427 3.46271 10.681C1.14171 10.8662 1.24321 12.6857 1.32496 14.1477C1.34446 14.4942 1.36246 14.8218 1.35271 15.1225C1.34696 15.2883 1.40721 15.4452 1.52221 15.5642C1.63771 15.684 1.79421 15.75 1.96171 15.75H2.65621C2.82396 15.75 2.98621 15.6803 3.10171 15.5588C3.21721 15.437 3.27596 15.2782 3.26746 15.1115C3.20396 13.9107 3.34571 13.1785 3.68871 12.935C4.08821 12.6513 4.88546 12.9777 5.72921 13.323C6.51171 13.643 7.39796 14.006 8.26646 14.0282C9.92421 14.072 10.9975 13.871 11.8497 13.3603C14.08 12.0228 14.7845 9.244 14.7002 7.08925ZM11.6007 12.9445C10.8337 13.4045 9.83996 13.5832 8.27921 13.5437C7.49971 13.5237 6.65671 13.1788 5.91321 12.8745C4.90021 12.46 4.02571 12.102 3.40846 12.54C2.90771 12.8955 2.70921 13.721 2.78371 15.137C2.78596 15.181 2.76396 15.2115 2.75046 15.2255C2.73621 15.2405 2.70471 15.266 2.65621 15.266H1.96171C1.92646 15.266 1.89396 15.2525 1.87021 15.2277C1.85671 15.214 1.83471 15.184 1.83621 15.139C1.84721 14.8167 1.82821 14.4788 1.80821 14.121C1.72746 12.6765 1.65146 11.3118 3.50071 11.1643C3.60821 11.1555 3.71296 11.1512 3.81496 11.1512C4.11971 11.1512 4.40246 11.189 4.65846 11.2642C5.74021 11.5825 6.94221 10.9927 7.57996 9.8305C8.27271 8.5675 8.28346 6.58125 6.23646 4.794C5.81521 4.42625 5.56646 3.90525 5.55446 3.36425C5.54696 3.0285 5.55571 2.45025 5.56396 1.89125C5.56996 1.50375 5.57546 1.12975 5.57521 0.8595C5.57521 0.7895 5.63121 0.73475 5.70271 0.73475H6.48296C6.55346 0.73475 6.61071 0.792 6.61071 0.86225V3.28825C6.61071 3.33675 6.62546 3.38425 6.65246 3.42425C6.66696 3.4455 7.01221 3.9445 7.56296 3.9545C7.93746 3.95875 8.30121 3.74175 8.63296 3.30225C9.92221 2.4155 11.1125 2.201 12.0782 2.68175C13.2955 3.28775 14.135 5.0255 14.2162 7.1085C14.2952 9.12425 13.6495 11.7162 11.6007 12.9445Z" fill="#F16232" stroke="#F16232" stroke-width="0.1"/>
<path d="M13.2791 7.37952C13.2768 7.37952 13.2746 7.37952 13.2723 7.37952C13.1418 7.37952 13.0341 7.48352 13.0303 7.61502C12.9903 9.06602 12.4631 10.938 11.1043 11.8415C10.9928 11.9155 10.9626 12.0658 11.0366 12.1773C11.0831 12.2475 11.1603 12.2853 11.2386 12.2853C11.2846 12.2853 11.3313 12.272 11.3723 12.2448C12.8853 11.2388 13.4708 9.20052 13.5143 7.62852C13.5181 7.49452 13.4128 7.38327 13.2791 7.37952Z" fill="#F16232" stroke="#F16232" stroke-width="0.1"/>
<path d="M12.2671 4.42672C12.3139 4.49672 12.3906 4.53447 12.4689 4.53447C12.5149 4.53447 12.5619 4.52122 12.6029 4.49372C12.7144 4.41947 12.7444 4.26897 12.6701 4.15772C12.2234 3.48797 11.6426 3.13397 10.9914 3.13397C10.4969 3.13397 9.93437 3.32422 9.31937 3.69897C9.20512 3.76872 9.16887 3.91772 9.23862 4.03197C9.30812 4.14647 9.45762 4.18197 9.57137 4.11272C10.1016 3.78922 10.5926 3.61847 10.9911 3.61847C11.4801 3.61847 11.9094 3.89022 12.2671 4.42672Z" fill="#F16232" stroke="#F16232" stroke-width="0.1"/>
</svg>
