<svg width="21" height="21" viewBox="0 0 21 21" fill="none" xmlns="http://www.w3.org/2000/svg">
<path d="M9.89159 6.3088C8.97163 5.44167 7.56262 4.97503 6.1232 5.06003C5.67399 5.08666 5.30145 5.41232 5.21732 5.85206C5.18634 6.01383 5.08118 6.14249 4.92885 6.20504C4.77645 6.2676 4.61136 6.25 4.47553 6.15663L4.37598 6.0882C4.01789 5.84193 3.53239 5.86478 3.19541 6.14378C3.00576 6.3008 2.83403 6.47286 2.68508 6.65528C2.59809 6.76179 2.61389 6.91868 2.72041 7.00567C2.82692 7.0927 2.98384 7.07686 3.0708 6.97034C3.1994 6.81293 3.34818 6.66391 3.513 6.52745C3.67941 6.38972 3.91821 6.37787 4.09379 6.49863L4.19333 6.56706C4.4661 6.75456 4.81167 6.79154 5.11801 6.6658C5.42424 6.54006 5.64424 6.27089 5.7065 5.94573C5.74777 5.73011 5.93125 5.57033 6.15268 5.55725C7.458 5.47956 8.72802 5.89649 9.55003 6.67128C10.1075 7.19672 10.4022 7.82668 10.4022 8.49304C10.4022 9.33952 9.90686 10.1438 9.05939 10.7006C9.05939 10.6975 9.05942 10.6943 9.05942 10.6912V8.56277C9.05942 8.38075 8.97591 8.21347 8.83032 8.10396C8.68615 7.99552 8.50446 7.96179 8.33177 8.01166C7.81802 8.15978 7.39498 8.14583 7.03851 7.96899C6.87053 7.88562 6.67341 7.88811 6.51118 7.9754C5.97292 8.26513 5.34578 8.28459 4.59396 8.0348C4.41974 7.977 4.22697 8.00658 4.07825 8.11389C3.9296 8.22114 3.84088 8.39462 3.84088 8.57794V10.6912C3.84088 10.6943 3.84088 10.6975 3.84091 10.7006C2.99334 10.1438 2.49805 9.33949 2.49805 8.49304C2.49805 8.23631 2.54297 7.98111 2.63156 7.73458C2.67804 7.60519 2.61084 7.46255 2.48141 7.416C2.35212 7.36961 2.20938 7.43668 2.16283 7.56614C2.05479 7.86686 2 8.17874 2 8.49304C2 9.626 2.71672 10.6831 3.91874 11.3254C4.1241 12.1448 4.71801 12.8118 5.49241 13.1184V13.448C4.34823 13.6014 3.47558 14.5836 3.47558 15.7566V18.5198C3.47558 18.7846 3.691 19 3.95583 19H6.1138C6.25136 19 6.36283 18.8886 6.36283 18.751C6.36283 18.6135 6.25136 18.502 6.1138 18.502H3.97359V15.7566C3.97359 14.8572 4.62594 14.1006 5.49237 13.9518V14.1887C5.49237 14.7168 5.92199 15.1464 6.45008 15.1464C6.97818 15.1464 7.40779 14.7168 7.40779 14.1887V13.9518C8.27317 14.101 8.92657 14.8602 8.92657 15.7566V18.502H7.07666C6.9391 18.502 6.82764 18.6134 6.82764 18.751C6.82764 18.8885 6.9391 19 7.07666 19H8.94434C9.20916 19 9.42462 18.7846 9.42462 18.5197V15.7566C9.42462 14.5875 8.55048 13.6017 7.40779 13.448V13.1184C8.18219 12.8118 8.77606 12.1448 8.98142 11.3254C10.1834 10.6831 10.9002 9.626 10.9002 8.49301C10.9002 7.69759 10.542 6.92187 9.89159 6.3088ZM6.90975 14.1887C6.90975 14.4421 6.70356 14.6483 6.45008 14.6483C6.19661 14.6483 5.99042 14.4421 5.99042 14.1887V13.2599C6.13967 13.2865 6.29327 13.3005 6.45008 13.3005C6.6069 13.3005 6.7605 13.2865 6.90975 13.2599V14.1887ZM8.5613 10.6912C8.5613 11.8553 7.61422 12.8024 6.45008 12.8024C5.28592 12.8024 4.33883 11.8553 4.33883 10.6912V8.57794C4.33883 8.54494 4.35812 8.52608 4.36961 8.51778C4.37804 8.5117 4.39308 8.50346 4.41284 8.50346C4.42024 8.50346 4.42831 8.50459 4.43691 8.50745C5.31364 8.79871 6.09089 8.7672 6.74722 8.41395C6.76744 8.40306 6.79357 8.40349 6.81708 8.41514C7.28371 8.64664 7.83973 8.6718 8.4697 8.49018C8.49699 8.48235 8.51791 8.49224 8.53082 8.50194C8.54221 8.5105 8.5613 8.52979 8.5613 8.56277V10.6912Z" fill="#F16232" stroke="#F16232" stroke-width="0.2"/>
<path d="M5.8418 10.0494V9.69844C5.8418 9.56088 5.73033 9.44942 5.59277 9.44942C5.45521 9.44942 5.34375 9.56088 5.34375 9.69844V10.0494C5.34375 10.1869 5.45521 10.2984 5.59277 10.2984C5.73033 10.2984 5.8418 10.1869 5.8418 10.0494Z" fill="#F16232" stroke="#F16232" stroke-width="0.2"/>
<path d="M7.30762 9.44939C7.17006 9.44939 7.05859 9.56085 7.05859 9.69841V10.0493C7.05859 10.1869 7.17006 10.2984 7.30762 10.2984C7.44518 10.2984 7.55664 10.1869 7.55664 10.0493V9.69841C7.55664 9.56088 7.44518 9.44939 7.30762 9.44939Z" fill="#F16232" stroke="#F16232" stroke-width="0.2"/>
<path d="M15.8892 4.08144C15.8359 4.20818 15.8954 4.3542 16.0221 4.40756L16.8556 4.75848C16.9739 4.80839 17.1101 4.75981 17.171 4.64798L17.5767 3.90228C17.6424 3.78148 17.5978 3.63028 17.477 3.56453C17.3562 3.49879 17.205 3.54348 17.1392 3.66428L16.9875 3.94312C16.7636 3.44354 16.31 3.10766 15.7604 3.03916C15.1783 2.96671 14.6258 3.20763 14.2825 3.6838C14.2384 3.74499 14.1957 3.80961 14.1548 3.87684C13.4864 3.95088 12.9648 4.51912 12.9648 5.20696C12.9648 5.94493 13.5652 6.54531 14.3032 6.54531C15.0412 6.54531 15.6415 5.94493 15.6415 5.20696C15.6415 4.61352 15.2533 4.10906 14.7174 3.93425C14.9541 3.63519 15.3173 3.48578 15.6989 3.53342C16.0413 3.57605 16.329 3.77119 16.492 4.065L16.2154 3.94856C16.0888 3.8952 15.9426 3.95464 15.8892 4.08144ZM15.1435 5.20696C15.1435 5.67031 14.7665 6.04726 14.3032 6.04726C13.8398 6.04726 13.4629 5.67031 13.4629 5.20696C13.4629 4.7451 13.8375 4.36908 14.2988 4.36672C14.3018 4.36675 14.3049 4.36679 14.3078 4.36672C14.7691 4.36928 15.1435 4.7452 15.1435 5.20696Z" fill="#F16232" stroke="#F16232" stroke-width="0.2"/>
<path d="M18.751 3.92372C18.8885 3.92372 19 3.81226 19 3.6747V2.45638C19 2.20473 18.7953 2 18.5437 2H11.815C11.5634 2 11.3587 2.20473 11.3587 2.45638V4.89077L10.4878 5.54238C10.3501 5.64537 10.2825 5.81458 10.3112 5.98404C10.3399 6.15351 10.4595 6.29097 10.6234 6.3429L11.3587 6.57572V7.11584C11.3587 7.36749 11.5634 7.57222 11.8151 7.57222H18.5437C18.7953 7.57222 19 7.36749 19 7.11584V4.63759C19 4.50003 18.8886 4.38857 18.751 4.38857C18.6135 4.38857 18.502 4.50003 18.502 4.63759V7.07417H11.8567V6.54521C11.8567 6.34529 11.7287 6.17045 11.5381 6.11012L10.851 5.89257L11.6736 5.27708C11.7883 5.19139 11.8567 5.05479 11.8567 4.91165V2.49805H18.502V3.6747C18.502 3.81223 18.6134 3.92372 18.751 3.92372Z" fill="#F16232" stroke="#F16232" stroke-width="0.2"/>
<path d="M7.20278 11.3095C6.70251 11.0323 6.19513 11.0323 5.69479 11.3095C5.5745 11.3762 5.531 11.5277 5.59764 11.648C5.66434 11.7683 5.81588 11.8118 5.93615 11.7452C6.28116 11.554 6.61651 11.554 6.96139 11.7452C6.99961 11.7664 7.04101 11.7764 7.08185 11.7764C7.16948 11.7764 7.25441 11.7301 7.2999 11.648C7.36657 11.5277 7.32307 11.3762 7.20278 11.3095Z" fill="#F16232" stroke="#F16232" stroke-width="0.2"/>
</svg>
