<svg width="21" height="21" viewBox="0 0 21 21" fill="none" xmlns="http://www.w3.org/2000/svg">
<path d="M12.8111 3.35477C12.6936 3.22185 12.5056 3.19629 12.3647 3.29598C9.83609 5.0751 9.26035 9.09857 9.13111 10.7448C9.11936 10.8828 9.04886 11.0106 8.93371 11.095C8.16527 11.6599 7.70703 12.598 7.70703 13.6077C7.70703 14.4283 8.00313 15.1977 8.54127 15.7728C9.06766 16.3378 9.76325 16.6471 10.4988 16.6471H10.5434C12.0263 16.6215 13.2882 15.2386 13.2952 13.6256C13.2999 12.5264 12.7571 11.5065 11.8759 10.9672C11.7443 10.8879 11.6573 10.755 11.6456 10.6144C11.232 6.30975 12.7759 3.9427 12.8417 3.84301C12.9404 3.69475 12.9286 3.49025 12.8111 3.35477ZM12.5902 13.6231C12.5832 14.8296 11.6409 15.8623 10.5317 15.8802C9.97239 15.893 9.43425 15.6578 9.03241 15.2284C8.63057 14.7989 8.40967 14.2238 8.40967 13.6103C8.40967 12.8562 8.75276 12.1558 9.32615 11.734C9.61755 11.5193 9.8032 11.1844 9.8314 10.8138C9.92304 9.65071 10.2473 7.2172 11.3871 5.41508C11.0181 6.64461 10.7244 8.41351 10.9429 10.6962C10.9805 11.0847 11.1991 11.4349 11.5304 11.6369C12.1884 12.0382 12.5949 12.8 12.5902 13.6231Z" fill="#F16232"/>
<path d="M19.6167 12.1765H14.3864C14.3813 12.1765 14.3736 12.1788 14.3685 12.1788C14.3531 12.1788 14.3404 12.1811 14.325 12.1835C14.3123 12.1858 14.2995 12.1881 14.2867 12.1905C14.279 12.1928 14.2739 12.1928 14.2663 12.1952C14.2612 12.1975 14.2561 12.1998 14.2535 12.1998C14.2407 12.2045 14.2279 12.2092 14.2152 12.2162C14.2049 12.2209 14.1947 12.2255 14.1845 12.2302C14.1743 12.2372 14.1641 12.2442 14.1538 12.2512C14.1436 12.2582 14.1334 12.2652 14.1257 12.2723C14.1181 12.2793 14.1079 12.2886 14.1002 12.2956C14.0925 12.305 14.0849 12.312 14.0772 12.3213C14.0695 12.3307 14.0644 12.34 14.0568 12.3493C14.0516 12.3587 14.044 12.368 14.0389 12.3774C14.0338 12.3867 14.0286 12.3984 14.0261 12.4101C14.021 12.4218 14.0184 12.4311 14.0159 12.4428C14.0133 12.4521 14.0108 12.4638 14.0082 12.4755C14.0056 12.4872 14.0056 12.5012 14.0031 12.5129C14.0031 12.5176 14.0005 12.5222 14.0005 12.5269C14.0005 12.5339 14.0031 12.5386 14.0031 12.5433C14.0031 12.5549 14.0056 12.569 14.0082 12.5806C14.0108 12.5923 14.0133 12.604 14.0159 12.6157C14.0184 12.6227 14.0184 12.6274 14.021 12.6344C14.1411 12.9731 14.2024 13.3236 14.2024 13.6763C14.2024 15.543 12.5416 17.0638 10.5026 17.0638C8.461 17.0638 6.79761 15.5453 6.79761 13.6763C6.79761 13.3236 6.85893 12.9731 6.97902 12.6344C6.98158 12.6274 6.98158 12.6227 6.98413 12.6157C6.98669 12.604 6.98924 12.5923 6.9918 12.5806C6.99435 12.569 6.99435 12.5549 6.99691 12.5433C6.99691 12.5362 6.99946 12.5316 6.99946 12.5269C6.99946 12.5222 6.99691 12.5176 6.99691 12.5129C6.99691 12.5012 6.99435 12.4872 6.9918 12.4755C6.98924 12.4638 6.98924 12.4545 6.98413 12.4428C6.98158 12.4311 6.97647 12.4218 6.97391 12.4101C6.9688 12.3984 6.96625 12.3891 6.96114 12.3774C6.95603 12.368 6.95091 12.3587 6.94325 12.3493C6.93558 12.34 6.93047 12.3307 6.92281 12.3213C6.91514 12.312 6.90748 12.305 6.89981 12.2956C6.89215 12.2863 6.88448 12.2793 6.87426 12.2723C6.86404 12.2652 6.85637 12.2582 6.84615 12.2512C6.83593 12.2442 6.82571 12.2372 6.81549 12.2302C6.80527 12.2255 6.79505 12.2209 6.78483 12.2162C6.77205 12.2115 6.75928 12.2045 6.7465 12.1998C6.74139 12.1975 6.73628 12.1952 6.73373 12.1952C6.72862 12.1928 6.72095 12.1928 6.71584 12.1905C6.70307 12.1881 6.69029 12.1858 6.67752 12.1835C6.66474 12.1811 6.64941 12.1811 6.63663 12.1788C6.63152 12.1788 6.62386 12.1765 6.61875 12.1765H1.38327C1.17119 12.1765 1 12.333 1 12.5269C1 12.7208 1.17119 12.8773 1.38327 12.8773H6.12049C6.06173 13.1413 6.03106 13.4077 6.03106 13.6763C6.03106 15.9308 8.03685 17.7647 10.5026 17.7647C12.9657 17.7647 14.9689 15.9308 14.9689 13.6763C14.9689 13.4077 14.9357 13.1413 14.8795 12.8773H19.6167C19.8288 12.8773 20 12.7208 20 12.5269C20 12.333 19.8263 12.1765 19.6167 12.1765Z" fill="#F16232"/>
</svg>
