<svg width="21" height="21" viewBox="0 0 21 21" fill="none" xmlns="http://www.w3.org/2000/svg">
<path d="M17.6634 9.03C17.6634 6.279 15.5424 4.62 14.1564 3.612C14.2614 3.024 14.1774 2.52 13.9254 2.268C13.7154 2.037 13.4424 2.226 13.2324 2.331C12.5184 2.667 11.4474 3.171 10.5024 3.171H9.11637C5.88238 3.171 3.34137 6.006 3.34137 9.618V11.97C3.11037 12.264 2.98438 12.642 2.98438 13.041C2.98438 14.049 3.80337 14.847 4.79037 14.847C5.23137 16.779 6.97437 18.795 9.01137 19.53C9.55737 19.74 10.0404 19.824 10.5024 19.824C10.9644 19.824 11.4474 19.74 11.9934 19.53C14.0304 18.774 15.7734 16.758 16.2144 14.847C17.2224 14.847 18.0204 14.028 18.0204 13.041C18.0204 12.642 17.8944 12.264 17.6634 11.97V9.03ZM9.11637 3.864H10.5024C11.5944 3.864 12.7494 3.318 13.5054 2.961C13.5474 3.339 13.4424 4.095 12.9384 4.746C12.8334 4.893 12.8544 5.103 13.0014 5.229C13.1484 5.334 13.3584 5.313 13.4844 5.166C13.6734 4.893 13.8414 4.62 13.9464 4.326C15.2694 5.313 16.9704 6.741 16.9704 9.03V11.424C16.7604 11.319 16.5504 11.277 16.3194 11.256V10.458C16.3194 10.29 16.1934 10.143 16.0254 10.122C14.5974 9.891 13.6104 9.282 13.0224 8.274C12.9804 8.19 12.8964 8.127 12.8124 8.106C12.7284 8.085 12.6234 8.106 12.5604 8.148C10.0194 9.66 6.55437 11.025 5.25237 9.87C5.14737 9.786 5.00037 9.765 4.89537 9.807C4.76937 9.87 4.68537 9.975 4.68537 10.122V11.256C4.45437 11.277 4.22338 11.34 4.03438 11.424V9.618C4.01338 6.384 6.26037 3.864 9.11637 3.864ZM3.65637 13.062C3.65637 12.474 4.09737 11.991 4.68537 11.949V14.007C4.68537 14.07 4.68537 14.133 4.70637 14.217C4.11837 14.154 3.65637 13.671 3.65637 13.062ZM15.6474 14.007C15.6474 15.876 13.8414 18.186 11.7624 18.942C10.8174 19.299 10.1874 19.299 9.26337 18.942C7.18437 18.186 5.37837 15.876 5.37837 14.007V10.752C7.43637 11.676 11.1324 9.786 12.6444 8.904C13.2954 9.849 14.3034 10.458 15.6474 10.752V14.007ZM16.3194 14.196C16.3194 14.133 16.3404 14.07 16.3404 14.007V11.949C16.9074 12.012 17.3694 12.495 17.3694 13.062C17.3484 13.65 16.8864 14.133 16.3194 14.196Z" fill="#F16232"/>
<path d="M9.09228 12.81C9.09228 12.705 9.02928 12.579 8.94528 12.516L7.62228 11.655C7.45428 11.55 7.24428 11.592 7.13928 11.76C7.03428 11.928 7.07628 12.138 7.24428 12.243L8.12628 12.81L7.24428 13.377C7.07628 13.482 7.03428 13.692 7.13928 13.86C7.20228 13.965 7.30728 14.007 7.43328 14.007C7.49628 14.007 7.55928 13.986 7.62228 13.944L8.94528 13.083C9.02928 13.02 9.09228 12.915 9.09228 12.81Z" fill="#F16232"/>
<path d="M11.9062 12.81C11.9062 12.915 11.9693 13.041 12.0533 13.104L13.3763 13.965C13.4393 14.007 13.5022 14.028 13.5652 14.028C13.6702 14.028 13.7752 13.965 13.8592 13.881C13.9642 13.713 13.9223 13.503 13.7542 13.398L12.8722 12.81L13.7542 12.243C13.9223 12.138 13.9642 11.928 13.8592 11.76C13.7542 11.592 13.5443 11.55 13.3763 11.655L12.0533 12.516C11.9693 12.579 11.9062 12.684 11.9062 12.81Z" fill="#F16232"/>
<path d="M3.63459 2.604C3.65559 2.772 3.80259 2.877 3.99159 2.877H4.26459L4.39059 3.549C4.41159 3.717 4.55859 3.822 4.72659 3.822H4.78959C4.97859 3.78 5.10459 3.612 5.06259 3.423L4.89459 2.478C4.87359 2.31 4.70559 2.205 4.53759 2.205H4.26459L4.11759 1.428C4.07559 1.239 3.90759 1.113 3.71859 1.155C3.52959 1.197 3.40359 1.365 3.44559 1.554L3.63459 2.604Z" fill="#F16232"/>
<path d="M3.40306 5.124C3.57106 5.124 3.71806 4.998 3.73906 4.851C3.78106 4.662 3.65506 4.494 3.46606 4.452L2.79406 4.326V4.053C2.79406 3.885 2.68906 3.738 2.52106 3.696L1.45006 3.507C1.26106 3.486 1.09306 3.612 1.05106 3.78C1.00906 3.969 1.13506 4.137 1.32406 4.179L2.10106 4.326V4.599C2.10106 4.767 2.20606 4.914 2.37406 4.956L3.31906 5.124H3.40306Z" fill="#F16232"/>
<path d="M16.2342 3.822H16.2972C16.4652 3.822 16.6122 3.696 16.6332 3.549L16.7592 2.877H17.0322C17.2002 2.877 17.3472 2.772 17.3892 2.604L17.5782 1.533C17.6202 1.344 17.4942 1.176 17.3052 1.134C17.1162 1.092 16.9482 1.218 16.9062 1.407L16.7592 2.184H16.4862C16.3182 2.184 16.1712 2.289 16.1292 2.457L15.9612 3.423C15.9192 3.591 16.0452 3.78 16.2342 3.822Z" fill="#F16232"/>
<path d="M19.95 3.78C19.908 3.591 19.74 3.465 19.551 3.507L18.48 3.696C18.312 3.717 18.186 3.885 18.207 4.053V4.326L17.535 4.452C17.346 4.494 17.22 4.662 17.262 4.851C17.283 5.019 17.43 5.124 17.598 5.124H17.661L18.627 4.956C18.795 4.935 18.921 4.767 18.9 4.599V4.326L19.698 4.179C19.845 4.158 19.971 3.969 19.95 3.78Z" fill="#F16232"/>
<path d="M10.5015 15.309C9.91348 15.309 9.32548 15.582 8.92648 16.065C8.80048 16.212 8.82148 16.422 8.96848 16.548C9.03148 16.611 9.11548 16.632 9.17848 16.632C9.28348 16.632 9.36748 16.59 9.43048 16.506C9.70348 16.17 10.0815 16.002 10.4805 16.002C10.8795 16.002 11.2575 16.191 11.5305 16.506C11.6565 16.653 11.8665 16.674 12.0135 16.548C12.1605 16.422 12.1815 16.212 12.0555 16.065C11.6775 15.582 11.0895 15.309 10.5015 15.309Z" fill="#F16232"/>
</svg>
