<svg width="21" height="21" viewBox="0 0 21 21" fill="none" xmlns="http://www.w3.org/2000/svg">
<path d="M17.0778 12.2179C16.8908 11.2066 16.497 10.2508 15.9075 9.37715C15.7343 9.12039 15.6573 8.81638 15.6903 8.5214L16.2891 3.20381C16.297 3.13424 16.2749 3.06452 16.2281 3.01234C16.1815 2.96017 16.1147 2.93031 16.0447 2.93031H6.86966C6.7996 2.93031 6.73283 2.96017 6.68623 3.01234C6.63948 3.06452 6.61733 3.13424 6.6252 3.20381L7.22403 8.52123C7.25701 8.81638 7.1799 9.12039 7.00698 9.37715C6.41766 10.2505 6.02391 11.2061 5.83656 12.2181C5.33124 14.9482 6.52857 17.1427 7.06653 17.9594C7.11214 18.0285 7.18925 18.0702 7.2721 18.0702H10.8132C10.9359 18.0702 11.04 17.9798 11.0569 17.8582L11.4572 14.9953L11.8572 17.8582C11.8742 17.9798 11.9781 18.0702 12.1008 18.0702H15.6422C15.7251 18.0702 15.8022 18.0287 15.8478 17.9594C16.3861 17.1426 17.5831 14.9485 17.0778 12.2179ZM15.5084 17.5778H12.3152L11.8106 13.9665C12.1466 14.3832 12.527 14.6513 12.949 14.7635C13.103 14.8045 13.2624 14.825 13.4269 14.825C13.9908 14.825 14.6141 14.5845 15.2869 14.1063C15.3976 14.0275 15.4235 13.8738 15.345 13.763C15.2662 13.6521 15.1125 13.6264 15.0017 13.705C14.2579 14.2339 13.6102 14.4298 13.0756 14.2879C12.5383 14.1448 12.0688 13.6464 11.6808 12.8062C11.6406 12.7191 11.5535 12.6633 11.4575 12.6633C11.3615 12.6633 11.2744 12.7191 11.2342 12.8062C10.8459 13.6465 10.3765 14.145 9.83902 14.288C9.30418 14.4303 8.65679 14.2339 7.91293 13.7051C7.80219 13.6265 7.64863 13.6523 7.56971 13.7632C7.49113 13.8739 7.51705 14.0277 7.62779 14.1064C8.49699 14.7241 9.28351 14.9451 9.96552 14.7638C10.3876 14.6514 10.7683 14.3834 11.1044 13.9665L10.5995 17.578H7.40631C6.87491 16.7363 5.86904 14.7477 6.32054 12.3076C6.49559 11.3628 6.86391 10.4693 7.41516 9.65228C7.65338 9.29873 7.75937 8.87758 7.7131 8.46627L7.14512 3.42234H15.7692L15.2012 8.46644C15.1551 8.87758 15.261 9.29873 15.4993 9.65245C16.0508 10.4698 16.4189 11.3633 16.5938 12.3076C17.0455 14.7479 16.0398 16.7362 15.5084 17.5778Z" fill="#F16232"/>
<path d="M5.70086 10.2851L5.38258 9.67344L6.0869 9.99221C6.2111 10.0485 6.35662 9.99336 6.41256 9.8695C6.46867 9.74579 6.41371 9.59978 6.29001 9.54383L4.93731 8.93139C4.84199 8.88824 4.72928 8.91022 4.65726 8.98635C4.58507 9.06247 4.56916 9.176 4.61756 9.26919L4.936 9.88114L4.14834 9.52496C4.0248 9.46902 3.87862 9.52398 3.82267 9.64785C3.76673 9.77171 3.82169 9.91757 3.94556 9.97351L5.3811 10.6229C5.41359 10.6376 5.44821 10.6447 5.48249 10.6447C5.54861 10.6447 5.61374 10.6179 5.66132 10.5677C5.73335 10.4916 5.74926 10.3781 5.70086 10.2851Z" fill="#F16232"/>
<path d="M13.3449 10.1728L12.6587 10.1013L13.3901 9.6403C13.505 9.56779 13.5394 9.4157 13.4669 9.30086C13.3944 9.18569 13.2425 9.15156 13.1275 9.22408L11.7946 10.0642C11.7059 10.1202 11.6622 10.2262 11.6862 10.3284C11.7101 10.4306 11.7961 10.5064 11.9005 10.5172L12.5866 10.5887L11.932 11.0014C11.8171 11.0737 11.7825 11.2258 11.8548 11.3406C11.9016 11.415 11.9815 11.4557 12.0634 11.4557C12.1082 11.4557 12.1536 11.4435 12.1945 11.4178L13.4508 10.626C13.5396 10.57 13.5832 10.4641 13.5593 10.3618C13.5352 10.2595 13.4492 10.1837 13.3449 10.1728Z" fill="#F16232"/>
<path d="M8.93408 8.58949L9.5398 8.25972L9.23415 8.9706C9.1805 9.09546 9.23809 9.24016 9.36294 9.29397C9.3946 9.30759 9.42774 9.31415 9.46007 9.31415C9.55539 9.31415 9.64628 9.25837 9.68631 9.16518L10.273 7.801C10.3145 7.7047 10.2902 7.59248 10.2128 7.52193C10.135 7.45138 10.0212 7.4376 9.92928 7.48764L9.32357 7.81724L9.66514 7.02318C9.71879 6.89833 9.66121 6.75363 9.53635 6.69998C9.41085 6.646 9.26647 6.70408 9.21299 6.82893L8.59037 8.27629C8.54886 8.3726 8.57314 8.48481 8.65058 8.55536C8.72818 8.62607 8.84237 8.63953 8.93408 8.58949Z" fill="#F16232"/>
<path d="M9.07137 10.3049C8.36427 10.3049 7.78906 10.8801 7.78906 11.5872C7.78906 12.2943 8.36443 12.8695 9.07137 12.8695C9.77832 12.8695 10.3537 12.2943 10.3537 11.5872C10.3537 10.8801 9.77848 10.3049 9.07137 10.3049ZM9.07137 12.3774C8.63562 12.3774 8.28125 12.0228 8.28125 11.5872C8.28125 11.1516 8.63562 10.7971 9.07137 10.7971C9.50712 10.7971 9.8615 11.1516 9.8615 11.5872C9.8615 12.0228 9.50712 12.3774 9.07137 12.3774Z" fill="#F16232"/>
</svg>
