<svg width="21" height="21" viewBox="0 0 21 21" fill="none" xmlns="http://www.w3.org/2000/svg">
<path d="M21 9.97519C21 8.14058 19.7309 6.5598 17.9809 6.13231C17.9809 6.07443 17.9809 6.01654 17.9809 5.95865C17.9809 3.77672 16.2042 2 14.0178 2C12.4905 2 11.1635 2.87277 10.5 4.14186C9.84097 2.87277 8.51399 2 6.98219 2C4.7958 2 3.01908 3.77672 3.01908 5.95865V6.13231C1.26908 6.5598 0 8.14058 0 9.97519C0 11.2398 0.614504 12.4288 1.62977 13.1724C1.4383 13.6444 1.34033 14.152 1.34033 14.6597C1.34033 16.8416 3.11705 18.6183 5.30343 18.6183C5.44593 18.6183 5.59287 18.6094 5.74427 18.5916C6.30534 19.2417 7.12468 19.6202 7.9841 19.6202C9.04389 19.6202 9.97455 19.0592 10.4955 18.2176C11.0165 19.0592 11.9472 19.6202 13.007 19.6202C13.8664 19.6202 14.6857 19.2417 15.2468 18.5916C15.3982 18.6094 15.5452 18.6183 15.6877 18.6183C17.874 18.6183 19.6508 16.8416 19.6508 14.6597C19.6508 14.152 19.5528 13.6444 19.3613 13.1724C20.3766 12.4332 20.9911 11.2398 20.9911 9.97519H21ZM10.0636 16.6679C10.0636 17.8079 9.1374 18.7341 7.99746 18.7341C7.32952 18.7341 6.70165 18.409 6.31425 17.8613C6.29644 17.8391 5.97137 17.327 6.07379 16.7704C6.13613 16.4275 6.36323 16.1247 6.74173 15.8664C6.94657 15.7284 7 15.4523 6.86196 15.2475C6.72392 15.0426 6.44784 14.9936 6.243 15.1272C5.65967 15.5235 5.30789 16.0178 5.20102 16.6011C5.12086 17.0242 5.19211 17.416 5.29008 17.7233C3.61132 17.7055 2.25318 16.3384 2.25318 14.6552C2.25318 14.1565 2.37786 13.6578 2.61387 13.2169C2.74746 13.0254 3.20165 12.5891 4.48855 12.5891C4.73346 12.5891 4.93384 12.3887 4.93384 12.1438C4.93384 11.8989 4.73346 11.6985 4.48855 11.6985C3.21947 11.6985 2.52036 12.0681 2.14186 12.4154C1.38041 11.8365 0.917303 10.9326 0.917303 9.97074C0.917303 8.55916 1.88804 7.34796 3.22392 7.00509C3.52226 7.7042 4.29262 8.57697 5.82888 8.57697C6.07379 8.57697 6.27417 8.37659 6.27417 8.13168C6.27417 7.88677 6.07379 7.68639 5.82888 7.68639C4.28817 7.68639 4.00318 6.58206 3.96756 6.42176C3.94084 6.257 3.92748 6.1056 3.92748 5.95865C3.92748 4.26654 5.30344 2.89059 7 2.89059C8.69656 2.89059 10.0725 4.26654 10.0725 5.95865V16.6635L10.0636 16.6679ZM18.8849 12.4198C18.5064 12.0725 17.8028 11.7029 16.5382 11.7029C16.2933 11.7029 16.0929 11.9033 16.0929 12.1482C16.0929 12.3931 16.2933 12.5935 16.5382 12.5935C17.8251 12.5935 18.2748 13.0254 18.4128 13.2169C18.6489 13.6578 18.7735 14.1565 18.7735 14.6552C18.7735 16.334 17.4154 17.7055 15.7366 17.7233C15.8346 17.416 15.9059 17.0242 15.8257 16.6011C15.7144 16.0178 15.367 15.5235 14.7837 15.1272C14.5789 14.9892 14.3028 15.0426 14.1648 15.2475C14.0267 15.4523 14.0802 15.7284 14.285 15.8664C15.4294 16.6457 14.8505 17.652 14.7125 17.8613C14.3251 18.409 13.6927 18.7341 13.0293 18.7341C11.8893 18.7341 10.9631 17.8079 10.9631 16.6679V5.9631C10.9631 4.27099 12.3391 2.89504 14.0356 2.89504C15.7322 2.89504 17.1081 4.27099 17.1081 5.9631C17.1081 6.11005 17.0948 6.26145 17.0681 6.42621C17.0503 6.52417 16.792 7.69084 15.2067 7.69084C14.9618 7.69084 14.7615 7.89122 14.7615 8.13613C14.7615 8.38104 14.9618 8.58142 15.2067 8.58142C16.743 8.58142 17.5134 7.70865 17.8117 7.00954C19.1476 7.35242 20.1183 8.56361 20.1183 9.97519C20.1183 10.937 19.6552 11.841 18.8938 12.4198H18.8849Z" fill="#F16232"/>
</svg>
