<svg width="21" height="21" viewBox="0 0 21 21" fill="none" xmlns="http://www.w3.org/2000/svg">
<path d="M1.49871 5.85402C1.53755 5.87269 1.5797 5.88352 1.62273 5.88589C1.66577 5.88826 1.70885 5.88213 1.74952 5.86785C1.79018 5.85357 1.82763 5.83141 1.85973 5.80264C1.89183 5.77388 1.91794 5.73907 1.93658 5.70021C1.94395 5.68483 2.70833 4.15123 5.13163 4.45885C5.18682 4.46591 5.24289 4.4588 5.29456 4.43816C5.34623 4.41753 5.39178 4.38406 5.42691 4.34093C5.80568 3.92051 6.2821 3.59979 6.81413 3.40705C7.34617 3.21431 7.91746 3.15548 8.47761 3.23575C8.52449 3.24299 8.57238 3.24005 8.61803 3.22713C8.66367 3.21421 8.706 3.19161 8.74213 3.16087C8.77826 3.13014 8.80735 3.09198 8.82742 3.049C8.84749 3.00602 8.85807 2.95922 8.85844 2.91178V2.15428H12.1416V2.91178C12.142 2.95923 12.1525 3.00604 12.1726 3.04903C12.1927 3.09203 12.2217 3.1302 12.2579 3.16094C12.294 3.19168 12.3364 3.21427 12.382 3.22718C12.4277 3.24009 12.4756 3.243 12.5225 3.23574C13.0828 3.15118 13.6553 3.20799 14.1881 3.401C14.7209 3.59401 15.197 3.91711 15.5732 4.34092C15.6083 4.38406 15.6538 4.41752 15.7055 4.43816C15.7572 4.45879 15.8133 4.46591 15.8684 4.45884C18.2683 4.15443 19.033 5.63868 19.0635 5.7002C19.1022 5.77683 19.1695 5.83522 19.2508 5.86285C19.3321 5.89048 19.421 5.88515 19.4984 5.84801C19.5758 5.81086 19.6356 5.74486 19.665 5.66416C19.6943 5.58345 19.6908 5.49447 19.6553 5.41628C19.6174 5.33715 18.7144 3.52029 15.957 3.78849C15.5503 3.36688 15.0578 3.03757 14.5127 2.82284C13.9677 2.60812 13.3829 2.513 12.7979 2.54391V1.82616C12.7979 1.78306 12.7894 1.74039 12.7729 1.70058C12.7564 1.66076 12.7323 1.62458 12.7018 1.59411C12.6713 1.56364 12.6351 1.53947 12.5953 1.52299C12.5555 1.5065 12.5128 1.49802 12.4697 1.49803H8.53032C8.48723 1.49802 8.44456 1.5065 8.40474 1.52299C8.36493 1.53947 8.32875 1.56364 8.29828 1.59411C8.26781 1.62458 8.24364 1.66076 8.22715 1.70058C8.21067 1.74039 8.20219 1.78306 8.2022 1.82616V2.54393C7.61721 2.51312 7.03243 2.60829 6.48741 2.82301C5.94238 3.03773 5.44982 3.36698 5.04303 3.78851C2.28698 3.5187 1.38271 5.33717 1.34474 5.41632C1.30713 5.49478 1.30222 5.58497 1.33109 5.66705C1.35997 5.74913 1.42026 5.81638 1.49871 5.85402Z" fill="#F16232"/>
<path d="M19.3972 12.6504C18.9624 12.6089 17.8278 12.3315 17.4966 11.7104C17.4586 11.6724 17.4118 11.6441 17.3605 11.6281C17.3091 11.6121 17.2546 11.6088 17.2016 11.6185C17.1487 11.6282 17.0989 11.6506 17.0565 11.6838C17.0142 11.7169 16.9805 11.7599 16.9584 11.809C16.8308 12.076 16.6263 12.2986 16.371 12.4483C16.1158 12.598 15.8216 12.6678 15.5264 12.6488C15.4742 12.647 15.4223 12.6576 15.3751 12.6799C15.3278 12.7021 15.2866 12.7353 15.2548 12.7767C15.223 12.8181 15.2015 12.8666 15.1922 12.9179C15.1828 12.9693 15.1859 13.0222 15.2011 13.0721C15.204 13.0821 15.4836 14.0485 14.4558 14.8944C14.3907 14.9504 14.3502 15.0297 14.3429 15.1152C14.3355 15.2007 14.3619 15.2857 14.4165 15.3519C14.471 15.4182 14.5493 15.4605 14.6347 15.4697C14.72 15.479 14.8056 15.4544 14.873 15.4013C15.2005 15.1575 15.4642 14.838 15.6414 14.4701C15.8185 14.1022 15.904 13.6969 15.8905 13.2887C16.2235 13.2504 16.542 13.1313 16.8185 12.9418C16.5893 14.0251 16.2072 15.0702 15.6835 16.0457L15.2353 18.8457H10.8293V16.9093C10.8276 16.8234 10.7924 16.7415 10.731 16.6813C10.6696 16.6211 10.5871 16.5874 10.5011 16.5874C10.4152 16.5874 10.3327 16.6211 10.2713 16.6813C10.2099 16.7415 10.1747 16.8234 10.173 16.9094V18.8457H5.76706L5.31877 16.0458C4.79547 15.0701 4.41335 14.025 4.18387 12.9419C4.46033 13.1313 4.77885 13.2504 5.11177 13.2887C5.09827 13.6969 5.18376 14.1022 5.36096 14.4701C5.53815 14.838 5.80178 15.1575 6.12931 15.4014C6.16259 15.4288 6.20095 15.4493 6.24218 15.4619C6.28342 15.4745 6.32673 15.4788 6.36963 15.4746C6.41254 15.4705 6.4542 15.4579 6.49225 15.4376C6.53029 15.4173 6.56398 15.3898 6.59137 15.3565C6.61876 15.3232 6.63933 15.2849 6.6519 15.2436C6.66447 15.2024 6.6688 15.1591 6.66463 15.1162C6.66046 15.0733 6.64789 15.0316 6.62762 14.9936C6.60735 14.9555 6.57978 14.9218 6.5465 14.8944C5.53282 14.06 5.79045 13.1096 5.80118 13.0721C5.81596 13.0222 5.8187 12.9695 5.80918 12.9183C5.79967 12.8671 5.77817 12.8189 5.74644 12.7776C5.71472 12.7363 5.67367 12.7031 5.62665 12.6807C5.57963 12.6584 5.52799 12.6474 5.47594 12.6488C4.28709 12.6357 4.13402 11.8543 3.96341 11.6988C3.92725 11.6657 3.88418 11.641 3.8373 11.6266C3.79043 11.6122 3.74093 11.6084 3.69241 11.6155C3.64389 11.6227 3.59757 11.6405 3.5568 11.6677C3.51603 11.695 3.48184 11.731 3.45672 11.7731C3.12204 12.3569 2.00644 12.6046 1.60479 12.6508C1.51971 12.6622 1.44249 12.7065 1.3897 12.7742C1.33691 12.8419 1.31275 12.9276 1.32239 13.0129C1.33203 13.0982 1.37472 13.1763 1.44129 13.2305C1.50786 13.2847 1.59301 13.3107 1.6785 13.3028C2.31389 13.2236 2.92504 13.0095 3.47105 12.6751C3.66381 13.9133 4.07292 15.1079 4.67966 16.2044L5.16336 19.2258C5.17567 19.3028 5.21505 19.3729 5.27443 19.4236C5.33381 19.4742 5.40929 19.502 5.48732 19.502H15.515C15.593 19.502 15.6685 19.4742 15.7279 19.4236C15.7873 19.3729 15.8266 19.3028 15.839 19.2258L16.3227 16.2044C16.9294 15.1079 17.3385 13.9132 17.5313 12.6749C18.0773 13.0095 18.6884 13.2236 19.3238 13.3028C19.4096 13.311 19.4951 13.2852 19.5619 13.2309C19.6288 13.1767 19.6717 13.0983 19.6813 13.0127C19.6909 12.9271 19.6666 12.8412 19.6134 12.7734C19.5603 12.7057 19.4826 12.6615 19.3972 12.6504Z" fill="#F16232"/>
<path d="M12.1323 6.97779C12.1132 6.89404 12.0619 6.82115 11.9896 6.77479C11.9172 6.72842 11.8296 6.71227 11.7455 6.72981C11.6614 6.74735 11.5875 6.79719 11.5398 6.8686C11.492 6.94002 11.4741 7.02732 11.49 7.11175C11.6722 7.84264 12.0637 8.50451 12.6164 9.01624C13.1692 9.52797 13.8592 9.86734 14.6019 9.99276C14.6869 10.0073 14.7742 9.98776 14.8449 9.93846C14.9156 9.88916 14.9641 9.81401 14.9799 9.72926C14.9957 9.64451 14.9775 9.55695 14.9292 9.4855C14.881 9.41405 14.8066 9.36445 14.7221 9.3474C14.1075 9.24528 13.5357 8.96705 13.076 8.54645C12.6163 8.12586 12.2885 7.58095 12.1323 6.97779Z" fill="#F16232"/>
<path d="M8.86465 6.97749C8.70855 7.58073 8.38079 8.12572 7.92111 8.54638C7.46143 8.96704 6.88958 9.2453 6.2749 9.34743C6.19043 9.36451 6.11607 9.41413 6.06787 9.48557C6.01966 9.55701 6.00149 9.64454 6.01727 9.72927C6.03304 9.81399 6.08151 9.88911 6.15219 9.93841C6.22288 9.98772 6.31012 10.0072 6.39508 9.99278C7.13782 9.86736 7.82784 9.52799 8.38058 9.01625C8.93333 8.50452 9.32478 7.84265 9.50696 7.11176C9.5226 7.02744 9.50462 6.94035 9.45687 6.86913C9.40911 6.7979 9.33537 6.7482 9.25144 6.73065C9.1675 6.71311 9.08002 6.72911 9.00774 6.77525C8.93545 6.82138 8.88409 6.89397 8.86465 6.97749Z" fill="#F16232"/>
<path d="M10.8281 9.67168C10.8264 9.58576 10.7911 9.50393 10.7298 9.44377C10.6684 9.3836 10.5859 9.3499 10.5 9.3499C10.4141 9.3499 10.3316 9.38361 10.2702 9.44378C10.2089 9.50395 10.1735 9.58578 10.1719 9.6717V11.9362C10.1736 12.0221 10.2089 12.104 10.2702 12.1641C10.3316 12.2243 10.4141 12.258 10.5 12.258C10.5859 12.258 10.6684 12.2243 10.7298 12.1641C10.7911 12.1039 10.8265 12.0221 10.8281 11.9362V9.67168Z" fill="#F16232"/>
<path d="M10.5 12.9625C10.4569 12.9625 10.4142 12.971 10.3744 12.9875C10.3346 13.004 10.2984 13.0281 10.268 13.0586C10.2375 13.0891 10.2133 13.1253 10.1968 13.1651C10.1803 13.2049 10.1719 13.2476 10.1719 13.2907V15.5549C10.1719 15.6419 10.2064 15.7253 10.268 15.7869C10.3295 15.8484 10.413 15.883 10.5 15.883C10.587 15.883 10.6705 15.8484 10.732 15.7869C10.7936 15.7253 10.8281 15.6419 10.8281 15.5549V13.2907C10.8281 13.2476 10.8197 13.2049 10.8032 13.1651C10.7867 13.1253 10.7625 13.0891 10.732 13.0586C10.7016 13.0281 10.6654 13.004 10.6256 12.9875C10.5858 12.971 10.5431 12.9625 10.5 12.9625Z" fill="#F16232"/>
</svg>
