<svg width="21" height="21" viewBox="0 0 21 21" fill="none" xmlns="http://www.w3.org/2000/svg">
<path d="M12.9944 14.6785C12.9431 14.6785 12.891 14.6638 12.8452 14.633C12.7224 14.5504 12.6896 14.3838 12.7721 14.2609C13.6068 13.0181 13.0337 11.608 12.7258 10.8505C12.5915 10.5201 12.4873 10.2445 12.4092 9.95824C11.5212 6.69388 12.5299 5.78763 12.648 5.69508C12.7643 5.60384 12.9326 5.624 13.0245 5.7405C13.1146 5.85531 13.096 6.02077 12.9839 6.11293C12.9588 6.1361 12.1406 6.9282 12.9266 9.81738C12.9975 10.0778 13.0954 10.3362 13.2206 10.6439C13.5431 11.4378 14.211 13.0803 13.2172 14.5599C13.1654 14.6369 13.0808 14.6785 12.9944 14.6785Z" fill="#F16232"/>
<path d="M15.2715 8.92934C14.8623 8.92947 14.4588 8.83954 14.1111 8.6564C13.698 8.43884 13.4404 8.13894 13.3451 7.76508C13.2508 7.3954 13.3435 7.03843 13.4412 6.79914C12.5191 6.3826 12.3167 5.53041 12.3484 4.96425C11.4179 4.60715 11.3737 3.94281 11.4373 3.56201C11.5001 3.18841 11.7077 2.83457 12.0227 2.56557C13.3823 1.40379 15.1332 2.00124 16.2198 2.86599C16.8897 3.39903 17.3924 4.08131 17.7128 4.89356C18.5095 6.91093 17.4882 7.99782 16.8083 8.4662C16.364 8.77225 15.8129 8.92934 15.2715 8.92934ZM12.9037 4.83125C12.8801 4.95496 12.7105 6.03937 13.8923 6.39621C13.9734 6.42082 14.0384 6.48235 14.0672 6.5622C14.0957 6.64205 14.085 6.7308 14.0378 6.80149C14.0357 6.80476 13.7608 7.2319 13.8653 7.63548C13.9221 7.85488 14.0889 8.0388 14.3609 8.18201C14.9895 8.51319 15.8909 8.44696 16.5041 8.02453C17.479 7.35299 17.7178 6.36584 17.2144 5.09044C16.9285 4.36668 16.4816 3.75941 15.8857 3.28554C15.6799 3.12178 13.8342 1.72254 12.3709 2.9732C12.1518 3.16052 12.008 3.40113 11.9662 3.65063C11.9402 3.8047 11.862 4.274 12.7154 4.52232C12.8487 4.56107 12.9304 4.69511 12.9037 4.83125Z" fill="#F16232"/>
<path d="M8.0042 14.6785C7.9178 14.6785 7.83324 14.6369 7.7814 14.5599C6.78783 13.0806 7.45545 11.4382 7.77642 10.649C7.9034 10.336 8.00132 10.0776 8.072 9.81752C8.86633 6.89862 8.02278 6.12013 8.01441 6.11254C7.90471 6.01698 7.88874 5.84929 7.98142 5.73737C8.07436 5.62518 8.23642 5.60581 8.35057 5.69509C8.46864 5.78763 9.47765 6.69388 8.58934 9.95824C8.51184 10.2441 8.40764 10.5198 8.27517 10.8458C7.96518 11.6084 7.39183 13.0184 8.22647 14.2609C8.30894 14.3838 8.27621 14.5504 8.15343 14.633C8.10761 14.6637 8.05551 14.6785 8.0042 14.6785Z" fill="#F16232"/>
<path d="M12.9944 14.6785C12.9431 14.6785 12.891 14.6638 12.8452 14.633C12.7224 14.5504 12.6896 14.3838 12.7721 14.2609C13.6068 13.0181 13.0337 11.608 12.7258 10.8505C12.5915 10.5201 12.4873 10.2445 12.4092 9.95824C11.5212 6.69388 12.5299 5.78763 12.648 5.69508C12.7643 5.60384 12.9326 5.624 13.0245 5.7405C13.1146 5.85531 13.096 6.02077 12.9839 6.11293C12.9588 6.1361 12.1406 6.9282 12.9266 9.81738C12.9975 10.0778 13.0954 10.3362 13.2206 10.6439C13.5431 11.4378 14.211 13.0803 13.2172 14.5599C13.1654 14.6369 13.0808 14.6785 12.9944 14.6785Z" fill="#F16232"/>
<path d="M8.0042 14.6785C7.9178 14.6785 7.83324 14.6369 7.7814 14.5599C6.78783 13.0806 7.45545 11.4382 7.77642 10.649C7.9034 10.336 8.00132 10.0776 8.072 9.81752C8.86633 6.89862 8.02278 6.12013 8.01441 6.11254C7.90471 6.01698 7.88874 5.84929 7.98142 5.73737C8.07436 5.62518 8.23642 5.60581 8.35057 5.69509C8.46864 5.78763 9.47765 6.69388 8.58934 9.95824C8.51184 10.2441 8.40764 10.5198 8.27517 10.8458C7.96518 11.6084 7.39183 13.0184 8.22647 14.2609C8.30894 14.3838 8.27621 14.5504 8.15343 14.633C8.10761 14.6637 8.05551 14.6785 8.0042 14.6785Z" fill="#F16232"/>
<path d="M5.73189 8.92946C5.19047 8.92946 4.63963 8.77238 4.19508 8.46633C3.51542 7.99782 2.49411 6.91092 3.29053 4.89369C3.61098 4.08169 4.11339 3.39955 4.78362 2.86612C5.87065 2.00136 7.62189 1.40405 8.98067 2.56569C9.29589 2.83509 9.50376 3.18893 9.56607 3.56226C9.62969 3.94293 9.58545 4.60727 8.65524 4.96438C8.68718 5.53041 8.48454 6.38272 7.56246 6.79926C7.66011 7.03855 7.75279 7.39553 7.65854 7.7652C7.56324 8.13906 7.30562 8.43897 6.89249 8.65653C6.54481 8.83966 6.1411 8.92946 5.73189 8.92946ZM7.2509 2.45835C6.19974 2.45835 5.2609 3.17165 5.11769 3.28566C4.52181 3.7598 4.07465 4.36706 3.78901 5.09057C3.28582 6.36584 3.52459 7.35312 4.4993 8.02479C5.11272 8.44708 6.01386 8.51319 6.64272 8.18213C6.91579 8.03827 7.08282 7.85343 7.13885 7.63286C7.24122 7.23125 6.96841 6.80581 6.96579 6.80162C6.91867 6.73093 6.90793 6.64218 6.93647 6.56233C6.96527 6.48247 7.0302 6.42095 7.11136 6.39634C8.32458 6.03007 8.1099 4.88099 8.10021 4.8323C8.07298 4.69589 8.15467 4.56119 8.28819 4.52245C9.14142 4.27412 9.06314 3.80483 9.03722 3.65062C8.99559 3.40138 8.85186 3.16091 8.63247 2.97333C8.18844 2.59384 7.70881 2.45835 7.2509 2.45835Z" fill="#F16232"/>
<path d="M10.5727 19.0796C10.0928 19.0796 9.70222 18.689 9.70222 18.209V18.1642C9.70222 18.0091 9.59828 17.8705 9.43727 17.8111C8.32065 17.3982 7.57031 16.3546 7.57031 15.2142C7.57031 13.8025 8.66546 12.9597 10.4999 12.9597C12.3344 12.9597 13.4298 13.8025 13.4298 15.2142C13.4298 16.2862 12.7724 17.2737 11.7551 17.73C11.5629 17.8162 11.4435 17.9871 11.4435 18.1761V18.209C11.4435 18.689 11.0529 19.0796 10.5727 19.0796ZM10.4999 13.4959C9.78024 13.4959 8.1065 13.6634 8.1065 15.2142C8.1065 16.1312 8.71599 16.9727 9.62315 17.3081C9.99701 17.4462 10.2384 17.7823 10.2384 18.1642V18.209C10.2384 18.3934 10.3884 18.5435 10.5727 18.5435C10.7573 18.5435 10.9073 18.3934 10.9073 18.209V18.1761C10.9073 17.773 11.1482 17.4144 11.5357 17.2407C12.3606 16.8708 12.8937 16.0753 12.8937 15.2142C12.8937 13.6634 11.2197 13.4959 10.4999 13.4959Z" fill="#F16232"/>
<path d="M10.4661 6.38102C10.1203 6.38102 9.77419 6.28455 9.46892 6.09081L8.63611 5.56196C8.51122 5.48263 8.47405 5.31691 8.55364 5.19189C8.63296 5.06701 8.79895 5.02996 8.92357 5.10929L9.75638 5.63814C10.2049 5.92312 10.7774 5.91278 11.2152 5.61222L12.06 5.03284C12.1823 4.94893 12.3491 4.98009 12.4328 5.10235C12.5164 5.22449 12.4855 5.39126 12.3632 5.47504L11.5184 6.05442C11.2013 6.27185 10.834 6.38102 10.4661 6.38102Z" fill="#F16232"/>
</svg>
