<svg width="21" height="21" viewBox="0 0 21 21" fill="none" xmlns="http://www.w3.org/2000/svg">
<g clip-path="url(#clip0_2695_463)">
<path d="M19.2976 2.5248C18.7579 1.82474 18.1042 1.31033 17.4069 1.03708C16.6052 0.7229 15.7805 0.72692 14.9554 1.04897C14.9535 1.04971 14.9517 1.05045 14.9498 1.05123C13.5494 1.63238 12.9645 3.13097 13.4598 4.86905L13.461 4.87335C13.5159 5.05509 13.5642 5.23659 13.6061 5.41566C13.0778 5.65269 12.6185 5.95883 12.231 6.33421C11.2719 7.26309 10.7857 8.58855 10.7857 10.2739V13.2934C10.7857 13.4947 10.6369 13.6353 10.4233 13.6353H10.4227C10.3303 13.6353 10.2443 13.6002 10.1802 13.5362C10.1161 13.4722 10.0807 13.3859 10.0807 13.2934V10.2739C10.0807 8.58859 9.59448 7.26309 8.63546 6.33421C8.2771 5.98713 7.85722 5.69941 7.37837 5.47054C7.42312 5.27354 7.47582 5.07359 7.53628 4.87335L7.53755 4.86905C8.03277 3.13097 7.44789 1.63238 6.04753 1.05123C6.04565 1.05045 6.04376 1.04971 6.04187 1.04897C5.21684 0.726879 4.39202 0.7229 3.59037 1.03708C2.89314 1.31033 2.2394 1.82474 1.69971 2.5248C0.616818 3.92958 0.153752 6.01367 0.491311 7.96372C0.780635 9.63494 1.61235 10.9874 2.83326 11.7721C3.51248 12.2085 4.24937 12.4244 4.93494 12.4244C5.71514 12.4244 6.42886 12.1447 6.91473 11.5926C7.36705 11.0786 7.82421 10.1701 7.43337 8.76073C7.43296 8.75917 7.43251 8.75766 7.43206 8.75614C7.39547 8.63231 7.36381 8.50639 7.33542 8.37961C8.03564 8.77304 8.43194 9.47363 8.43194 10.3368V13.507C8.43194 13.8024 8.2812 14.0492 8.01833 14.1842C6.99856 14.7079 6.41364 15.5144 6.41364 16.3969C6.41364 16.9494 6.64628 17.4809 7.08638 17.9342C7.49625 18.3563 8.06821 18.6919 8.74041 18.9047C9.04557 19.0013 9.24277 19.2705 9.24277 19.5905V20.5489C9.24277 20.7074 9.37132 20.836 9.52988 20.836H11.3367C11.4953 20.836 11.6239 20.7074 11.6239 20.5489V19.5905C11.6239 19.2705 11.8211 19.0013 12.1262 18.9047C12.7984 18.6919 13.3703 18.3563 13.7802 17.9342C14.2203 17.4809 14.453 16.9494 14.453 16.3969C14.453 15.5144 13.8681 14.708 12.8483 14.1842C12.5854 14.0493 12.4347 13.8024 12.4347 13.507V10.3368C12.4347 9.4144 12.8872 8.67772 13.6795 8.30304C13.6474 8.45599 13.6094 8.60738 13.5655 8.75614C13.565 8.75766 13.5646 8.75917 13.5641 8.76073C13.1733 10.1701 13.6304 11.0786 14.0827 11.5926C14.5687 12.1448 15.2822 12.4244 16.0625 12.4244C16.748 12.4244 17.4851 12.2085 18.1642 11.7721C19.3851 10.9874 20.2168 9.63494 20.5061 7.96372C20.8437 6.01367 20.3806 3.92958 19.2976 2.5248ZM19.9403 7.86577C19.6787 9.37666 18.9377 10.5924 17.8537 11.289C16.6422 12.0676 15.2376 12.0358 14.5138 11.2133C13.9925 10.6209 13.8589 9.8481 14.1168 8.9163C14.1949 8.65155 14.2559 8.37933 14.2993 8.10465C14.4365 8.07946 14.5748 8.06498 14.7119 8.06244C14.8449 8.65196 15.0553 9.52411 16.1455 9.9695C16.2924 10.0295 16.4599 9.95909 16.5199 9.81229C16.5799 9.6655 16.5095 9.49791 16.3627 9.43794C15.6391 9.14234 15.4389 8.62358 15.3163 8.12585C15.6619 8.20735 15.9777 8.36587 16.2238 8.59618C16.3395 8.7045 16.5212 8.69855 16.6296 8.58277C16.7379 8.46702 16.7319 8.28532 16.6162 8.17696C16.3548 7.9323 16.0403 7.75031 15.697 7.63444C16.1071 7.48055 16.6329 7.44778 17.2362 7.54429C17.3927 7.56906 17.54 7.46271 17.5651 7.30611C17.5901 7.14956 17.4835 7.00231 17.3269 6.97725C16.2779 6.8095 15.4006 6.98976 14.8366 7.48506C14.3987 7.47514 13.9483 7.55902 13.524 7.74305C12.4668 8.20153 11.8604 9.14689 11.8604 10.3367V13.5069C11.8604 14.0176 12.1316 14.4617 12.5859 14.695C13.4075 15.1169 13.8787 15.7372 13.8787 16.3969C13.8787 17.2174 13.1228 17.9869 11.9529 18.3572C11.4042 18.5308 11.0496 19.0149 11.0496 19.5905V20.2617H9.81695V19.5905C9.81695 19.0149 9.46237 18.5309 8.91366 18.3572C7.74378 17.9869 6.98782 17.2174 6.98782 16.3969C6.98782 15.7372 7.459 15.1168 8.28059 14.695C8.73488 14.4617 9.00611 14.0176 9.00611 13.5069V10.3367C9.00611 9.14689 8.39974 8.20153 7.34252 7.74305C6.91817 7.55902 6.4679 7.47514 6.02994 7.48506C5.46593 6.98972 4.58865 6.8095 3.53959 6.97725C3.38304 7.00227 3.27639 7.14952 3.30141 7.30611C3.32643 7.46271 3.47376 7.56915 3.63028 7.54429C4.23362 7.44774 4.75944 7.48051 5.16955 7.63448C4.82621 7.75035 4.5117 7.93234 4.25035 8.177C4.13461 8.28536 4.12862 8.46706 4.23694 8.58281C4.3453 8.69855 4.52696 8.70458 4.64275 8.59622C4.88482 8.36961 5.1942 8.21252 5.53332 8.12991C5.39202 8.67206 5.2378 9.13812 4.50383 9.43794C4.35703 9.49791 4.28665 9.6655 4.34662 9.81229C4.40658 9.95909 4.57425 10.0295 4.72096 9.9695C5.76243 9.54405 5.95664 8.78928 6.11271 8.18278C6.12325 8.14181 6.13358 8.10169 6.14396 8.06228C6.32984 8.06498 6.51774 8.08894 6.70263 8.1334C6.74574 8.39815 6.80517 8.66078 6.88056 8.91639C7.13843 9.84814 7.00484 10.621 6.48357 11.2133C5.75981 12.0357 4.35515 12.0676 3.14363 11.289C2.05963 10.5924 1.3186 9.37666 1.05704 7.86577C0.746018 6.06908 1.16651 4.15689 2.15449 2.8754C2.64024 2.24532 3.97034 0.85858 5.83023 1.58275C6.71486 1.95132 7.48201 2.96563 6.98589 4.70966C6.93162 4.88951 6.88376 5.06916 6.84127 5.24725C6.66753 5.18515 6.48751 5.12941 6.30072 5.08056C5.79049 4.22949 5.1616 3.75326 4.38119 3.62586C4.22472 3.60035 4.07714 3.70646 4.05159 3.86297C4.02604 4.01945 4.13223 4.16702 4.2887 4.19258C4.74266 4.26665 5.13703 4.50446 5.48279 4.91503C4.89934 4.82848 4.26372 4.79596 3.57757 4.8179C3.41909 4.82295 3.29473 4.95555 3.29981 5.11403C3.30486 5.27252 3.43689 5.397 3.59595 5.39179C4.29215 5.36952 4.92969 5.40565 5.50773 5.49974C5.08793 5.83205 4.39202 6.16366 2.77276 6.18483C2.6142 6.18692 2.48738 6.31714 2.48943 6.47567C2.49148 6.63424 2.62138 6.76266 2.78027 6.75901C5.06521 6.72915 5.753 6.08471 6.20077 5.64793C7.03105 5.87192 7.7117 6.23876 8.23604 6.74662C9.07912 7.5632 9.50659 8.7499 9.50659 10.2738V13.2933C9.50659 13.5394 9.60178 13.77 9.77462 13.9426C9.94709 14.1147 10.1772 14.2095 10.4223 14.2095H10.4239C10.9488 14.2095 11.36 13.8071 11.36 13.2934V10.2739C11.36 8.74999 11.7875 7.56328 12.6305 6.74666C13.155 6.23876 13.8354 5.87192 14.6658 5.64793C15.1135 6.08471 15.8013 6.72919 18.0863 6.75901C18.2443 6.76134 18.3751 6.63424 18.3772 6.47567C18.3792 6.31714 18.2524 6.18692 18.0938 6.18483C16.4746 6.16366 15.7786 5.83201 15.3588 5.49974C15.9368 5.4057 16.5746 5.36968 17.2706 5.39179C17.4292 5.39659 17.5617 5.27248 17.5668 5.11403C17.5719 4.95555 17.4475 4.82295 17.289 4.8179C16.6027 4.79588 15.9673 4.82848 15.3838 4.91503C15.7295 4.50446 16.1239 4.26661 16.5779 4.19254C16.7344 4.16698 16.8405 4.01941 16.815 3.86293C16.7894 3.70646 16.6419 3.60039 16.4854 3.62582C15.705 3.75318 15.0761 4.22949 14.5659 5.08056C14.422 5.11818 14.2824 5.16026 14.1463 5.20574C14.1062 5.04131 14.0616 4.87549 14.0116 4.70954C13.5156 2.96572 14.2826 1.95124 15.1672 1.58271C17.0271 0.858539 18.3573 2.24528 18.843 2.87536C19.831 4.15685 20.2515 6.06908 19.9404 7.86573L19.9403 7.86577ZM11.0138 2.04688V0.451172C11.0138 0.292605 11.1424 0.164062 11.3009 0.164062C11.4595 0.164062 11.588 0.292605 11.588 0.451172V2.04688C11.588 3.28724 11.9895 4.20271 12.7814 4.7679C12.9105 4.86002 12.9405 5.0393 12.8483 5.16838C12.7923 5.24688 12.704 5.28872 12.6144 5.28872C12.5567 5.28872 12.4984 5.27137 12.4479 5.23528C11.4963 4.55614 11.0138 3.48342 11.0138 2.04688ZM8.01825 5.16838C7.92613 5.03934 7.95607 4.86002 8.08515 4.7679C8.87704 4.20271 9.27854 3.2872 9.27854 2.04688V0.451172C9.27854 0.292605 9.40708 0.164062 9.56565 0.164062C9.72422 0.164062 9.85276 0.292605 9.85276 0.451172V2.04688C9.85276 3.48337 9.37029 4.55614 8.41873 5.23528C8.3682 5.27137 8.30991 5.28872 8.25216 5.28872C8.16255 5.28872 8.07428 5.24688 8.01825 5.16838Z" fill="#F16232" stroke="#F16232" stroke-width="0.2"/>
</g>
<defs>
<clipPath id="clip0_2695_463">
<rect width="21" height="21" fill="white"/>
</clipPath>
</defs>
</svg>
